<?xml version="1.0" encoding="UTF-8"?>
<svg version="1.1" xmlns="http://www.w3.org/2000/svg" width="58" height="25">
<path d="M0 0 C1.43510422 -0.01142029 1.43510422 -0.01142029 2.89920044 -0.02307129 C4.92154331 -0.033868 6.94394191 -0.03672714 8.96630859 -0.03222656 C12.05271006 -0.03125554 15.1366145 -0.0728549 18.22265625 -0.1171875 C20.190099 -0.12239571 22.15755036 -0.12508267 24.125 -0.125 C25.50339554 -0.1495929 25.50339554 -0.1495929 26.90963745 -0.17468262 C31.30131419 -0.12757705 34.27258096 0.05993907 37.76220703 2.88085938 C41.35955812 6.70706061 41.54210385 9.05688389 41.4765625 14.14453125 C41.03927035 17.75826498 39.60153005 19.80240082 37.1953125 22.46875 C32.65707748 24.96126042 28.17299737 24.77504281 23.1328125 24.76953125 C22.26390381 24.77381638 21.39499512 24.7781015 20.49975586 24.78251648 C18.66748931 24.78824488 16.83520003 24.78877104 15.00292969 24.78442383 C12.20468317 24.78126059 9.40749121 24.80475247 6.609375 24.83007812 C4.82552216 24.832351 3.04166649 24.83305467 1.2578125 24.83203125 C0.42435303 24.841241 -0.40910645 24.85045074 -1.26782227 24.85993958 C-6.95257056 24.81479298 -10.08772638 23.66043197 -14.5625 20.05078125 C-16.96597267 16.98975474 -16.91437782 13.24338763 -16.8046875 9.46875 C-13.64090739 0.4769539 -8.61487584 0.00187997 0 0 Z " fill="#4FBEB8" transform="translate(16.8046875,0.53125)"/>
<path d="M0 0 C1.875 0.125 1.875 0.125 4 1 C5.25 4.0625 5.25 4.0625 6 7 C6.66 5.02 7.32 3.04 8 1 C9.32 1 10.64 1 12 1 C12.66 2.98 13.32 4.96 14 7 C14.99 4.69 15.98 2.38 17 0 C17.99 0 18.98 0 20 0 C19.01 4.62 18.02 9.24 17 14 C15.35 14.33 13.7 14.66 12 15 C11.67 12.69 11.34 10.38 11 8 C10.34 8 9.68 8 9 8 C8.67 10.31 8.34 12.62 8 15 C6.35 15 4.7 15 3 15 C2.49564306 13.0636296 1.99666126 11.12585854 1.5 9.1875 C1.2215625 8.10855469 0.943125 7.02960937 0.65625 5.91796875 C0 3 0 3 0 0 Z " fill="#E6F6F5" transform="translate(24,5)"/>
<path d="M0 0 C2.05078125 0.03255208 4.1015625 0.06510417 6.15234375 0.09765625 C6.15234375 1.08765625 6.15234375 2.07765625 6.15234375 3.09765625 C4.50234375 3.09765625 2.85234375 3.09765625 1.15234375 3.09765625 C1.15234375 4.08765625 1.15234375 5.07765625 1.15234375 6.09765625 C2.47234375 6.09765625 3.79234375 6.09765625 5.15234375 6.09765625 C5.15234375 7.08765625 5.15234375 8.07765625 5.15234375 9.09765625 C3.83234375 9.09765625 2.51234375 9.09765625 1.15234375 9.09765625 C1.15234375 10.08765625 1.15234375 11.07765625 1.15234375 12.09765625 C2.80234375 12.09765625 4.45234375 12.09765625 6.15234375 12.09765625 C6.15234375 13.08765625 6.15234375 14.07765625 6.15234375 15.09765625 C3.18234375 15.09765625 0.21234375 15.09765625 -2.84765625 15.09765625 C-2.87451037 12.78521833 -2.89398466 10.47269355 -2.91015625 8.16015625 C-2.92175781 6.87238281 -2.93335938 5.58460937 -2.9453125 4.2578125 C-2.81833933 0.14896085 -2.81833933 0.14896085 0 0 Z " fill="#DAF1F0" transform="translate(16.84765625,4.90234375)"/>
</svg>
