<svg width="800" height="600" viewBox="0 0 800 600" fill="none" xmlns="http://www.w3.org/2000/svg">
<path fill-rule="evenodd" clip-rule="evenodd" d="M102.995 245.574C100.507 246.542 98.9171 250.234 97.3102 252.122C96.4809 253.09 95.496 253.237 94.226 252.753C84.8956 249.225 77.7423 243.309 72.5933 235.153C71.7207 233.889 71.8762 232.888 72.9302 231.715C74.4853 229.975 76.4377 227.998 76.8611 225.651C77.7941 220.465 70.6581 204.374 61.2326 211.669C34.1053 232.667 106.485 288.348 119.548 258.235C123.245 249.701 107.124 243.974 103.004 245.574H102.995ZM87.3146 289.768C77.7164 289.768 68.2823 287.347 60.0145 282.76C58.684 282.022 57.0858 281.825 55.5998 282.211L37.6388 286.896L43.8936 273.808C44.7489 272.028 44.5243 269.952 43.3234 268.368C36.628 259.556 33.0945 249.159 33.0945 238.287C33.0945 209.888 57.4141 186.79 87.3146 186.79C117.215 186.79 141.526 209.888 141.526 238.287C141.526 266.686 117.206 289.776 87.3146 289.776V289.768ZM87.3146 175.885C51.0901 175.893 21.6216 203.882 21.6216 238.279C21.6216 250.382 25.2414 262.009 32.1183 272.093L22.1399 292.968C21.2155 294.896 21.5525 297.153 22.9952 298.761C24.1011 299.992 25.708 300.673 27.3667 300.673C31.0643 300.673 51.2456 294.65 56.3774 293.313C65.8719 298.137 76.5155 300.673 87.3146 300.673C123.53 300.673 153.008 272.684 153.008 238.279C153.008 203.874 123.539 175.885 87.3146 175.885Z" fill="black"/>
<path d="M456.747 17.0455H346.857C340.413 17.0455 335.135 21.8113 335.135 27.7009V91.6173C335.135 97.4989 340.413 102.273 346.857 102.273H456.747C463.191 102.273 468.468 97.5069 468.468 91.6173V27.7009C468.468 21.8193 463.199 17.0455 456.747 17.0455ZM454.949 24.1464C451.162 27.6052 406.659 68.1866 404.827 69.8523C403.301 71.247 400.303 71.247 398.768 69.8523L348.646 24.1464H454.94H454.949ZM342.947 90.3024V28.9999L376.561 59.6511L342.947 90.3024ZM348.654 95.1559L382.075 64.68L393.245 74.8652C397.821 79.0413 405.791 79.0333 410.367 74.8652L421.537 64.68L454.958 95.1559H348.663H348.654ZM460.657 90.3024L427.043 59.6511L460.657 28.9999V90.3024Z" fill="black"/>
<path d="M655.182 292.664C650.673 292.64 647.018 289.169 646.992 284.886V220.916C647.018 212.038 654.586 204.842 663.943 204.817H743.864C753.229 204.817 760.832 212.013 760.858 220.916V263.552C760.858 272.446 753.281 279.667 743.908 279.692H677.256C676.495 279.692 675.761 279.929 675.156 280.356L660.133 291.13C658.699 292.139 656.962 292.672 655.182 292.672V292.664ZM663.943 213.138C659.433 213.162 655.779 216.633 655.753 220.916V283.852L669.895 273.702C672.02 272.2 674.603 271.388 677.256 271.371H743.864C748.409 271.371 752.098 267.868 752.098 263.552V220.916C752.072 216.633 748.417 213.162 743.908 213.138H663.943Z" fill="black"/>
<path d="M721.186 246.788C723.605 246.788 725.567 244.925 725.567 242.628C725.567 240.33 723.605 238.468 721.186 238.468C718.767 238.468 716.806 240.33 716.806 242.628C716.806 244.925 718.767 246.788 721.186 246.788Z" fill="black"/>
<path d="M704.193 246.788C706.612 246.788 708.573 244.925 708.573 242.628C708.573 240.33 706.612 238.468 704.193 238.468C701.774 238.468 699.813 240.33 699.813 242.628C699.813 244.925 701.774 246.788 704.193 246.788Z" fill="black"/>
<path d="M686.673 246.788C689.092 246.788 691.053 244.925 691.053 242.628C691.053 240.33 689.092 238.468 686.673 238.468C684.253 238.468 682.292 240.33 682.292 242.628C682.292 244.925 684.253 246.788 686.673 246.788Z" fill="black"/>
<path d="M773.998 250.571C771.579 250.571 769.618 248.708 769.618 246.41V204.276C769.592 199.993 765.938 196.522 761.428 196.497H673.273C670.854 196.497 668.893 194.634 668.893 192.337C668.893 190.039 670.854 188.177 673.273 188.177H761.428C770.776 188.201 778.352 195.389 778.378 204.276V246.41C778.378 248.708 776.417 250.571 773.998 250.571Z" fill="black"/>
<path d="M581.083 358.365C581.083 357.192 580.954 356.018 580.703 354.869C578.639 345.417 568.893 339.345 558.95 341.306C548.202 343.242 537.161 343.07 526.483 340.814C497.136 334.52 474.216 312.751 467.589 284.877C465.214 274.736 465.041 264.249 467.071 254.042C467.321 252.893 467.451 251.719 467.451 250.546C467.486 240.896 459.27 233.044 449.101 233.019H304.057C253.059 233.019 211.711 272.29 211.711 320.727V442.634C211.711 491.071 253.059 530.342 304.057 530.342H331.763C337.508 530.613 342.864 533.156 346.536 537.358L374.242 572.263C376.29 575.308 379.011 577.892 382.216 579.837C394.458 587.279 410.726 583.882 418.561 572.263L446.294 537.325C449.784 532.927 455.244 530.342 461.041 530.342H488.928C539.822 530.342 581.083 491.153 581.083 442.815V358.373V358.365ZM322.527 408.418C312.324 408.418 304.057 400.565 304.057 390.875C304.057 381.184 312.324 373.332 322.527 373.332C332.73 373.332 340.998 381.184 340.998 390.875C340.964 400.549 332.713 408.385 322.527 408.418ZM396.402 408.418C386.199 408.418 377.931 400.565 377.931 390.875C377.931 381.184 386.199 373.332 396.402 373.332C406.605 373.332 414.873 381.184 414.873 390.875C414.838 400.549 406.587 408.385 396.402 408.418ZM470.276 408.418C460.073 408.418 451.805 400.565 451.805 390.875C451.805 381.184 460.073 373.332 470.276 373.332C480.479 373.332 488.747 381.184 488.747 390.875C488.712 400.549 480.462 408.385 470.276 408.418Z" fill="#939598"/>
<path d="M547.001 221.909C518.95 221.909 496.211 243.506 496.211 270.149C496.237 296.775 518.958 318.364 547.001 318.388C575.053 318.388 597.792 296.792 597.792 270.149C597.792 243.506 575.053 221.909 547.001 221.909ZM551.641 306.474C550.276 307.77 548.634 308.419 546.708 308.419C544.781 308.419 543.14 307.77 541.775 306.474C540.41 305.178 539.727 303.619 539.727 301.789C539.727 299.959 540.41 298.351 541.775 297.054C543.14 295.758 544.781 295.11 546.708 295.11C548.634 295.11 550.276 295.758 551.641 297.054C553.006 298.351 553.688 299.926 553.688 301.789C553.688 303.651 553.006 305.178 551.641 306.474ZM553.576 246.279L547.347 288.324H546.31L540.893 247.379C540.436 244.015 540.202 241.422 540.202 239.592C540.202 237.179 540.833 235.3 542.103 233.947C543.373 232.593 545.118 231.92 547.347 231.92C549.464 231.92 551.14 232.576 552.392 233.889C553.645 235.202 554.267 237.015 554.267 239.313C554.267 240.921 554.034 243.243 553.576 246.271V246.279Z" fill="#939598"/>
</svg>
