<svg width="20" height="20" viewBox="0 0 20 20" fill="none" xmlns="http://www.w3.org/2000/svg">
<path d="M10.4313 15.4813L8.55625 11.45L4.525 9.57501C4.2733 9.46738 4.0609 9.28477 3.91673 9.05206C3.77256 8.81935 3.70364 8.54785 3.71936 8.27456C3.73507 8.00126 3.83466 7.73945 4.00455 7.5248C4.17444 7.31014 4.40637 7.15308 4.66875 7.07501L14.4938 3.81876C14.7287 3.74177 14.9804 3.73141 15.2209 3.78882C15.4613 3.84624 15.6812 3.96918 15.856 4.144C16.0308 4.31882 16.1538 4.53868 16.2112 4.77916C16.2686 5.01964 16.2582 5.27132 16.1813 5.50626L12.9 15.3375C12.8159 15.5901 12.6579 15.8117 12.4466 15.9737C12.2352 16.1356 11.9801 16.2304 11.7143 16.2459C11.4485 16.2614 11.1842 16.1968 10.9555 16.0605C10.7267 15.9242 10.5441 15.7224 10.4313 15.4813Z" stroke="black" stroke-linecap="round" stroke-linejoin="round"/>
<path d="M8.68127 11.3188L11.2125 8.78751" stroke="black" stroke-linecap="round" stroke-linejoin="round"/>
</svg>
