<svg id="Layer_1" data-name="Layer 1" xmlns="http://www.w3.org/2000/svg" xmlns:xlink="http://www.w3.org/1999/xlink" viewBox="0 0 318 318"><defs><style>.cls-1{fill:none;}.cls-2{isolation:isolate;}.cls-3{clip-path:url(#clip-path);}</style><clipPath id="clip-path"><rect class="cls-1" width="318" height="318"/></clipPath></defs><g class="cls-2"><g class="cls-2"><g class="cls-3"><g class="cls-2"><g class="cls-3"><g class="cls-3"><g class="cls-2"><g class="cls-3"><g class="cls-3"><g class="cls-2"><g class="cls-3"><path d="M7.09,7.81H58.84V59.57H7.09Zm59.15,0H81V15.2h-7.4v7.4H66.24Zm22.18,0h7.39V15.2H88.42Zm14.79,0h7.39V15.2h-7.39Zm14.78,0h14.79V15.2h7.39v7.4H125.39V37.39H118V30H110.6V22.6H118Zm37,0h7.4V15.2h14.78V7.81h7.4V15.2h7.39v7.4h7.39V15.2h7.4v7.4h7.39V30H184.54v7.4H162.36V22.6H155Zm59.15,0h29.58V15.2h-7.4v7.4H228.9V15.2h-7.39v7.4h-7.4Zm44.36,0h51.76V59.57H258.47Zm-244,7.39v37h37v-37Zm81.33,0h7.4v7.4h-7.4Zm147.88,0h7.39V30H236.29V22.6h7.4Zm22.18,0v37h37v-37Zm-244,7.4H44.06V44.78H21.88ZM81,22.6H95.81V30H110.6V52.17h-7.39V67h-7.4v7.39H88.42V59.57h7.39V44.78h7.4V37.39h-7.4v7.39H88.42V37.39H81Zm59.14,0H155V30h-7.39V44.78h14.79V59.57H155v-7.4h-7.39V67H155v7.39h7.4v7.4H140.17v7.39h-7.39V81.75h-7.39v7.39H103.21v22.18h-7.4v-7.39H88.42v14.78H81V96.53H66.24V89.14h7.39V81.75H81v7.39h7.39V81.75h7.39v-7.4H110.6v7.4H118V67h14.79V59.57h7.39V44.78h-7.39V37.39h7.39Zm81.34,0h7.39V30h-7.39Zm51.75,0h22.18V44.78H273.26ZM66.24,30h7.39v7.4H66.24Zm147.87,0h7.4V44.78H206.72V37.39h7.39ZM73.63,37.39H81v7.39h-7.4Zm118.3,0h7.39V52.17h-7.39Zm44.36,0h7.4V52.17h-7.4ZM81,44.78h7.39V59.57H81Zm44.36,0h7.39V59.57h-7.39Zm44.36,0h7.39V67h7.4V89.14H169.75V74.35h-7.39V67h7.39ZM66.24,52.17h7.39V67H66.24Zm44.36,0H118v7.4H110.6Zm73.94,0h7.39V67h-7.39Zm14.78,0h7.4v7.4h-7.4Zm14.79,0h7.4v7.4h7.39v-7.4h7.39V67H228.9v7.39h-7.39v7.4h14.78v7.39H214.11V81.75h-7.39v-7.4h7.39Zm29.58,0h7.39V74.35h7.39V67h7.4v7.39h14.78V67h7.4V81.75h7.39v7.39H273.26V81.75H258.47v7.39h-7.39V81.75H236.29v-7.4h7.4ZM7.09,67h7.39v7.39H7.09Zm14.79,0H36.66V81.75H58.84v7.39H44.06v7.39h-7.4v7.4h7.4v-7.4H58.84v7.4H51.45v7.39H44.06v14.79H58.84v-7.4h7.4v7.4h7.39v7.39H81v7.39h7.39V118.71h7.39v7.4h7.4v7.39h7.39v7.39H118V133.5h7.4v22.18h7.39v7.4h7.39v-7.4h7.4v-7.39h14.79v7.39H155v7.4h7.4v7.39H140.17v7.39h-7.39v-7.39h-7.39v7.39H118v7.4h7.4v-7.4h7.39v7.4h7.39v7.39h-7.39V200H118v-7.39H110.6V170.47h-7.39v22.18h-7.4V177.86H88.42v-7.39h7.39v-7.39h7.4V140.89h-7.4v7.4H81v7.39h-7.4v-7.39H66.24v-7.4h-7.4V133.5H36.66V111.32H21.88v-7.39h7.39v-7.4H21.88v7.4h-7.4v7.39H7.09V96.53h7.39V81.75h7.4v7.39h7.39V74.35H21.88Zm22.18,0H66.24V81.75h-7.4v-7.4H44.06Zm29.57,0H81v7.39h-7.4Zm118.3,0h14.79v7.39H191.93Zm103.51,0h14.79V81.75h-7.4v-7.4h-7.39ZM81,74.35h7.39v7.4H81Zm118.29,7.4h7.4v7.39h-7.4Zm-73.93,7.39h7.39v7.39h-7.39Zm14.78,0h22.19v7.39H140.17Zm51.76,0h7.39v7.39h7.4v14.79h7.39v-7.39h7.4v-7.4h7.39v14.79h-7.39v14.79h-7.4v-7.4H191.93v7.4h-7.39V111.32h7.39Zm44.36,0h7.4v7.39h-7.4Zm22.18,0h7.4v7.39h-7.4Zm37,0h14.79v7.39H295.44ZM132.78,96.53h7.39v14.79h-7.39Zm29.58,0h14.78v7.4h-7.39v22.18h14.79v7.39h7.39v7.39H177.14V133.5H162.36v-7.39H155v7.39h-7.39v7.39h-7.4v7.4h-7.39V133.5h7.39V118.71h22.19Zm81.33,0h7.39v14.79h7.39v7.39H228.9v-7.39h14.79Zm22.18,0h7.39v7.4h-7.39Zm14.78,0h14.79v7.4h-7.39v7.39h-7.4Zm-221.81,7.4h7.4v7.39h-7.4Zm59.15,0h7.4v7.39H118Zm59.15,0h7.4v7.39h-7.4Zm81.33,0h7.4v7.39h-7.4Zm44.36,0h7.4V133.5H295.44v-7.39h7.39ZM51.45,111.32h7.39v7.39H51.45Zm14.79,0h7.39v7.39H66.24Zm37,0h7.39v7.39h-7.39Zm22.18,0h7.39v7.39h-7.39Zm140.48,0h14.78v7.39h-7.39v7.4h7.39v7.39H265.87v-7.39h-7.4v-7.4h7.4Zm22.18,0h7.39v7.39h-7.39Zm-281,7.39h7.39v7.4H7.09Zm14.79,0h7.39v7.4H21.88Zm51.75,0H81v7.4h-7.4Zm37,0H118v7.4H110.6Zm170,0h7.4v7.4h-7.4Zm-266.17,7.4h7.4v14.78h-7.4Zm110.91,0h7.39v7.39h-7.39Zm66.54,0h7.39v7.39h-7.39Zm14.79,0h7.39v14.78h7.4v7.4h-7.4v7.39h-7.39v7.4h-7.4v22.18h-7.39V140.89h7.39V133.5h7.4Zm37,0h7.39v22.18h-7.39ZM29.27,133.5h7.39v14.79H29.27v7.39h7.39v-7.39h7.4v14.79h-37V140.89h7.39v14.79h7.4V140.89h7.39Zm199.63,0h7.39v22.18H221.51v-7.39h7.39ZM44.06,140.89H58.84v7.4H44.06Zm118.3,0h7.39v7.4h-7.39Zm118.29,0h7.4v7.4h-7.4Zm-221.81,7.4h7.4v7.39h-7.4Zm110.91,0h14.79v29.57H169.75Zm81.33,0h7.39v7.39h7.4v-7.39h14.78v22.18h-7.39v7.39h14.79v7.4h7.39V200h-7.39v-7.39H273.26v-7.39H258.47v-7.4h-7.39v7.4h-7.39V170.47h-7.4V155.68h7.4v7.4h7.39Zm37,0h7.39v7.39h7.39v-7.39h7.4v22.18h-7.4v-7.39H288.05Zm-236.6,7.39h7.39v7.4H51.45Zm14.79,0h7.39v7.4H66.24Zm-22.18,7.4h7.39v7.39h7.39v-7.39h7.4v22.18h-7.4v-7.4H44.06Zm37,0h7.39v7.39H81Zm133.08,0H228.9v7.39H214.11ZM14.48,170.47h7.4v7.39h-7.4Zm59.15,0H81v7.39h-7.4Zm155.27,0h7.39v14.79H228.9Zm66.54,0h7.39v7.39h-7.39ZM29.27,177.86H44.06v7.4H58.84v7.39H36.66v-7.39H29.27Zm110.9,0h22.19v7.4H140.17Zm73.94,0h7.4v7.4h7.39V200h7.39V185.26h7.4v22.18h-7.4v14.78H228.9V207.44h-7.39V192.65h-7.4V200h-7.39v-7.39h-7.4v-7.39h14.79Zm-147.87,7.4h7.39v22.18H81V200h7.39v7.4h7.39v14.78H118v7.4h7.4V237H110.6v7.4H95.81v14.78H110.6v7.4h-7.39V274H88.42V244.41H73.63V237H66.24v-7.39h7.39v-7.4H81V237H95.81v-7.39H88.42v-7.4H81v-7.39h-7.4v7.39H66.24v7.4h-7.4v-7.4H44.06v-7.39H58.84v-7.39H44.06V200H66.24Zm103.51,0h7.39v7.39h-7.39ZM14.48,192.65h7.4V200h-7.4Zm133.09,0H155v37h-7.39v-7.4h-7.4V207.44h-7.39V200h14.79Zm37,0h14.78v14.79h-7.39V200h-7.39Zm73.93,0h7.4v14.79h-7.4v7.39h-7.39V200h7.39Zm44.36,0h7.4v14.79h-7.4ZM7.09,200h7.39v7.4H7.09Zm14.79,0h7.39v14.79H14.48v-7.39h7.4Zm73.93,0H110.6v14.79h-7.39v-7.39h-7.4Zm184.84,0h7.4v14.79h-7.4v7.39h-7.39v7.4h-7.39v14.79h7.39V229.62h7.39v-7.4h7.4v7.4h7.39v14.79h7.39V237h7.4v22.18h-7.4v7.4h-7.39V251.8H280.65v14.79h7.4V274h7.39v7.39h7.39v7.4h7.4v7.39h-7.4V311H288.05v-7.39h7.39V288.77h-7.39v-7.4h-7.4v7.4h-7.39v-7.4H258.47v14.79h-7.39V311h-7.39V288.77h7.39v-7.4h-7.39V266.59H228.9v-7.4h7.39V251.8h7.4v-7.39h7.39V237h7.39V222.22h7.4v-7.39h7.39v-7.39h7.39Zm-244,7.4h7.4v7.39h-7.4Zm81.33,0h7.4v7.39H118Zm44.37,0h22.18v14.78H162.36Zm37,0h22.19v22.18h14.78v-7.4h7.4v-7.39h7.39v14.79h-7.39v14.79h-7.4V237H228.9v22.18H206.72V274H184.54v-7.39h14.78V244.41h7.4v7.39h14.79V237H199.32v-7.39h14.79V214.83h-7.39v7.39h-7.4v7.4h-7.39v14.79h-7.39V237h-7.4v-7.39h7.4v-7.4h7.39v-7.39h7.39Zm96.12,0h7.39v14.78h-7.39ZM29.27,214.83h7.39v7.39h7.4v7.4H58.84V237H36.66v-7.39H29.27Zm-14.79,7.39h7.4v7.4h-7.4Zm-7.39,7.4h7.39V237H7.09Zm14.79,0h7.39V237H21.88Zm110.9,0h7.39v14.79H155V229.62h7.4v14.79h7.39V237h7.39v7.4h7.4v22.18h-7.4v14.78H162.36V274H147.57v7.39H155V311h-7.39V288.77h-7.4V311H118v-7.39H110.6V311H88.42v-7.39H81V311H66.24v-7.39h7.39v-7.4H66.24V281.37h7.39v7.4H88.42v7.39h7.39v7.4h7.4v-7.4h7.39V281.37H118V274H110.6v-7.39H118v-7.4h7.4v7.4h7.39v14.78h7.39V266.59h22.19v-7.4h14.78V251.8H155v7.39h-7.39V251.8H132.78v7.39h-7.39V251.8H118v7.39H110.6V244.41h14.79V237h7.39ZM14.48,244.41H36.66v7.39H14.48Zm37,0h7.39v7.39H51.45Zm14.79,0h7.39v7.39H81v7.39h-7.4V274H66.24Zm184.84,7.39V274h22.18V251.8Zm-244,7.39H58.84V311H7.09Zm125.69,0h7.39v7.4h-7.39Zm125.69,0h7.4v7.4h-7.4Zm-244,7.4v37h37v-37Zm199.63,0H228.9V274H214.11ZM21.88,274H44.06v22.18H21.88Zm51.75,0H81v7.39h-7.4Zm29.58,0h7.39v7.39h-7.39Zm103.51,0h7.39v7.39h-7.39Zm96.11,0h7.4v7.39h-7.4ZM88.42,281.37h7.39v7.4H88.42Zm96.12,0h7.39v7.4h-7.39Zm29.57,0H228.9v14.79h-7.39v-7.39h-7.4Zm22.18,0h7.4v7.4h-7.4ZM118,288.77v7.39h7.4v7.4h7.39V288.77Zm162.66,0h7.4v14.79h-7.4V311H265.87V296.16h14.78Zm-118.29,7.39h22.18V311H162.36Zm29.57,7.4h14.79V311H191.93Zm22.18,0h7.4V311h-7.4Zm14.79,0h7.39V311H228.9Z"/></g></g></g></g></g></g></g></g></g></g></g></svg>