<svg xmlns="http://www.w3.org/2000/svg" xmlns:xlink="http://www.w3.org/1999/xlink" viewBox="0 0 58.53 18.15"><defs><style>.cls-1{fill:#a6a6a6;}.cls-10,.cls-2,.cls-3{fill:#fff;}.cls-2{stroke:#fff;stroke-miterlimit:10;stroke-width:0.08px;}.cls-4{fill:url(#linear-gradient);}.cls-5{fill:url(#linear-gradient-2);}.cls-6{fill:url(#linear-gradient-3);}.cls-7{fill:url(#linear-gradient-4);}.cls-8{opacity:0.2;}.cls-10,.cls-8,.cls-9{isolation:isolate;}.cls-9{opacity:0.12;}.cls-10{opacity:0.25;}</style><linearGradient id="linear-gradient" x1="10.17" y1="345.73" x2="3.15" y2="338.72" gradientTransform="matrix(1, 0, 0, -1, 0, 350.09)" gradientUnits="userSpaceOnUse"><stop offset="0" stop-color="#00a0ff"/><stop offset="0.01" stop-color="#00a1ff"/><stop offset="0.26" stop-color="#00beff"/><stop offset="0.51" stop-color="#00d2ff"/><stop offset="0.76" stop-color="#00dfff"/><stop offset="1" stop-color="#00e3ff"/></linearGradient><linearGradient id="linear-gradient-2" x1="15.2" y1="341.01" x2="5.08" y2="341.01" gradientTransform="matrix(1, 0, 0, -1, 0, 350.09)" gradientUnits="userSpaceOnUse"><stop offset="0" stop-color="#ffe000"/><stop offset="0.41" stop-color="#ffbd00"/><stop offset="0.78" stop-color="orange"/><stop offset="1" stop-color="#ff9c00"/></linearGradient><linearGradient id="linear-gradient-3" x1="11.43" y1="340.06" x2="1.92" y2="330.54" gradientTransform="matrix(1, 0, 0, -1, 0, 350.09)" gradientUnits="userSpaceOnUse"><stop offset="0" stop-color="#ff3a44"/><stop offset="1" stop-color="#c31162"/></linearGradient><linearGradient id="linear-gradient-4" x1="4.11" y1="349.3" x2="8.35" y2="345.05" gradientTransform="matrix(1, 0, 0, -1, 0, 350.09)" gradientUnits="userSpaceOnUse"><stop offset="0" stop-color="#32a071"/><stop offset="0.07" stop-color="#2da771"/><stop offset="0.48" stop-color="#15cf74"/><stop offset="0.8" stop-color="#06e775"/><stop offset="1" stop-color="#00f076"/></linearGradient></defs><g id="Layer_1" data-name="Layer 1"><rect x="1.06" y="0.72" width="56.42" height="16.72" rx="2.09"/><path class="cls-1" d="M55.38,1.05a1.76,1.76,0,0,1,1.76,1.76V15.34a1.76,1.76,0,0,1-1.76,1.76H3.15a1.76,1.76,0,0,1-1.76-1.76V2.81A1.76,1.76,0,0,1,3.15,1.05H55.38m0-.33H3.15A2.1,2.1,0,0,0,1.06,2.81V15.34a2.1,2.1,0,0,0,2.09,2.09H55.38a2.1,2.1,0,0,0,2.09-2.09V2.81A2.1,2.1,0,0,0,55.38.72Z"/><path class="cls-2" d="M20.87,5a1.13,1.13,0,0,1-.31.84,1.23,1.23,0,0,1-.92.37,1.26,1.26,0,0,1-.92-.38,1.23,1.23,0,0,1-.38-.93,1.28,1.28,0,0,1,1.3-1.31,1.34,1.34,0,0,1,.52.1,1.15,1.15,0,0,1,.39.28l-.22.22a.85.85,0,0,0-.69-.29,1,1,0,0,0-.68.27,1,1,0,0,0-.29.73.94.94,0,0,0,.29.72.93.93,0,0,0,.68.28.94.94,0,0,0,.7-.28.8.8,0,0,0,.21-.51h-.91v-.3h1.22A1.28,1.28,0,0,1,20.87,5Z"/><path class="cls-2" d="M22.8,4H21.66v.8h1v.3h-1v.79H22.8v.31H21.34V3.64H22.8Z"/><path class="cls-2" d="M24.16,6.15h-.32V4h-.7V3.64h1.72V4h-.7Z"/><path class="cls-2" d="M26.11,6.15V3.64h.32V6.15Z"/><path class="cls-2" d="M27.86,6.15h-.33V4h-.7V3.64h1.73V4h-.7Z"/><path class="cls-2" d="M31.82,5.83a1.3,1.3,0,0,1-1.84,0,1.29,1.29,0,0,1-.37-.93A1.26,1.26,0,0,1,30,4a1.21,1.21,0,0,1,.92-.38,1.22,1.22,0,0,1,.92.38,1.3,1.3,0,0,1,.37.93A1.33,1.33,0,0,1,31.82,5.83Zm-1.6-.21a.94.94,0,0,0,.68.28,1,1,0,0,0,.68-.28,1,1,0,0,0,.28-.72,1,1,0,0,0-.28-.72.91.91,0,0,0-.68-.28.9.9,0,0,0-.68.28,1,1,0,0,0-.28.72A1,1,0,0,0,30.22,5.62Z"/><path class="cls-2" d="M32.64,6.15V3.64H33l1.22,1.95h0V3.64h.32V6.15h-.33L33,4.11h0v2Z"/><path class="cls-3" d="M29.53,9.81a1.78,1.78,0,1,0,1.79,1.78A1.75,1.75,0,0,0,29.53,9.81Zm0,2.85a1.08,1.08,0,1,1,1-1.07A1,1,0,0,1,29.53,12.66ZM25.64,9.81a1.78,1.78,0,1,0,1.78,1.78A1.76,1.76,0,0,0,25.64,9.81Zm0,2.85a1.08,1.08,0,1,1,1-1.07A1,1,0,0,1,25.64,12.66ZM21,10.35v.76h1.8a1.55,1.55,0,0,1-.41,1,1.84,1.84,0,0,1-1.39.55,2,2,0,0,1,0-4,1.92,1.92,0,0,1,1.36.53l.53-.53A2.63,2.63,0,0,0,21,7.84a2.76,2.76,0,1,0,0,5.52,2.45,2.45,0,0,0,2.58-2.54,3.3,3.3,0,0,0,0-.47Zm18.93.59a1.64,1.64,0,0,0-1.52-1.13,1.69,1.69,0,0,0-1.67,1.78,1.73,1.73,0,0,0,1.76,1.77A1.78,1.78,0,0,0,40,12.58l-.61-.41a1,1,0,0,1-.87.49.89.89,0,0,1-.86-.54l2.37-1Zm-2.42.59a1,1,0,0,1,.93-1,.7.7,0,0,1,.66.38Zm-1.93,1.73h.78V8h-.78Zm-1.28-3h0a1.21,1.21,0,0,0-.93-.4,1.78,1.78,0,0,0,0,3.55,1.21,1.21,0,0,0,.93-.4h0v.25a.92.92,0,0,1-1,1,1,1,0,0,1-.9-.63l-.68.28A1.71,1.71,0,0,0,33.36,15a1.63,1.63,0,0,0,1.69-1.85V9.92h-.74Zm-.9,2.45a1.08,1.08,0,0,1,0-2.15,1,1,0,0,1,1,1.08A1,1,0,0,1,33.41,12.66ZM43.6,8H41.73v5.23h.78v-2H43.6A1.63,1.63,0,1,0,43.6,8Zm0,2.52H42.51V8.76h1.11a.9.9,0,1,1,0,1.79Zm4.82-.75a1.47,1.47,0,0,0-1.39.8l.69.29a.84.84,0,0,1,1.53.29v.05a1.72,1.72,0,0,0-.81-.2c-.74,0-1.5.41-1.5,1.17a1.2,1.2,0,0,0,1.29,1.15,1.09,1.09,0,0,0,1-.51h0v.41H50v-2A1.44,1.44,0,0,0,48.44,9.8Zm-.09,2.86c-.26,0-.61-.13-.61-.44s.44-.56.82-.56a1.37,1.37,0,0,1,.71.17A.94.94,0,0,1,48.35,12.66Zm4.42-2.75-.89,2.27h0l-.93-2.27h-.84l1.39,3.17-.79,1.76h.81l2.15-4.93Zm-7,3.35h.78V8h-.78Z"/><path class="cls-4" d="M5.42,3.87a.85.85,0,0,0-.2.59V13.7a.81.81,0,0,0,.2.58l0,0,5.18-5.17V9L5.45,3.84Z"/><path class="cls-5" d="M12.35,10.86,10.63,9.14V9l1.72-1.73,0,0,2,1.16c.58.34.58.88,0,1.21l-2,1.16Z"/><path class="cls-6" d="M12.39,10.84,10.63,9.08l-5.21,5.2a.68.68,0,0,0,.87,0l6.1-3.47"/><path class="cls-7" d="M12.39,7.31,6.29,3.84a.68.68,0,0,0-.87,0l5.21,5.21Z"/><path class="cls-8" d="M12.35,10.8,6.29,14.25a.7.7,0,0,1-.84,0h0l0,0h0l0,0h0a.7.7,0,0,0,.84,0l6.1-3.47Z"/><path class="cls-9" d="M5.42,14.22a.81.81,0,0,1-.2-.58v.06a.81.81,0,0,0,.2.58l0,0Z"/><path class="cls-9" d="M14.44,9.62,12.35,10.8l0,0,2-1.16a.73.73,0,0,0,.43-.6h0A.78.78,0,0,1,14.44,9.62Z"/><path class="cls-10" d="M6.29,3.9l8.15,4.63a.77.77,0,0,1,.43.55h0a.74.74,0,0,0-.43-.61L6.29,3.84c-.59-.33-1.07,0-1.07.62v.06C5.22,3.85,5.7,3.57,6.29,3.9Z"/></g></svg>