<svg id="Layer_1" data-name="Layer 1" xmlns="http://www.w3.org/2000/svg" xmlns:xlink="http://www.w3.org/1999/xlink" viewBox="0 0 1280 625"><defs><style>.cls-1{fill:url(#linear-gradient);}.cls-2{fill:url(#linear-gradient-2);}.cls-3{fill:url(#linear-gradient-3);}</style><linearGradient id="linear-gradient" x1="630.72" y1="697.57" x2="618.22" y2="540.05" gradientTransform="translate(1495.25 759.39) rotate(180)" gradientUnits="userSpaceOnUse"><stop offset="0" stop-color="#e89e38"/><stop offset="1" stop-color="#ffcb5a"/></linearGradient><linearGradient id="linear-gradient-2" x1="178.01" y1="749.38" x2="60.94" y2="534.11" gradientTransform="translate(984 711.65) rotate(180)" gradientUnits="userSpaceOnUse"><stop offset="0" stop-color="#ffbd49"/><stop offset="1" stop-color="#ffcb5a"/></linearGradient><linearGradient id="linear-gradient-3" x1="178.01" y1="447.6" x2="60.94" y2="232.33" gradientTransform="matrix(-1, 0, 0, 1, 984, 217.12)" xlink:href="#linear-gradient-2"/></defs><title>banner</title><path class="cls-1" d="M669.5,69.58c156.45-58.28,277.83-27.54,392,84.74C1127.23,219,1206.7,238.66,1280,210.48V1H442.19V36.13C506.85,83.76,565.09,108.46,669.5,69.58Z"/><path class="cls-2" d="M524.69,109.27c78.76,68.14,158.62,83.08,246,16.82C875.63,46.52,964.39,8.46,1093.06,56.4c85.87,32,133.76,11.66,186.94-27.51V0H373C408.56,10.13,440.66,36.57,524.69,109.27Z"/><path class="cls-3" d="M524.69,517.73c78.76-68.14,158.62-83.08,246-16.82,104.93,79.57,193.7,117.63,322.37,69.69,85.87-32,133.76-11.66,186.94,27.51V627H373C408.56,616.87,440.66,590.43,524.69,517.73Z"/></svg>