<?xml version="1.0" encoding="utf-8"?>
<!-- Generator: Adobe Illustrator 21.0.0, SVG Export Plug-In . SVG Version: 6.00 Build 0)  -->
<svg version="1.1" xmlns="http://www.w3.org/2000/svg" xmlns:xlink="http://www.w3.org/1999/xlink" x="0px" y="0px"
	 viewBox="0 0 1350 900" style="enable-background:new 0 0 1350 900;" xml:space="preserve">
<style type="text/css">
	.st0{fill:#FFF7EE;}
	.st1{opacity:0.2;}
	.st2{fill:#D7EAF0;}
	.st3{fill:#7FA9B5;}
	.st4{fill:#B8D9DE;}
	.st5{fill:#66929B;}
	.st6{fill:#52738A;}
	.st7{fill:#96BDBD;}
	.st8{fill:#B5CFE8;}
	.st9{opacity:0.7;fill:#B5CFE8;enable-background:new    ;}
	.st10{fill:#B8C7D6;}
	.st11{opacity:0.6;fill:#7FA9B5;enable-background:new    ;}
	.st12{fill:#B2B2B2;}
	.st13{fill:#604F4C;}
	.st14{fill:#261C1B;}
	.st15{fill:#DFF0FC;}
	.st16{fill:#E07826;}
	.st17{fill:#FA9008;}
	.st18{opacity:0.5;fill:#E6E6E6;enable-background:new    ;}
	.st19{fill:#B04012;}
	.st20{fill:#874012;}
	.st21{opacity:0.5;}
	.st22{fill:#FAA617;}
	.st23{fill:#99E2E9;}
	.st24{opacity:0.57;fill:#FA9008;enable-background:new    ;}
	.st25{fill:#FFFFFF;}
	.st26{fill:#A82B12;}
	.st27{opacity:0.4;fill:#A82B12;enable-background:new    ;}
	.st28{fill:#CAF1FE;}
	.st29{opacity:0.5;fill:#99E2E9;enable-background:new    ;}
	.st30{opacity:0.3;fill:#B2B2B2;enable-background:new    ;}
	.st31{fill:#FFD4A8;}
	.st32{fill:#DFA274;}
	.st33{fill:#C49770;}
	.st34{fill:#FFE0BD;}
	.st35{fill:#EDC496;}
	.st36{fill:#D59758;}
	.st37{fill:#EBD6C9;}
	.st38{fill:#EC9821;}
	.st39{opacity:0.3;fill:#EC9821;enable-background:new    ;}
	.st40{opacity:0.91;fill:#FA9008;enable-background:new    ;}
	.st41{fill:url(#SVGID_1_);}
	.st42{opacity:0.4;fill:#EC9821;enable-background:new    ;}
	.st43{fill:url(#SVGID_2_);}
	.st44{opacity:0.6;}
	.st45{fill:url(#SVGID_3_);}
	.st46{fill:url(#SVGID_4_);}
	.st47{fill:#F65662;}
	.st48{fill:url(#SVGID_5_);}
	.st49{fill:url(#SVGID_6_);}
</style>
<g id="Layer_2">
	<rect x="-6.9" y="-3.9" class="st0" width="1360.4" height="907.5"/>
</g>
<g id="Layer_1">
	<title>banner2</title>
	<g>
		<g id="Layer_1_1_">
			<g class="st1">
				<polygon class="st2" points="924.4,229.9 922.6,229.9 922.6,211.1 923.6,209 924.4,211.1 				"/>
				<polygon class="st3" points="924.4,229.9 923.9,229.9 923.9,211.1 923.6,209 924.4,211.1 				"/>
				<rect x="901" y="236.9" class="st2" width="78.8" height="225.9"/>
				<rect x="958.9" y="242.3" class="st3" width="20.9" height="220.6"/>
				<rect x="935.9" y="219.1" class="st2" width="35.1" height="17.8"/>
				<rect x="961.1" y="219.1" class="st3" width="9.9" height="17.8"/>
				<rect x="941.6" y="229" class="st3" width="14" height="7.9"/>
				<rect x="941.6" y="229" class="st4" width="1.5" height="7.9"/>
				<rect x="914.2" y="229.2" class="st2" width="25" height="7.7"/>
				<rect x="933.4" y="229.2" class="st4" width="5.8" height="7.7"/>
				<rect x="931" y="443.8" class="st5" width="6.1" height="19.1"/>
				<rect x="922.4" y="443.8" class="st5" width="6.1" height="19.1"/>
				<rect x="950.4" y="394.2" class="st5" width="3.7" height="5.1"/>
				<rect x="950.4" y="386.5" class="st5" width="3.7" height="5.1"/>
				<rect x="950.4" y="378.9" class="st5" width="3.7" height="5.1"/>
				<rect x="950.4" y="417.2" class="st5" width="3.7" height="5.1"/>
				<rect x="950.4" y="409.5" class="st5" width="3.7" height="5.1"/>
				<rect x="950.4" y="401.9" class="st5" width="3.7" height="5.1"/>
				<rect x="950.4" y="332.9" class="st5" width="3.7" height="5.1"/>
				<rect x="950.4" y="340.6" class="st5" width="3.7" height="5.1"/>
				<rect x="950.4" y="424.8" class="st5" width="3.7" height="5.1"/>
				<rect x="950.4" y="371.2" class="st5" width="3.7" height="5.1"/>
				<rect x="950.4" y="325.3" class="st5" width="3.7" height="5.1"/>
				<rect x="950.4" y="363.6" class="st5" width="3.7" height="5.1"/>
				<rect x="950.4" y="355.9" class="st5" width="3.7" height="5.1"/>
				<rect x="950.4" y="348.3" class="st5" width="3.7" height="5.1"/>
				<rect x="920.6" y="401.9" class="st5" width="3.7" height="5.1"/>
				<rect x="920.6" y="378.9" class="st5" width="3.7" height="5.1"/>
				<rect x="920.6" y="394.2" class="st5" width="3.7" height="5.1"/>
				<rect x="920.6" y="386.5" class="st5" width="3.7" height="5.1"/>
				<rect x="920.6" y="363.6" class="st5" width="3.7" height="5.1"/>
				<rect x="920.6" y="371.2" class="st5" width="3.7" height="5.1"/>
				<rect x="920.6" y="424.8" class="st5" width="3.7" height="5.1"/>
				<rect x="920.6" y="409.5" class="st5" width="3.7" height="5.1"/>
				<rect x="935.5" y="424.8" class="st5" width="3.7" height="5.1"/>
				<rect x="950.4" y="317.6" class="st5" width="3.7" height="5.1"/>
				<rect x="920.6" y="417.2" class="st5" width="3.7" height="5.1"/>
				<rect x="942.9" y="424.8" class="st5" width="3.7" height="5.1"/>
				<rect x="928" y="294.7" class="st5" width="3.7" height="5.1"/>
				<rect x="913.1" y="271.7" class="st5" width="3.7" height="5.1"/>
				<rect x="935.5" y="264" class="st5" width="3.7" height="5.1"/>
				<rect x="928" y="279.3" class="st5" width="3.7" height="5.1"/>
				<rect x="928" y="264" class="st5" width="3.7" height="5.1"/>
				<rect x="913.1" y="264" class="st5" width="3.7" height="5.1"/>
				<rect x="950.4" y="310" class="st5" width="3.7" height="5.1"/>
				<rect x="920.6" y="264" class="st5" width="3.7" height="5.1"/>
				<rect x="920.6" y="279.3" class="st5" width="3.7" height="5.1"/>
				<rect x="913.1" y="317.6" class="st5" width="3.7" height="5.1"/>
				<rect x="920.6" y="355.9" class="st5" width="3.7" height="5.1"/>
				<rect x="913.1" y="325.3" class="st5" width="3.7" height="5.1"/>
				<rect x="920.6" y="310" class="st5" width="3.7" height="5.1"/>
				<rect x="928" y="302.3" class="st5" width="3.7" height="5.1"/>
				<rect x="928" y="310" class="st5" width="3.7" height="5.1"/>
				<rect x="928" y="287" class="st5" width="3.7" height="5.1"/>
				<rect x="935.5" y="287" class="st5" width="3.7" height="5.1"/>
				<rect x="935.5" y="271.7" class="st5" width="3.7" height="5.1"/>
				<rect x="920.6" y="271.7" class="st5" width="3.7" height="5.1"/>
				<rect x="928" y="271.7" class="st5" width="3.7" height="5.1"/>
				<rect x="935.5" y="302.3" class="st5" width="3.7" height="5.1"/>
				<rect x="942.9" y="264" class="st5" width="3.7" height="5.1"/>
				<rect x="935.5" y="294.7" class="st5" width="3.7" height="5.1"/>
				<rect x="950.4" y="271.7" class="st5" width="3.7" height="5.1"/>
				<rect x="950.4" y="264" class="st5" width="3.7" height="5.1"/>
				<rect x="942.9" y="271.7" class="st5" width="3.7" height="5.1"/>
				<rect x="935.5" y="279.3" class="st5" width="3.7" height="5.1"/>
				<rect x="935.5" y="325.3" class="st5" width="3.7" height="5.1"/>
				<rect x="935.5" y="348.3" class="st5" width="3.7" height="5.1"/>
				<rect x="935.5" y="340.6" class="st5" width="3.7" height="5.1"/>
				<rect x="935.5" y="355.9" class="st5" width="3.7" height="5.1"/>
				<rect x="935.5" y="332.9" class="st5" width="3.7" height="5.1"/>
				<rect x="935.5" y="363.6" class="st5" width="3.7" height="5.1"/>
				<rect x="935.5" y="378.9" class="st5" width="3.7" height="5.1"/>
				<rect x="935.5" y="371.2" class="st5" width="3.7" height="5.1"/>
				<rect x="928" y="332.9" class="st5" width="3.7" height="5.1"/>
				<rect x="928" y="348.3" class="st5" width="3.7" height="5.1"/>
				<rect x="928" y="340.6" class="st5" width="3.7" height="5.1"/>
				<rect x="928" y="355.9" class="st5" width="3.7" height="5.1"/>
				<rect x="935.5" y="386.5" class="st5" width="3.7" height="5.1"/>
				<rect x="928" y="325.3" class="st5" width="3.7" height="5.1"/>
				<rect x="913.1" y="332.9" class="st5" width="3.7" height="5.1"/>
				<rect x="935.5" y="394.2" class="st5" width="3.7" height="5.1"/>
				<rect x="913.1" y="310" class="st5" width="3.7" height="5.1"/>
				<rect x="928" y="363.6" class="st5" width="3.7" height="5.1"/>
				<rect x="928" y="424.8" class="st5" width="3.7" height="5.1"/>
				<rect x="935.5" y="401.9" class="st5" width="3.7" height="5.1"/>
				<rect x="935.5" y="409.5" class="st5" width="3.7" height="5.1"/>
				<rect x="942.9" y="310" class="st5" width="3.7" height="5.1"/>
				<rect x="928" y="417.2" class="st5" width="3.7" height="5.1"/>
				<rect x="920.6" y="340.6" class="st5" width="3.7" height="5.1"/>
				<rect x="942.9" y="363.6" class="st5" width="3.7" height="5.1"/>
				<rect x="942.9" y="325.3" class="st5" width="3.7" height="5.1"/>
				<rect x="942.9" y="317.6" class="st5" width="3.7" height="5.1"/>
				<rect x="942.9" y="355.9" class="st5" width="3.7" height="5.1"/>
				<rect x="935.5" y="310" class="st5" width="3.7" height="5.1"/>
				<rect x="942.9" y="348.3" class="st5" width="3.7" height="5.1"/>
				<rect x="942.9" y="340.6" class="st5" width="3.7" height="5.1"/>
				<rect x="935.5" y="317.6" class="st5" width="3.7" height="5.1"/>
				<rect x="920.6" y="332.9" class="st5" width="3.7" height="5.1"/>
				<rect x="920.6" y="348.3" class="st5" width="3.7" height="5.1"/>
				<rect x="920.6" y="325.3" class="st5" width="3.7" height="5.1"/>
				<rect x="928" y="317.6" class="st5" width="3.7" height="5.1"/>
				<rect x="920.6" y="317.6" class="st5" width="3.7" height="5.1"/>
				<rect x="942.9" y="371.2" class="st5" width="3.7" height="5.1"/>
				<rect x="928" y="394.2" class="st5" width="3.7" height="5.1"/>
				<rect x="935.5" y="417.2" class="st5" width="3.7" height="5.1"/>
				<rect x="928" y="409.5" class="st5" width="3.7" height="5.1"/>
				<rect x="928" y="401.9" class="st5" width="3.7" height="5.1"/>
				<rect x="928" y="378.9" class="st5" width="3.7" height="5.1"/>
				<rect x="928" y="386.5" class="st5" width="3.7" height="5.1"/>
				<rect x="928" y="371.2" class="st5" width="3.7" height="5.1"/>
				<rect x="942.9" y="417.2" class="st5" width="3.7" height="5.1"/>
				<rect x="942.9" y="386.5" class="st5" width="3.7" height="5.1"/>
				<rect x="942.9" y="378.9" class="st5" width="3.7" height="5.1"/>
				<rect x="942.9" y="394.2" class="st5" width="3.7" height="5.1"/>
				<rect x="942.9" y="401.9" class="st5" width="3.7" height="5.1"/>
				<rect x="942.9" y="409.5" class="st5" width="3.7" height="5.1"/>
				<rect x="942.9" y="332.9" class="st5" width="3.7" height="5.1"/>
				<rect x="942.9" y="440.1" class="st5" width="3.7" height="5.1"/>
				<rect x="950.4" y="440.1" class="st5" width="3.7" height="5.1"/>
				<rect x="913.1" y="440.1" class="st5" width="3.7" height="5.1"/>
				<rect x="905.7" y="371.2" class="st5" width="3.7" height="5.1"/>
				<rect x="905.7" y="378.9" class="st5" width="3.7" height="5.1"/>
				<rect x="905.7" y="363.6" class="st5" width="3.7" height="5.1"/>
				<rect x="905.7" y="355.9" class="st5" width="3.7" height="5.1"/>
				<rect x="905.7" y="348.3" class="st5" width="3.7" height="5.1"/>
				<rect x="905.7" y="386.5" class="st5" width="3.7" height="5.1"/>
				<rect x="905.7" y="417.2" class="st5" width="3.7" height="5.1"/>
				<rect x="905.7" y="424.8" class="st5" width="3.7" height="5.1"/>
				<rect x="905.7" y="394.2" class="st5" width="3.7" height="5.1"/>
				<rect x="905.7" y="432.5" class="st5" width="3.7" height="5.1"/>
				<rect x="905.7" y="440.1" class="st5" width="3.7" height="5.1"/>
				<rect x="905.7" y="409.5" class="st5" width="3.7" height="5.1"/>
				<rect x="905.7" y="401.9" class="st5" width="3.7" height="5.1"/>
				<rect x="913.1" y="447.8" class="st5" width="3.7" height="5.2"/>
				<rect x="920.6" y="248.7" class="st5" width="3.7" height="5.1"/>
				<rect x="913.1" y="248.7" class="st5" width="3.7" height="5.1"/>
				<rect x="928" y="248.7" class="st5" width="3.7" height="5.1"/>
				<rect x="905.7" y="248.7" class="st5" width="3.7" height="5.1"/>
				<rect x="950.4" y="248.7" class="st5" width="3.7" height="5.1"/>
				<rect x="935.5" y="248.7" class="st5" width="3.7" height="5.1"/>
				<rect x="942.9" y="248.7" class="st5" width="3.7" height="5.1"/>
				<rect x="950.4" y="447.8" class="st5" width="3.7" height="5.2"/>
				<rect x="942.9" y="447.8" class="st5" width="3.7" height="5.2"/>
				<rect x="905.7" y="447.8" class="st5" width="3.7" height="5.2"/>
				<rect x="905.7" y="340.6" class="st5" width="3.7" height="5.1"/>
				<rect x="913.1" y="401.9" class="st5" width="3.7" height="5.1"/>
				<rect x="950.4" y="432.5" class="st5" width="3.7" height="5.1"/>
				<rect x="913.1" y="355.9" class="st5" width="3.7" height="5.1"/>
				<rect x="913.1" y="371.2" class="st5" width="3.7" height="5.1"/>
				<rect x="913.1" y="378.9" class="st5" width="3.7" height="5.1"/>
				<rect x="913.1" y="363.6" class="st5" width="3.7" height="5.1"/>
				<rect x="942.9" y="432.5" class="st5" width="3.7" height="5.1"/>
				<rect x="905.7" y="332.9" class="st5" width="3.7" height="5.1"/>
				<rect x="913.1" y="348.3" class="st5" width="3.7" height="5.1"/>
				<rect x="913.1" y="424.8" class="st5" width="3.7" height="5.1"/>
				<rect x="913.1" y="394.2" class="st5" width="3.7" height="5.1"/>
				<rect x="913.1" y="417.2" class="st5" width="3.7" height="5.1"/>
				<rect x="913.1" y="432.5" class="st5" width="3.7" height="5.1"/>
				<rect x="913.1" y="409.5" class="st5" width="3.7" height="5.1"/>
				<rect x="913.1" y="340.6" class="st5" width="3.7" height="5.1"/>
				<rect x="913.1" y="386.5" class="st5" width="3.7" height="5.1"/>
				<rect x="905.7" y="264" class="st5" width="3.7" height="5.1"/>
				<rect x="920.6" y="287" class="st5" width="3.7" height="5.1"/>
				<rect x="942.9" y="279.3" class="st5" width="3.7" height="5.1"/>
				<rect x="950.4" y="279.3" class="st5" width="3.7" height="5.1"/>
				<rect x="913.1" y="279.3" class="st5" width="3.7" height="5.1"/>
				<rect x="905.7" y="279.3" class="st5" width="3.7" height="5.1"/>
				<rect x="942.9" y="287" class="st5" width="3.7" height="5.1"/>
				<rect x="950.4" y="287" class="st5" width="3.7" height="5.1"/>
				<rect x="913.1" y="287" class="st5" width="3.7" height="5.1"/>
				<rect x="905.7" y="287" class="st5" width="3.7" height="5.1"/>
				<rect x="942.9" y="294.7" class="st5" width="3.7" height="5.1"/>
				<rect x="950.4" y="294.7" class="st5" width="3.7" height="5.1"/>
				<rect x="913.1" y="294.7" class="st5" width="3.7" height="5.1"/>
				<rect x="905.7" y="294.7" class="st5" width="3.7" height="5.1"/>
				<rect x="942.9" y="302.3" class="st5" width="3.7" height="5.1"/>
				<rect x="950.4" y="302.3" class="st5" width="3.7" height="5.1"/>
				<rect x="913.1" y="302.3" class="st5" width="3.7" height="5.1"/>
				<rect x="905.7" y="302.3" class="st5" width="3.7" height="5.1"/>
				<rect x="905.7" y="271.7" class="st5" width="3.7" height="5.1"/>
				<rect x="905.7" y="256.4" class="st5" width="3.7" height="5.1"/>
				<rect x="913.1" y="256.4" class="st5" width="3.7" height="5.1"/>
				<rect x="905.7" y="325.3" class="st5" width="3.7" height="5.1"/>
				<rect x="905.7" y="310" class="st5" width="3.7" height="5.1"/>
				<rect x="920.6" y="294.7" class="st5" width="3.7" height="5.1"/>
				<rect x="920.6" y="256.4" class="st5" width="3.7" height="5.1"/>
				<rect x="905.7" y="317.6" class="st5" width="3.7" height="5.1"/>
				<rect x="920.6" y="302.3" class="st5" width="3.7" height="5.1"/>
				<rect x="935.5" y="256.4" class="st5" width="3.7" height="5.1"/>
				<rect x="950.4" y="256.4" class="st5" width="3.7" height="5.1"/>
				<rect x="942.9" y="256.4" class="st5" width="3.7" height="5.1"/>
				<rect x="928" y="256.4" class="st5" width="3.7" height="5.1"/>
				<rect x="971.6" y="248.8" class="st6" width="4" height="5.1"/>
				<rect x="971.6" y="417.2" class="st6" width="4" height="5.1"/>
				<rect x="971.6" y="440.1" class="st6" width="4" height="5.1"/>
				<rect x="971.6" y="424.8" class="st6" width="4" height="5.1"/>
				<rect x="971.6" y="432.5" class="st6" width="4" height="5.1"/>
				<rect x="964.3" y="440.1" class="st6" width="4" height="5.1"/>
				<rect x="971.6" y="378.9" class="st6" width="4" height="5.1"/>
				<rect x="971.6" y="363.6" class="st6" width="4" height="5.1"/>
				<rect x="971.6" y="386.5" class="st6" width="4" height="5.1"/>
				<rect x="971.6" y="371.2" class="st6" width="4" height="5.1"/>
				<rect x="971.6" y="394.2" class="st6" width="4" height="5.1"/>
				<rect x="971.6" y="401.9" class="st6" width="4" height="5.1"/>
				<rect x="971.6" y="409.5" class="st6" width="4" height="5.1"/>
				<rect x="964.3" y="248.8" class="st6" width="4" height="5.1"/>
				<rect x="964.3" y="447.8" class="st6" width="4" height="15.1"/>
				<rect x="971.6" y="447.8" class="st6" width="4" height="15.1"/>
				<rect x="971.6" y="317.6" class="st6" width="4" height="5.1"/>
				<rect x="971.6" y="325.3" class="st6" width="4" height="5.1"/>
				<rect x="971.6" y="332.9" class="st6" width="4" height="5.1"/>
				<rect x="971.6" y="355.9" class="st6" width="4" height="5.1"/>
				<rect x="971.6" y="310" class="st6" width="4" height="5.1"/>
				<rect x="971.6" y="348.3" class="st6" width="4" height="5.1"/>
				<rect x="971.6" y="340.6" class="st6" width="4" height="5.1"/>
				<rect x="971.6" y="256.4" class="st6" width="4" height="5.1"/>
				<rect x="971.6" y="271.7" class="st6" width="4" height="5.1"/>
				<rect x="971.6" y="264" class="st6" width="4" height="5.1"/>
				<rect x="971.6" y="279.3" class="st6" width="4" height="5.1"/>
				<rect x="971.6" y="294.7" class="st6" width="4" height="5.1"/>
				<rect x="971.6" y="302.3" class="st6" width="4" height="5.1"/>
				<rect x="971.6" y="287" class="st6" width="4" height="5.1"/>
				<rect x="964.3" y="386.5" class="st6" width="4" height="5.1"/>
				<rect x="964.3" y="409.5" class="st6" width="4" height="5.1"/>
				<rect x="964.3" y="394.2" class="st6" width="4" height="5.1"/>
				<rect x="964.3" y="401.9" class="st6" width="4" height="5.1"/>
				<rect x="964.3" y="417.2" class="st6" width="4" height="5.1"/>
				<rect x="964.3" y="432.5" class="st6" width="4" height="5.1"/>
				<rect x="964.3" y="424.8" class="st6" width="4" height="5.1"/>
				<rect x="964.3" y="348.3" class="st6" width="4" height="5.1"/>
				<rect x="964.3" y="340.6" class="st6" width="4" height="5.1"/>
				<rect x="964.3" y="355.9" class="st6" width="4" height="5.1"/>
				<rect x="964.3" y="363.6" class="st6" width="4" height="5.1"/>
				<rect x="964.3" y="378.9" class="st6" width="4" height="5.1"/>
				<rect x="964.3" y="371.2" class="st6" width="4" height="5.1"/>
				<rect x="964.3" y="332.9" class="st6" width="4" height="5.1"/>
				<rect x="964.3" y="325.3" class="st6" width="4" height="5.1"/>
				<rect x="964.3" y="302.3" class="st6" width="4" height="5.1"/>
				<rect x="964.3" y="279.3" class="st6" width="4" height="5.1"/>
				<rect x="964.3" y="287" class="st6" width="4" height="5.1"/>
				<rect x="964.3" y="294.7" class="st6" width="4" height="5.1"/>
				<rect x="964.3" y="310" class="st6" width="4" height="5.1"/>
				<rect x="964.3" y="317.6" class="st6" width="4" height="5.1"/>
				<rect x="964.3" y="264" class="st6" width="4" height="5.1"/>
				<rect x="964.3" y="256.4" class="st6" width="4" height="5.1"/>
				<rect x="964.3" y="271.7" class="st6" width="4" height="5.1"/>
				<rect x="1096.7" y="189.6" class="st2" width="45" height="10.9"/>
				<rect x="1111.3" y="189.6" class="st3" width="30.5" height="10.9"/>
				<rect x="1101.9" y="194.1" class="st3" width="2.8" height="6"/>
				<rect x="1101.9" y="194.1" class="st4" width="0.7" height="6"/>
				<rect x="1090.2" y="199.6" class="st2" width="57.9" height="14.7"/>
				<rect x="1107.9" y="199.6" class="st3" width="40.3" height="14.7"/>
				<rect x="1096.6" y="207.4" class="st3" width="3.2" height="6.8"/>
				<rect x="1096.6" y="207.4" class="st4" width="0.8" height="6.8"/>
				<rect x="1083.6" y="213.4" class="st2" width="73.1" height="249.4"/>
				<rect x="1104.6" y="213.4" class="st3" width="52" height="249.4"/>
				<rect x="1107.4" y="219.4" class="st6" width="46.7" height="4.6"/>
				<rect x="1085.3" y="219.4" class="st5" width="17.3" height="4.6"/>
				<rect x="1107.4" y="229.1" class="st6" width="46.7" height="4.6"/>
				<rect x="1085.3" y="229.1" class="st5" width="17.3" height="4.6"/>
				<rect x="1107.4" y="238.8" class="st6" width="46.7" height="4.6"/>
				<rect x="1085.3" y="238.8" class="st5" width="17.3" height="4.6"/>
				<rect x="1107.4" y="248.4" class="st6" width="46.7" height="4.6"/>
				<rect x="1085.3" y="248.4" class="st5" width="17.3" height="4.6"/>
				<rect x="1107.4" y="258.1" class="st6" width="46.7" height="4.6"/>
				<rect x="1085.3" y="258.1" class="st5" width="17.3" height="4.6"/>
				<rect x="1107.4" y="267.8" class="st6" width="46.7" height="4.6"/>
				<rect x="1085.3" y="267.8" class="st5" width="17.3" height="4.6"/>
				<rect x="1107.4" y="277.5" class="st6" width="46.7" height="4.6"/>
				<rect x="1085.3" y="277.5" class="st5" width="17.3" height="4.6"/>
				<rect x="1107.4" y="287.1" class="st6" width="46.7" height="4.6"/>
				<rect x="1085.3" y="287.1" class="st5" width="17.3" height="4.6"/>
				<rect x="1107.4" y="296.8" class="st6" width="46.7" height="4.6"/>
				<rect x="1085.3" y="296.8" class="st5" width="17.3" height="4.6"/>
				<rect x="1107.4" y="306.5" class="st6" width="46.7" height="4.6"/>
				<rect x="1085.3" y="306.5" class="st5" width="17.3" height="4.6"/>
				<rect x="1107.4" y="316.2" class="st6" width="46.7" height="4.6"/>
				<rect x="1085.3" y="316.2" class="st5" width="17.3" height="4.6"/>
				<rect x="1107.4" y="325.9" class="st6" width="46.7" height="4.6"/>
				<rect x="1085.3" y="325.9" class="st5" width="17.3" height="4.6"/>
				<rect x="1107.4" y="335.5" class="st6" width="46.7" height="4.6"/>
				<rect x="1085.3" y="335.5" class="st5" width="17.3" height="4.6"/>
				<rect x="1107.4" y="345.2" class="st6" width="46.7" height="4.6"/>
				<rect x="1085.3" y="345.2" class="st5" width="17.3" height="4.6"/>
				<rect x="1107.4" y="354.9" class="st6" width="46.7" height="4.6"/>
				<rect x="1085.3" y="354.9" class="st5" width="17.3" height="4.6"/>
				<rect x="1107.4" y="364.6" class="st6" width="46.7" height="4.6"/>
				<rect x="1085.3" y="364.6" class="st5" width="17.3" height="4.6"/>
				<rect x="1107.4" y="374.2" class="st6" width="46.7" height="4.6"/>
				<rect x="1085.3" y="374.2" class="st5" width="17.3" height="4.6"/>
				<rect x="1107.4" y="383.9" class="st6" width="46.7" height="4.6"/>
				<rect x="1085.3" y="383.9" class="st5" width="17.3" height="4.6"/>
				<rect x="1107.4" y="393.6" class="st6" width="46.7" height="4.6"/>
				<rect x="1085.3" y="393.6" class="st5" width="17.3" height="4.6"/>
				<rect x="1107.4" y="403.3" class="st6" width="46.7" height="4.6"/>
				<rect x="1085.3" y="403.3" class="st5" width="17.3" height="4.6"/>
				<rect x="1107.4" y="412.9" class="st6" width="46.7" height="4.6"/>
				<rect x="1085.3" y="412.9" class="st5" width="17.3" height="4.6"/>
				<rect x="1107.4" y="422.6" class="st6" width="46.7" height="4.6"/>
				<rect x="1085.3" y="422.6" class="st5" width="17.3" height="4.6"/>
				<rect x="1107.4" y="432.1" class="st6" width="46.7" height="4.6"/>
				<rect x="1085.3" y="432.1" class="st5" width="17.3" height="4.6"/>
				<rect x="1123.4" y="444.6" class="st6" width="5.9" height="18.3"/>
				<rect x="1131.2" y="444.6" class="st6" width="5.9" height="18.3"/>
				<rect x="1121.8" y="442.6" class="st7" width="17" height="4.7"/>
				<rect x="1007.2" y="243.6" class="st8" width="45" height="9.8"/>
				<rect x="1043.4" y="243.6" class="st3" width="8.8" height="9.8"/>
				<rect x="1004.6" y="239.4" class="st2" width="50.1" height="6.7"/>
				<rect x="996.6" y="256.4" class="st8" width="66.2" height="9.8"/>
				<rect x="1049.8" y="256.4" class="st3" width="12.9" height="9.8"/>
				<rect x="992.8" y="250.3" class="st2" width="73.7" height="8.5"/>
				<rect x="987.1" y="269.5" class="st2" width="85.1" height="143.2"/>
				<rect x="1055.6" y="269.5" class="st3" width="16.6" height="143.2"/>
				<rect x="972.6" y="414.3" class="st2" width="114.1" height="48.5"/>
				<rect x="972.6" y="400.5" class="st8" width="114.1" height="19.2"/>
				<rect x="979.7" y="400.7" class="st6" width="9.2" height="62.2"/>
				<rect x="996.3" y="400.7" class="st6" width="9.2" height="62.2"/>
				<rect x="1012.9" y="400.7" class="st6" width="9.2" height="62.2"/>
				<rect x="1029.6" y="400.7" class="st6" width="9.2" height="62.2"/>
				<rect x="1046.2" y="400.7" class="st6" width="9.2" height="62.2"/>
				<rect x="1064.4" y="398.7" class="st3" width="22.3" height="64"/>
				<rect x="1071.3" y="400.7" class="st6" width="9.2" height="62.2"/>
				<rect x="972.6" y="400.5" class="st9" width="114.1" height="11.2"/>
				<rect x="969.6" y="398.7" class="st2" width="120.2" height="8.5"/>
				<rect x="991" y="275.2" class="st8" width="6.2" height="15.3"/>
				<rect x="1001.7" y="275.2" class="st8" width="6.2" height="15.3"/>
				<rect x="1012.3" y="275.2" class="st8" width="6.2" height="15.3"/>
				<rect x="1022.9" y="275.2" class="st8" width="6.2" height="15.3"/>
				<rect x="1033.6" y="275.2" class="st8" width="6.2" height="15.3"/>
				<rect x="1044.2" y="275.2" class="st8" width="6.2" height="15.3"/>
				<rect x="1061.1" y="275.2" class="st6" width="6.2" height="15.3"/>
				<rect x="991" y="295.4" class="st8" width="6.2" height="15.3"/>
				<rect x="1001.7" y="295.4" class="st8" width="6.2" height="15.3"/>
				<rect x="1012.3" y="295.4" class="st8" width="6.2" height="15.3"/>
				<rect x="1022.9" y="295.4" class="st8" width="6.2" height="15.3"/>
				<rect x="1033.6" y="295.4" class="st8" width="6.2" height="15.3"/>
				<rect x="1044.2" y="295.4" class="st8" width="6.2" height="15.3"/>
				<rect x="1061.1" y="295.4" class="st6" width="6.2" height="15.3"/>
				<rect x="991" y="315.6" class="st8" width="6.2" height="15.3"/>
				<rect x="1001.7" y="315.6" class="st8" width="6.2" height="15.3"/>
				<rect x="1012.3" y="315.6" class="st8" width="6.2" height="15.3"/>
				<rect x="1022.9" y="315.6" class="st8" width="6.2" height="15.3"/>
				<rect x="1033.6" y="315.6" class="st8" width="6.2" height="15.3"/>
				<rect x="1044.2" y="315.6" class="st8" width="6.2" height="15.3"/>
				<rect x="1061.1" y="315.6" class="st6" width="6.2" height="15.3"/>
				<rect x="991" y="335.9" class="st8" width="6.2" height="15.3"/>
				<rect x="1001.7" y="335.9" class="st8" width="6.2" height="15.3"/>
				<rect x="1012.3" y="335.9" class="st8" width="6.2" height="15.3"/>
				<rect x="1022.9" y="335.9" class="st8" width="6.2" height="15.3"/>
				<rect x="1033.6" y="335.9" class="st8" width="6.2" height="15.3"/>
				<rect x="1044.2" y="335.9" class="st8" width="6.2" height="15.3"/>
				<rect x="1061.1" y="335.9" class="st6" width="6.2" height="15.3"/>
				<rect x="991" y="356.1" class="st8" width="6.2" height="15.3"/>
				<rect x="1001.7" y="356.1" class="st8" width="6.2" height="15.3"/>
				<rect x="1012.3" y="356.1" class="st8" width="6.2" height="15.3"/>
				<rect x="1022.9" y="356.1" class="st8" width="6.2" height="15.3"/>
				<rect x="1033.6" y="356.1" class="st8" width="6.2" height="15.3"/>
				<rect x="1044.2" y="356.1" class="st8" width="6.2" height="15.3"/>
				<rect x="1061.1" y="356.1" class="st6" width="6.2" height="15.3"/>
				<rect x="991" y="376.3" class="st8" width="6.2" height="15.3"/>
				<rect x="1001.7" y="376.3" class="st8" width="6.2" height="15.3"/>
				<rect x="1012.3" y="376.3" class="st8" width="6.2" height="15.3"/>
				<rect x="1022.9" y="376.3" class="st8" width="6.2" height="15.3"/>
				<rect x="1033.6" y="376.3" class="st8" width="6.2" height="15.3"/>
				<rect x="1044.2" y="376.3" class="st8" width="6.2" height="15.3"/>
				<rect x="1061.1" y="376.3" class="st6" width="6.2" height="15.3"/>
				<path class="st9" d="M1012.3,276.7h6.2v-1.5h-6.2V276.7z M1001.6,276.7h6.2v-1.5h-6.2V276.7z M1061.1,275.2v1.5h6.2v-1.5H1061.1
					z M991,276.7h6.2v-1.5H991V276.7z M1022.9,276.7h6.2v-1.5h-6.2V276.7z M1044.2,276.7h6.2v-1.5h-6.2V276.7z M1033.5,276.7h6.2
					v-1.5h-6.2V276.7z"/>
				<path class="st9" d="M1022.9,296.9h6.2v-1.5h-6.2V296.9z M1012.3,296.9h6.2v-1.5h-6.2V296.9z M1001.6,296.9h6.2v-1.5h-6.2V296.9
					z M991,296.9h6.2v-1.5H991L991,296.9z M1061,295.4v1.5h6.2v-1.5H1061z M1033.5,296.9h6.2v-1.5h-6.2V296.9z M1044.2,296.9h6.2
					v-1.5h-6.2V296.9z"/>
				<path class="st9" d="M1001.7,317.2h6.2v-1.5h-6.2V317.2z M1012.3,317.2h6.2v-1.5h-6.2V317.2z M991,317.2h6.2v-1.5H991L991,317.2
					z M1044.2,317.2h6.2v-1.5h-6.2V317.2z M1061.1,315.6v1.5h6.2v-1.5H1061.1z M1022.9,317.2h6.2v-1.5h-6.2L1022.9,317.2z
					 M1033.6,317.2h6.2v-1.5h-6.2V317.2z"/>
				<path class="st9" d="M1001.7,337.4h6.2v-1.5h-6.2V337.4z M1022.9,337.4h6.2v-1.5h-6.2L1022.9,337.4z M991,337.4h6.2v-1.5H991
					L991,337.4z M1012.3,337.4h6.2v-1.5h-6.2V337.4z M1061.1,335.9v1.5h6.2v-1.5H1061.1z M1044.2,337.4h6.2v-1.5h-6.2V337.4z
					 M1033.6,337.4h6.2v-1.5h-6.2V337.4z"/>
				<path class="st9" d="M1001.7,357.6h6.2v-1.5h-6.2V357.6z M1012.3,357.6h6.2v-1.5h-6.2V357.6z M991,357.6h6.2v-1.5H991L991,357.6
					z M1022.9,357.6h6.2v-1.5h-6.2V357.6z M1061.1,356.1v1.5h6.2v-1.5H1061.1z M1033.6,357.6h6.2v-1.5h-6.2V357.6z M1044.2,357.6
					h6.2v-1.5h-6.2V357.6z"/>
				<path class="st9" d="M1012.3,377.9h6.2v-1.5h-6.2V377.9z M1022.9,377.9h6.2v-1.5h-6.2V377.9z M991,377.9h6.2v-1.5H991L991,377.9
					z M1001.7,377.9h6.2v-1.5h-6.2V377.9z M1061.1,376.3v1.5h6.2v-1.5H1061.1z M1044.2,377.9h6.2v-1.5h-6.2V377.9z M1033.6,377.9
					h6.2v-1.5h-6.2V377.9z"/>
				<rect x="987.1" y="269.5" class="st9" width="85.1" height="6.5"/>
				<rect x="982.3" y="263.4" class="st2" width="94.7" height="8.5"/>
				<rect x="822" y="222.1" class="st2" width="1.9" height="38.9"/>
				<rect x="823.3" y="222.1" class="st3" width="0.5" height="38.9"/>
				<rect x="831.3" y="247.2" class="st2" width="39.5" height="13.2"/>
				<rect x="859.6" y="247.2" class="st3" width="11.1" height="13.2"/>
				<rect x="841.8" y="251.6" class="st3" width="5.2" height="8.9"/>
				<rect x="841.8" y="251.6" class="st4" width="1.3" height="8.9"/>
				<rect x="786.5" y="272.1" class="st5" width="107.1" height="10.4"/>
				<rect x="786.5" y="293.4" class="st5" width="107.1" height="10.4"/>
				<rect x="786.5" y="314.6" class="st5" width="107.1" height="10.4"/>
				<rect x="786.5" y="335.9" class="st5" width="107.1" height="10.4"/>
				<rect x="786.5" y="357.1" class="st5" width="107.1" height="10.4"/>
				<rect x="786.5" y="378.4" class="st5" width="107.1" height="10.4"/>
				<rect x="786.5" y="399.7" class="st5" width="107.1" height="10.4"/>
				<rect x="786.5" y="420.9" class="st5" width="107.1" height="10.4"/>
				<rect x="784.3" y="367.5" class="st2" width="111.4" height="10.9"/>
				<rect x="784.3" y="259.8" class="st2" width="111.4" height="12.3"/>
				<rect x="784.3" y="346.3" class="st2" width="111.4" height="10.9"/>
				<rect x="784.3" y="388.8" class="st2" width="111.4" height="10.9"/>
				<rect x="784.3" y="410" class="st2" width="111.4" height="10.9"/>
				<rect x="784.3" y="282.5" class="st2" width="111.4" height="10.9"/>
				<rect x="784.3" y="325" class="st2" width="111.4" height="10.9"/>
				<rect x="784.3" y="431.3" class="st10" width="111.4" height="29"/>
				<rect x="784.3" y="303.7" class="st2" width="111.4" height="10.9"/>
				<rect x="870.8" y="410" class="st3" width="24.9" height="10.9"/>
				<rect x="870.8" y="259.8" class="st3" width="24.9" height="12.3"/>
				<rect x="870.8" y="367.5" class="st3" width="24.9" height="10.9"/>
				<rect x="870.8" y="346.3" class="st3" width="24.9" height="10.9"/>
				<rect x="870.8" y="388.8" class="st3" width="24.9" height="10.9"/>
				<rect x="870.8" y="431.3" class="st11" width="24.9" height="29"/>
				<rect x="870.8" y="282.5" class="st3" width="24.9" height="10.9"/>
				<rect x="870.8" y="303.7" class="st3" width="24.9" height="10.9"/>
				<rect x="870.8" y="325" class="st3" width="24.9" height="10.9"/>
				<rect x="823.6" y="442" class="st6" width="5.9" height="18.3"/>
				<rect x="831.4" y="442" class="st6" width="5.9" height="18.3"/>
				<rect x="821.9" y="440.1" class="st2" width="17" height="4.7"/>
			</g>
			<path class="st12" d="M1171.1,462.2c0,1-4.6,1.8-10.3,1.8H780.2c-5.7,0-10.3-0.8-10.3-1.8s4.6-1.8,10.3-1.8h380.7
				C1166.5,460.5,1171.1,461.3,1171.1,462.2z"/>
			<path class="st13" d="M1015.3,442.8c0,10.4-7.4,18.8-16.6,18.8s-16.6-8.4-16.6-18.8s7.4-18.8,16.6-18.8
				S1015.3,432.4,1015.3,442.8z"/>
			<path class="st14" d="M1007.9,424h-9.2c9.2,0,16.6,8.4,16.6,18.8s-7.4,18.8-16.6,18.8h9.2c9.2,0,16.6-8.4,16.6-18.8
				S1017.1,424,1007.9,424z"/>
			<path class="st14" d="M913.3,450.5h7.1c0,0-2.2-25.1,11.3-25.1h16.7c0,0-7.5-12.7-24.4-5.3S913.3,450.5,913.3,450.5z"/>
			<ellipse class="st13" cx="934.4" cy="442.8" rx="16.6" ry="18.8"/>
			<ellipse class="st15" cx="934.4" cy="442.8" rx="9.2" ry="10.4"/>
			<path class="st14" d="M943.5,424h-9.2c9.2,0,16.6,8.4,16.6,18.8s-7.4,18.8-16.6,18.8h9.2c9.2,0,16.6-8.4,16.6-18.8
				S952.7,424,943.5,424z"/>
			<path class="st16" d="M914.1,450.5c0,0,0-5,0-7.7c0-12.8,9.2-23.2,20.5-23.2s20.5,10.4,20.5,23.2c0,2.7,0,7.7,0,7.7h66.9V367
				h65.5v-11.5c0-6.5-1.9-10.6-9.4-10.6H901.2c-8,0-8,5.7-8,9.9v91c0,3.3,1,4.8,4.2,4.8L914.1,450.5z"/>
			<path class="st17" d="M1017,450.5V344.9H901.2c-8,0-8,5.7-8,9.9v90.9c0,3.3,1,4.8,4.2,4.8H914c0,0,0-5,0-7.7
				c0-12.8,9.2-23.2,20.5-23.2s20.6,10.4,20.6,23.2c0,2.7,0,7.7,0,7.7H1017z"/>
			<path class="st18" d="M893.3,354.8v0.5h194.3c-0.1-6.4-2-10.3-9.4-10.3H901.2C893.3,344.9,893.3,350.6,893.3,354.8z"/>
			<path class="st18" d="M955.1,442.8c0,2.7,0,7.7,0,7.7h66.9v-7.7H955.1z"/>
			<path class="st18" d="M893.3,445.7c0,3.3,1,4.8,4.2,4.8h16.6c0,0,0-5,0-7.7h-20.8V445.7z"/>
			<path class="st19" d="M904.1,438.1c0,0.6-0.4,1-0.9,1.1c0,0-0.1,0-0.1,0H897c-0.6,0-1-0.4-1-1c0,0,0-0.1,0-0.1l0,0
				c0-0.6,0.4-1,0.9-1.1c0,0,0.1,0,0.1,0h6.1C903.6,437.1,904.1,437.5,904.1,438.1C904.1,438.1,904.1,438.1,904.1,438.1L904.1,438.1
				z"/>
			<path class="st14" d="M1039,450.5h7.1c0,0-2.2-25.1,11.3-25.1h16.7c0,0-7.5-12.7-24.4-5.3S1039,450.5,1039,450.5z"/>
			<ellipse class="st13" cx="1059.6" cy="442.8" rx="16.6" ry="18.8"/>
			<ellipse class="st15" cx="1059.6" cy="442.8" rx="9.2" ry="10.4"/>
			<path class="st14" d="M1068.7,424h-9.2c9.2,0,16.6,8.4,16.6,18.8s-7.4,18.8-16.6,18.8h9.2c9.2,0,16.6-8.4,16.6-18.8
				S1077.9,424,1068.7,424z"/>
			<ellipse class="st13" cx="1114.5" cy="442.8" rx="16.6" ry="18.8"/>
			<path class="st14" d="M1123.7,424h-9.2c9.2,0,16.6,8.4,16.6,18.8s-7.4,18.8-16.6,18.8h9.2c9.2,0,16.6-8.4,16.6-18.8
				S1132.8,424,1123.7,424z"/>
			<path class="st17" d="M1084.9,412.2c-6,0-7.8-7.6-15.5-25.1s-14-20.1-20.4-20.1H1022v83.5h17c0,0,0-5,0-7.7
				c0-12.8,9.2-23.2,20.5-23.2s20.5,10.4,20.5,23.2c0,2.7,0,7.7,0,7.7h20v-20.9C1100,418.3,1090.9,412.2,1084.9,412.2z"/>
			<path class="st19" d="M1127,400c0.1,1-0.7,1.9-1.8,2h-3.4c-1-0.1-1.8-1-1.8-2v-12.7c-0.1-1,0.7-1.9,1.8-2h3.4c1,0.1,1.8,1,1.8,2
				V400z"/>
			<path class="st20" d="M1120.1,400v-12.7c-0.1-1,0.7-1.9,1.8-2h-1.2c-1,0.1-1.8,1-1.8,2V400c-0.1,1,0.7,1.9,1.8,2h1.2
				C1120.9,401.9,1120.1,401,1120.1,400z"/>
			<path class="st12" d="M1123.1,398.7v6.1c0,2.8-0.6,5.3-4.5,5.3c-0.4,0.1-0.7,0.5-0.6,0.9c0.1,0.3,0.3,0.6,0.6,0.6
				c5.3,0,5.9-3.9,5.9-6.8v-6.1c0-0.4-0.2-0.7-0.6-0.7c-0.4,0-0.7,0.2-0.7,0.6C1123.1,398.6,1123.1,398.6,1123.1,398.7L1123.1,398.7
				z"/>
			<g class="st21">
				<path class="st17" d="M1022.2,370.8c-0.1,0-0.3,0.1-0.3,0.3s0.1,0.3,0.3,0.3h25.6c9.1,0,13.1,7.4,17,16.3l3.8,9
					c1.5,3.8,3.3,7.6,5.2,11.3l1.8,3.1c0,0,0,11.6,0,12.5c-4.1-4.5-9.9-7.1-16-7.2c-12.9,0-23.4,11.9-23.4,26.5
					c0,0.1,0.1,0.2,0.2,0.3c0.1,0,0.2-0.1,0.3-0.2c0,0,0-0.1,0-0.1c0-14.3,10.3-26,23-26c6.2,0.1,12,2.8,16.1,7.4
					c0.1,0.1,0.2,0.1,0.2,0c0.1,0,0.1-0.1,0.1-0.2v-13.2l-1.8-3.2c-1.9-3.6-3.6-7.4-5.2-11.2l-3.8-9c-4-9.1-8.1-16.6-17.4-16.6
					L1022.2,370.8z"/>
			</g>
			<path class="st22" d="M1129.9,412.2c-6,0-7.8-7.6-15.5-25.1s-14-20-20.4-20h-45.1c6.4,0,12.7,2.6,20.4,20.1s9.5,25.1,15.5,25.1
				s15.2,6.2,15.2,17.4v20.9h45.1v-20.9C1145.1,418.3,1136,412.2,1129.9,412.2z"/>
			<path class="st23" d="M1115.9,397.4l-3.8-9c-3.6-8.2-6.8-12.8-9.7-15.3h-37.6c2.8,3.9,5.1,8.2,7,12.6l3.9,9.1
				c3.8,9,5.6,13,7.8,14.1h37.8C1119.2,405.1,1117.4,401.3,1115.9,397.4z"/>
			<path class="st17" d="M1100,429.6v20.9h45.1v-20.9c0-11.3-9.1-17.4-15.2-17.4h-45.1C1090.9,412.2,1100,418.3,1100,429.6z"/>
			<path class="st24" d="M1097.6,420.3h45.1c-3.1-5.3-8.6-8.2-12.7-8.2h-45.1C1089,412.2,1094.5,415,1097.6,420.3z"/>
			<path class="st25" d="M1145.9,429.9c0.1,1-0.7,1.9-1.8,2h-4.9c-1-0.1-1.8-1-1.8-2v-1.2c-0.1-1,0.7-1.9,1.8-2h4.9
				c1,0.1,1.8,1,1.8,2V429.9z"/>
			<path class="st25" d="M1111.5,429.9c0.1,1-0.7,1.9-1.8,2H1099c-1-0.1-1.8-1-1.8-2v-1.2c-0.1-1,0.7-1.9,1.8-2h10.8
				c1,0.1,1.8,1,1.8,2L1111.5,429.9z"/>
			<path class="st20" d="M1136.6,427.9c0,0.4-0.3,0.8-0.8,0.8h-22.7c-0.4,0-0.8-0.4-0.7-0.8l0,0c0-0.4,0.3-0.8,0.7-0.9h22.7
				C1136.3,427.1,1136.7,427.4,1136.6,427.9C1136.6,427.9,1136.6,427.9,1136.6,427.9z"/>
			<path class="st20" d="M1136.6,430.6c0,0.4-0.3,0.8-0.8,0.8h-22.7c-0.4,0-0.8-0.4-0.7-0.8l0,0c0-0.4,0.3-0.8,0.7-0.9h22.7
				C1136.3,429.8,1136.7,430.2,1136.6,430.6C1136.6,430.6,1136.6,430.6,1136.6,430.6z"/>
			<path class="st20" d="M1136.6,433.4c0,0.4-0.3,0.8-0.8,0.8h-22.7c-0.4,0-0.8-0.4-0.7-0.8l0,0c0-0.4,0.3-0.8,0.7-0.8h22.7
				C1136.3,432.6,1136.7,433,1136.6,433.4z"/>
			<path class="st19" d="M1093.3,428.3c0,0.6-0.4,1-0.9,1.1c0,0-0.1,0-0.1,0h-4.2c-0.6,0-1-0.4-1-1c0,0,0-0.1,0-0.1l0,0
				c0-0.6,0.4-1,0.9-1.1c0,0,0.1,0,0.1,0h4.2C1092.8,427.2,1093.3,427.7,1093.3,428.3C1093.3,428.2,1093.3,428.3,1093.3,428.3z"/>
			<path class="st23" d="M1024.6,408.8h47.9c-2-3.7-3.7-7.6-5.3-11.5l-3.8-9c-3.6-8.2-7.3-15.3-15.6-15.3h-23.1V408.8z"/>
			<path class="st26" d="M1022,450.5h17c0,0,0-5,0-7.7h-17V450.5z"/>
			<path class="st27" d="M1022,450.5h17c0,0,0-5,0-7.7h-17V450.5z"/>
			<path class="st26" d="M1146.9,449.7c0.1,1-0.7,1.9-1.8,2h-64.8c-1-0.1-1.8-1-1.8-2V444c-0.1-1,0.7-1.9,1.8-2h64.8
				c1,0.1,1.8,1,1.8,2V449.7z"/>
			<path class="st27" d="M1080.3,442c-1,0.1-1.8,1-1.8,2v5.7c-0.1,1,0.7,1.9,1.8,2h19.7V442H1080.3z"/>
			<rect x="1115.2" y="443.3" class="st28" width="18.7" height="6.1"/>
			<path class="st29" d="M1109.6,383.2l-13.8,25.6h2.1l12.7-23.6C1110.2,384.5,1109.9,383.9,1109.6,383.2z M1102.3,373.1h-8.2
				l-15.5,28.8c1.9,4.2,3.2,6.3,4.8,7h6.2l16.7-31C1105.2,376.1,1103.9,374.5,1102.3,373.1z M1083.3,373.1l-9.5,17.7l1.7,4l0.3,0.8
				L1088,373L1083.3,373.1z"/>
			<path class="st29" d="M1047.7,373.1h-1l-19.3,35.8h18.8l14.3-26.4C1057.6,377,1053.9,373.1,1047.7,373.1z M1064.1,390.2l-10,18.6
				h2.7l8.6-15.9L1064.1,390.2z M1033,373.1l-8.4,15.5v11l14.3-26.5L1033,373.1z"/>
			<path class="st17" d="M1076,367v-1.9c0-1.1-0.6-2-1.4-2h-39.1c-0.8,0-1.4,0.9-1.4,2v1.9H1076z"/>
			<path class="st30" d="M1020,450.5h2V367h-2V450.5z"/>
			<path class="st19" d="M1067.5,400c0.1,1-0.7,1.9-1.8,2h-3.4c-1-0.1-1.8-1-1.8-2v-12.7c-0.1-1,0.7-1.9,1.8-2h3.4
				c1,0.1,1.8,1,1.8,2V400z"/>
			<path class="st20" d="M1060.6,400v-12.7c-0.1-1,0.7-1.9,1.8-2h-1.2c-1,0.1-1.8,1-1.8,2V400c-0.1,1,0.7,1.9,1.8,2h1.2
				C1061.3,401.9,1060.5,401,1060.6,400z"/>
			<path class="st12" d="M1063.4,398.7v6.1c0,2.9,0.6,6.8,5.8,6.8c0.4-0.1,0.7-0.5,0.6-0.9c-0.1-0.3-0.3-0.6-0.6-0.6
				c-4,0-4.5-2.5-4.5-5.3v-6.1c0.1-0.4-0.2-0.7-0.5-0.8c-0.4-0.1-0.7,0.2-0.8,0.5C1063.4,398.5,1063.4,398.6,1063.4,398.7
				L1063.4,398.7z"/>
			<rect x="791.5" y="386" class="st31" width="34.4" height="33.6"/>
			<rect x="825.9" y="386" class="st32" width="22.7" height="33.6"/>
			<rect x="828.4" y="409.8" class="st33" width="3.7" height="6.6"/>
			<rect x="803.2" y="386" class="st33" width="10.7" height="12.4"/>
			<rect x="794.1" y="352.5" class="st34" width="34.4" height="33.6"/>
			<rect x="828.5" y="352.5" class="st35" width="22.7" height="33.6"/>
			<rect x="831" y="376.3" class="st33" width="3.7" height="6.6"/>
			<rect x="805.8" y="352.5" class="st33" width="10.7" height="12.4"/>
			<rect x="831" y="386" class="st34" width="34.4" height="33.6"/>
			<rect x="865.4" y="386" class="st35" width="22.7" height="33.6"/>
			<rect x="867.9" y="409.8" class="st33" width="3.7" height="6.6"/>
			<rect x="842.7" y="386" class="st33" width="10.7" height="12.4"/>
			<rect x="791.5" y="419.5" class="st34" width="34.4" height="33.6"/>
			<rect x="825.9" y="419.5" class="st35" width="22.7" height="33.6"/>
			<rect x="828.4" y="443.3" class="st33" width="3.7" height="6.6"/>
			<rect x="803.2" y="419.5" class="st33" width="10.7" height="12.4"/>
			<rect x="831" y="419.5" class="st31" width="34.4" height="33.6"/>
			<rect x="865.4" y="419.5" class="st32" width="22.7" height="33.6"/>
			<rect x="867.9" y="443.3" class="st33" width="3.7" height="6.6"/>
			<rect x="842.7" y="419.5" class="st33" width="10.7" height="12.4"/>
			<rect x="790" y="453.1" class="st36" width="99.6" height="7.8"/>
			<rect x="864.9" y="453.1" class="st37" width="24.6" height="7.8"/>
			<path class="st14" d="M820.5,458.2c0,0.9-0.8,1.6-1.7,1.5h-14.3c-0.9,0-1.6-0.6-1.7-1.5v-2.5c0-0.9,0.8-1.6,1.7-1.5h14.3
				c0.9,0,1.6,0.6,1.7,1.5V458.2z"/>
			<path class="st14" d="M849,458.2c0,0.9-0.8,1.6-1.7,1.5H833c-0.9,0-1.6-0.6-1.7-1.5v-2.5c0-0.9,0.8-1.6,1.7-1.5h14.3
				c0.9,0,1.6,0.6,1.7,1.5L849,458.2z"/>
			<path class="st17" d="M905.5,254.6c-6.4,0-11.5,5.2-11.5,11.5v39.6c0,5-4.1,9-9,9h-53.1c-0.7,0-1.2,0.6-1.2,1.2
				c0,0.7,0.6,1.2,1.2,1.2H885c6.4,0,11.5-5.2,11.5-11.5v-39.6c0-5,4-9,9-9h83.6c5,0,9,4.1,9,9v42.2c0,6.4,5.2,11.5,11.5,11.5h81.7
				c0.7,0,1.2-0.6,1.2-1.2c0-0.7-0.6-1.2-1.2-1.2h-81.7c-5,0-9-4-9-9v-42.3c0-6.4-5.2-11.5-11.5-11.5H905.5z"/>
			<path class="st19" d="M828.7,316.1c0,2.5-2,4.5-4.5,4.5s-4.5-2-4.5-4.5s2-4.5,4.5-4.5S828.7,313.6,828.7,316.1z"/>
			<path class="st17" d="M816.8,316.1c0,4.1,3.3,7.4,7.4,7.4c4.1,0,7.4-3.3,7.4-7.4c0-4.1-3.3-7.4-7.4-7.4
				C820.1,308.7,816.8,312,816.8,316.1z M818,316.1c0-3.4,2.8-6.2,6.2-6.2c3.4,0,6.2,2.8,6.2,6.2s-2.8,6.2-6.2,6.2l0,0
				C820.8,322.2,818,319.5,818,316.1L818,316.1z"/>
			<circle class="st19" cx="1102" cy="318.1" r="6.6"/>
			<path class="st17" d="M1091.4,318.1c0,5.8,4.7,10.5,10.6,10.5c5.8,0,10.5-4.7,10.5-10.6c0-5.8-4.7-10.5-10.5-10.5
				C1096.2,307.5,1091.4,312.3,1091.4,318.1z M1092.7,318.1c0-5.1,4.2-9.3,9.3-9.3c5.1,0,9.3,4.2,9.3,9.3c0,5.1-4.2,9.3-9.3,9.3l0,0
				C1096.8,327.4,1092.7,323.3,1092.7,318.1z"/>
			<rect x="945.1" y="270.5" class="st38" width="4.2" height="4.9"/>
			<path class="st38" d="M961.5,281.1c-0.4,0.6-1.3,0.7-1.9,0.3c0,0,0,0,0,0l-1.8-1.3c-0.6-0.5-0.7-1.3-0.3-1.9l1.8-2.4
				c0.5-0.6,1.3-0.7,1.9-0.3l1.8,1.3c0.6,0.5,0.7,1.3,0.3,1.9L961.5,281.1z"/>
			<path class="st39" d="M962.2,279.8l-3.6-2.6c-0.1-0.1-0.2-0.1-0.3-0.1l-0.8,1.1c-0.4,0.6-0.3,1.5,0.3,1.9l1.8,1.3
				c0.6,0.5,1.5,0.3,1.9-0.3c0,0,0,0,0,0l0.8-1.1C962.3,279.9,962.2,279.8,962.2,279.8z"/>
			<circle class="st17" cx="947.2" cy="296.1" r="21.2"/>
			<circle class="st40" cx="947.2" cy="296.1" r="16.8"/>
			
				<linearGradient id="SVGID_1_" gradientUnits="userSpaceOnUse" x1="942.375" y1="587.1915" x2="952.155" y2="621.3115" gradientTransform="matrix(1 0 0 -1 0 900)">
				<stop  offset="0" style="stop-color:#FCD7F9"/>
				<stop  offset="1" style="stop-color:#FCEBF9"/>
			</linearGradient>
			<circle class="st41" cx="947.2" cy="296.1" r="15"/>
			<rect x="945.1" y="270.8" class="st42" width="4.2" height="2"/>
			
				<linearGradient id="SVGID_2_" gradientUnits="userSpaceOnUse" x1="947.175" y1="632.56" x2="947.175" y2="619.2" gradientTransform="matrix(1 0 0 -1 0 900)">
				<stop  offset="0" style="stop-color:#FFD149"/>
				<stop  offset="1" style="stop-color:#FDAF32"/>
			</linearGradient>
			<path class="st43" d="M954.2,269.4c0,1.4-1.2,2.6-2.6,2.6h-8.8c-1.4,0-2.6-1.2-2.6-2.6l0,0c0-1.4,1.2-2.6,2.6-2.6h8.8
				C953,266.8,954.2,267.9,954.2,269.4z"/>
			<g class="st44">
				
					<linearGradient id="SVGID_3_" gradientUnits="userSpaceOnUse" x1="933.9069" y1="620.1254" x2="941.3099" y2="620.1254" gradientTransform="matrix(1 0 0 -1 0 900)">
					<stop  offset="0" style="stop-color:#FFD149"/>
					<stop  offset="1" style="stop-color:#FDAF32"/>
				</linearGradient>
				<path class="st45" d="M941.3,278.2c0.1,0.7-0.3,1.4-1,1.7c-1.5,0.5-2.8,1.3-4,2.3c-0.6,0.5-1.4,0.5-2,0.1l0,0
					c-0.5-0.6-0.5-1.4,0-2c0,0,0.1-0.1,0.2-0.1c1.4-1.3,3.1-2.2,4.9-2.8c0.7-0.3,1.5,0,1.8,0.7C941.3,278.1,941.3,278.1,941.3,278.2
					L941.3,278.2z"/>
			</g>
			
				<linearGradient id="SVGID_4_" gradientUnits="userSpaceOnUse" x1="950.1929" y1="601.7921" x2="955.0829" y2="618.8521" gradientTransform="matrix(1 0 0 -1 0 900)">
				<stop  offset="0" style="stop-color:#FCADC2"/>
				<stop  offset="1" style="stop-color:#FCDEE6"/>
			</linearGradient>
			<path class="st46" d="M960.6,289.5c-2.5-5.1-7.7-8.4-13.4-8.4v15L960.6,289.5z"/>
			<path class="st47" d="M957.1,290.4l-13.8,6.9c-0.3,0.2-0.5,0.6-0.3,0.9c0.2,0.3,0.6,0.5,0.9,0.3l13.8-6.9
				c0.3-0.2,0.5-0.6,0.3-0.9C957.9,290.4,957.5,290.2,957.1,290.4L957.1,290.4L957.1,290.4z"/>
			<path class="st47" d="M945.9,293.4c-1.5,0.7-2.1,2.5-1.3,3.9c0.7,1.5,2.5,2.1,3.9,1.3c1.5-0.7,2-2.5,1.3-3.9
				C949.1,293.3,947.3,292.7,945.9,293.4C945.9,293.4,945.9,293.4,945.9,293.4z"/>
			
				<ellipse transform="matrix(0.8967 -0.4426 0.4426 0.8967 -33.2252 449.8)" class="st47" cx="947.2" cy="296.1" rx="1.6" ry="1.6"/>
			<path class="st17" d="M1084,270.4c0,13.8,18.3,33.7,18.3,33.7s18.3-19.9,18.3-33.7c0-10.1-8.2-18.3-18.3-18.3
				C1092.2,252.1,1084,260.3,1084,270.4L1084,270.4z"/>
			<circle class="st25" cx="1102.3" cy="270.4" r="11.1"/>
			<g id="Artboard_1">
				<g id="Logo">
					<g id="cargo_logo_new_2">
						<g id="Group_139">
							<g id="Group_138">
								<g id="Group_137">
									<g id="Group_136">
										<g id="Group_135">
											<g id="Group_131">
												<g id="Path_191">
													<path class="st25" d="M917.9,400.6c0.1,0.6-0.4,1.2-1,1.3h-0.2c-0.8,0-1.4-0.6-1.5-1.3c-0.1-0.6,0.4-1.2,1-1.3h0.2
														C917.2,399.3,917.8,399.9,917.9,400.6z"/>
												</g>
											</g>
											<g id="Group_132">
												<g id="Path_192">
													<path class="st25" d="M908.2,400.6c0.1,0.6-0.4,1.2-1,1.3H907c-0.8,0-1.4-0.6-1.5-1.3c-0.1-0.6,0.4-1.2,1-1.3h0.2
														C907.5,399.3,908.1,399.9,908.2,400.6z"/>
												</g>
											</g>
											<g id="Group_134">
												<g id="Group_133">
													<g id="Path_193">
														<path class="st25" d="M921.5,397.2h-4.9c-0.3,0-0.5-0.2-0.5-0.5s0.2-0.5,0.5-0.5h2.1l-0.1-0.7h1.4
															c0.2,0,0.4-0.2,0.4-0.4c0-0.2-0.2-0.4-0.4-0.4h-5.5c-0.3,0-0.5-0.2-0.5-0.5l0,0c0-0.3,0.2-0.5,0.5-0.5h3.9l-0.1-0.5
															h0.5c0.2,0,0.4-0.2,0.4-0.4c0-0.2-0.2-0.4-0.4-0.4h-5c-0.3,0-0.5-0.2-0.5-0.5l0,0l0,0c0-0.3,0.2-0.5,0.5-0.5h4.3
															l-0.1-0.5c0-0.3-0.3-0.5-0.6-0.5h-8.3c-0.3,0-0.5,0.2-0.5,0.5c0,0,0,0.1,0,0.1l0.9,7.9h-0.4l-0.8-7.3h-0.8l-0.3,0.3
															h-1.6c-1.2,0-2.2,0.6-2.8,1.6l-0.8,1.4c-0.3,0.7-0.5,1.4-0.4,2.2l0.2,2c-0.3,0.1-0.4,0.5-0.3,0.8l0.2,0.5
															c0.1,0.2,0.3,0.3,0.5,0.4h2.2c0.2,0,0.3-0.1,0.4-0.3l0.2-0.5c0.2-0.6,0.8-1,1.4-1c0.7,0,1.4,0.5,1.7,1.1l0.2,0.3
															c0.1,0.2,0.3,0.3,0.5,0.3h5.9c0-0.1,0-0.1,0-0.2c0-0.7,0.6-1.4,1.3-1.4c0,0,0,0,0,0h0.3c0.9,0,1.6,0.7,1.7,1.5h0.5
															c0.3,0,0.5-0.2,0.5-0.5c0,0,0-0.1,0-0.1l-0.2-1.8h2.6c0.2,0,0.4-0.2,0.4-0.4C921.9,397.5,921.8,397.3,921.5,397.2
															L921.5,397.2z M907.5,394.8l-3.9,0.9c-0.2,0-0.4-0.1-0.5-0.3c0-0.1,0-0.1,0-0.2l0.8-1.5c0.2-0.4,0.7-0.7,1.2-0.7
															l2.1-0.1c0.3,0,0.5,0.2,0.5,0.5l0.1,1.1C907.9,394.6,907.8,394.8,907.5,394.8L907.5,394.8z M912.8,393.5h-0.5
															c-0.2,0-0.4-0.3-0.4-0.5c0-0.2,0.2-0.3,0.4-0.4h0.5c0.2,0,0.5,0.1,0.5,0.4s-0.1,0.5-0.4,0.5
															C912.9,393.6,912.8,393.6,912.8,393.5z M914.8,396.2h-0.5c-0.2,0-0.4-0.3-0.4-0.5c0-0.2,0.2-0.3,0.4-0.4h0.5
															c0.2,0,0.4,0.3,0.4,0.5C915.1,396.1,915,396.2,914.8,396.2z"/>
													</g>
												</g>
											</g>
										</g>
										<g id="Path_194">
											<path class="st25" d="M920,392.1h-0.5c-0.2,0-0.4-0.2-0.4-0.4l0,0l0,0c0-0.2,0.2-0.4,0.4-0.4l0,0h0.5
												c0.2,0,0.4,0.2,0.4,0.4l0,0l0,0C920.4,391.9,920.2,392.1,920,392.1L920,392.1z"/>
										</g>
										<g id="Path_195">
											<path class="st25" d="M920.9,394.2h-0.5c-0.2,0-0.4-0.2-0.4-0.4l0,0l0,0c0-0.2,0.2-0.4,0.4-0.4l0,0h0.5
												c0.2,0,0.4,0.2,0.4,0.4l0,0l0,0C921.3,394,921.1,394.2,920.9,394.2L920.9,394.2z"/>
										</g>
										<g id="Path_196">
											<path class="st25" d="M920.2,396.9h-0.5c-0.2,0-0.4-0.2-0.4-0.4l0,0l0,0c0-0.2,0.2-0.4,0.4-0.4l0,0h0.5
												c0.2,0,0.4,0.2,0.4,0.4l0,0l0,0C920.6,396.7,920.4,396.9,920.2,396.9L920.2,396.9z"/>
										</g>
										<g id="Path_197">
											<path class="st25" d="M922.6,396.9H922c-0.2,0-0.4-0.2-0.4-0.4l0,0l0,0c0-0.2,0.2-0.5,0.4-0.5c0,0,0,0,0,0h0.5
												c0.2,0,0.4,0.2,0.4,0.4l0,0l0,0C923,396.7,922.8,396.9,922.6,396.9z"/>
										</g>
										<g id="Path_198">
											<path class="st25" d="M923.3,395.2h-0.5c-0.2,0-0.4-0.2-0.4-0.4l0,0l0,0c0-0.2,0.2-0.4,0.4-0.4l0,0h0.5
												c0.2,0,0.4,0.2,0.4,0.4l0,0l0,0C923.7,395,923.5,395.2,923.3,395.2L923.3,395.2z"/>
										</g>
										<g id="Path_199">
											<path class="st25" d="M920.7,399.3h-0.5c-0.2,0-0.4-0.2-0.4-0.4l0,0l0,0c0-0.2,0.2-0.4,0.4-0.4l0,0h0.5
												c0.2,0,0.4,0.2,0.4,0.4l0,0l0,0C921.1,399.1,920.9,399.3,920.7,399.3L920.7,399.3z"/>
										</g>
									</g>
								</g>
							</g>
						</g>
					</g>
					<g id="Group_148">
						<g id="ezeecargo">
							<g>
								<path class="st25" d="M935.8,395.4v0.2h-8c0,1,0.5,2,1.2,2.8c0.7,0.7,1.6,1.1,2.6,1.1c0.7,0,1.4-0.2,1.9-0.6
									c0.6-0.4,1.1-0.9,1.4-1.6h0.5c-0.3,0.8-0.8,1.4-1.5,1.9c-1.7,1.2-3.9,0.9-5.3-0.6c-0.8-0.8-1.3-2-1.3-3.1
									c0-1.1,0.4-2.2,1.2-3c0.8-0.8,1.9-1.3,3-1.3C933.9,391.2,935.7,393.1,935.8,395.4L935.8,395.4z M927.8,395.2h7.5
									c-0.1-1-0.5-1.9-1.2-2.6c-0.7-0.7-1.6-1.1-2.5-1c-0.9,0-1.8,0.3-2.5,1C928.3,393.3,927.9,394.2,927.8,395.2L927.8,395.2z"/>
								<path class="st25" d="M937.1,391.8v-0.4h5.5v0.4l-5.2,7.5h5.5v0.4h-6v-0.4l5.2-7.5H937.1z"/>
								<path class="st25" d="M952.2,395.4v0.2h-8c0,1,0.5,2,1.2,2.8c0.7,0.7,1.6,1.1,2.6,1.1c0.7,0,1.4-0.2,1.9-0.6
									c0.6-0.4,1.1-0.9,1.4-1.6h0.5c-0.3,0.8-0.8,1.4-1.5,1.9c-1.7,1.2-3.9,0.9-5.3-0.6c-0.8-0.8-1.3-2-1.3-3.1
									c0-1.1,0.4-2.2,1.2-3c0.8-0.8,1.9-1.3,3-1.3C950.3,391.2,952.2,393.1,952.2,395.4L952.2,395.4z M944.2,395.2h7.5
									c-0.1-1-0.5-1.9-1.2-2.6c-0.7-0.7-1.6-1.1-2.5-1c-0.9,0-1.8,0.3-2.5,1C944.8,393.3,944.3,394.2,944.2,395.2L944.2,395.2z"/>
								<path class="st25" d="M962,395.4v0.2h-8c0,1,0.5,2,1.2,2.8c0.7,0.7,1.6,1.1,2.6,1.1c0.7,0,1.4-0.2,1.9-0.6
									c0.6-0.4,1.1-0.9,1.4-1.6h0.5c-0.3,0.8-0.8,1.4-1.5,1.9c-1.7,1.2-3.9,0.9-5.3-0.6c-0.8-0.8-1.3-2-1.3-3.1
									c0-1.1,0.4-2.2,1.2-3c0.8-0.8,1.9-1.3,3-1.3C960.1,391.2,961.9,393.1,962,395.4L962,395.4z M954,395.2h7.5
									c-0.1-1-0.5-1.9-1.2-2.6c-0.7-0.7-1.6-1.1-2.5-1c-0.9,0-1.8,0.3-2.5,1C954.5,393.3,954.1,394.2,954,395.2z"/>
							</g>
							<g>
								<path class="st25" d="M967.8,398.1c0.8,0,1.6-0.5,1.9-1.2h2.3c-0.3,1-1,1.8-1.8,2.4c-0.8,0.5-1.6,0.7-2.5,0.7
									c-1.2,0-2.4-0.5-3.3-1.4c-0.9-0.9-1.4-2.1-1.4-3.3c0-2.6,2-4.7,4.6-4.7c1.4,0,2.7,0.6,3.6,1.7c0.4,0.5,0.6,1,0.8,1.5h-2.3
									c-0.4-0.8-1.1-1.3-2-1.3c-0.7,0-1.4,0.3-1.8,0.8c-0.5,0.5-0.7,1.3-0.7,2c0,0.7,0.2,1.5,0.7,2
									C966.5,397.8,967.1,398.1,967.8,398.1z"/>
								<path class="st25" d="M980.3,391h1.9v8.7h-1.9v-1.1c-0.4,0.4-0.8,0.8-1.4,1c-0.5,0.2-1.1,0.4-1.7,0.4c-1.1,0-2.2-0.5-3-1.4
									c-0.8-0.9-1.2-2.1-1.2-3.4c0-1.2,0.4-2.4,1.3-3.3c0.8-0.9,1.9-1.4,3.1-1.3c1.1,0,2.2,0.5,2.9,1.4L980.3,391z M977.7,398.1
									c0.7,0,1.4-0.3,1.8-0.8c0.5-0.5,0.7-1.3,0.7-2c0-0.7-0.2-1.5-0.7-2c-1-1-2.6-1.1-3.6-0.1c0,0-0.1,0.1-0.1,0.1
									c-0.5,0.5-0.8,1.3-0.7,2c0,0.7,0.3,1.4,0.8,1.9C976.3,397.8,977,398.1,977.7,398.1L977.7,398.1z"/>
								<path class="st25" d="M986.2,399.7h-2.1V391h1.9v0.8c0.2-0.3,0.5-0.6,0.9-0.9c0.3-0.2,0.7-0.2,1-0.2h0.2v2
									c-1.2,0-1.9,0.7-1.9,2.1L986.2,399.7z"/>
								<path class="st25" d="M996,392v-1h1.9v7.1c0.1,1.5-0.5,2.9-1.5,3.9c-0.9,0.8-2.1,1.3-3.3,1.2c-1,0-1.9-0.3-2.7-0.8
									c-0.8-0.5-1.4-1.2-1.7-2.1h2.4c0.5,0.6,1.3,1,2.1,1c0.7,0,1.4-0.3,1.9-0.8c0.5-0.5,0.8-1.3,0.8-2c-0.7,0.9-1.8,1.4-2.9,1.4
									c-1.2,0-2.4-0.5-3.2-1.4c-0.9-0.9-1.3-2.1-1.3-3.3c0-1.2,0.5-2.4,1.3-3.3c0.8-0.9,2-1.4,3.2-1.3
									C994.2,390.6,995.2,391.1,996,392z M993.3,398c0.7,0,1.3-0.3,1.8-0.8c0.5-0.5,0.8-1.3,0.7-2c0-0.7-0.2-1.5-0.8-2
									c-0.9-1-2.4-1.1-3.4-0.2c-0.1,0.1-0.1,0.1-0.2,0.2c-0.5,0.5-0.8,1.2-0.7,1.9c0,0.7,0.3,1.5,0.8,2
									C991.9,397.7,992.5,398.1,993.3,398L993.3,398z"/>
								<path class="st25" d="M1004,400c-2.6,0-4.7-2.1-4.7-4.7c0-2.6,2.1-4.7,4.7-4.7c1.2,0,2.4,0.5,3.3,1.4c1.8,1.8,1.8,4.8,0,6.6
									C1006.4,399.5,1005.2,400,1004,400z M1004,392.6c-0.7,0-1.3,0.3-1.8,0.8c-1,1.1-1,2.8,0,3.9c0.5,0.5,1.1,0.8,1.8,0.8
									c0.7,0,1.3-0.3,1.8-0.8c0.5-0.5,0.7-1.2,0.7-1.9c0-0.7-0.2-1.5-0.8-2C1005.3,392.9,1004.7,392.6,1004,392.6L1004,392.6z"/>
							</g>
						</g>
					</g>
				</g>
			</g>
			
				<linearGradient id="SVGID_5_" gradientUnits="userSpaceOnUse" x1="294.0446" y1="40.3396" x2="285.1446" y2="152.5796" gradientTransform="matrix(1 0 0 -1 0 900)">
				<stop  offset="0" style="stop-color:#E89E38"/>
				<stop  offset="1" style="stop-color:#FFCB5A"/>
			</linearGradient>
			<path class="st48" d="M433,854.1c-111.5,41.5-198,19.6-279.3-60.4c-46.8-46.1-103.5-60.1-155.7-40V903h597v-25
				C548.9,844,507.4,826.4,433,854.1z"/>
			
				<linearGradient id="SVGID_6_" gradientUnits="userSpaceOnUse" x1="419.0005" y1="-34.0997" x2="316.2605" y2="154.8203" gradientTransform="matrix(1 0 0 -1 0 900)">
				<stop  offset="0" style="stop-color:#FFBD49"/>
				<stop  offset="1" style="stop-color:#FFCB5A"/>
			</linearGradient>
			<path class="st49" d="M665.9,805.1c-69.1-59.8-139.2-72.9-215.9-14.8c-92.1,69.8-170,103.2-282.9,61.2
				C91.7,823.4,49.7,841.3,3,875.6V901h796C767.8,892.1,739.6,868.9,665.9,805.1z"/>
		</g>
	</g>
</g>
</svg>
