<svg xmlns="http://www.w3.org/2000/svg" viewBox="0 0 10.55 12.99"><defs><style>.cls-1{fill:#5d556b;}.cls-2{fill:#d6dadf;}.cls-3{fill:#898794;}.cls-4{fill:#fde500;}</style></defs><g id="Layer_1" data-name="Layer 1"><path class="cls-1" d="M9.84,1.42H.71A.71.71,0,0,1,0,.71H0A.71.71,0,0,1,.71,0H9.84a.71.71,0,0,1,.71.71h0A.71.71,0,0,1,9.84,1.42Z"/><path class="cls-2" d="M9.54.81H1a.2.2,0,0,0-.2.2V12.38a.22.22,0,0,0,.1.18l.71.4a.2.2,0,0,0,.21,0l.61-.35.61.35a.18.18,0,0,0,.2,0l.61-.35.61.35a.18.18,0,0,0,.2,0l.61-.35.61.35a.18.18,0,0,0,.2,0l.61-.35.61.35a.18.18,0,0,0,.2,0l.61-.35.61.35a.17.17,0,0,0,.1,0,.19.19,0,0,0,.1,0l.71-.4a.22.22,0,0,0,.1-.18V1A.2.2,0,0,0,9.54.81Z"/><path class="cls-1" d="M8.32,2.23H7.71a.2.2,0,1,1,0-.4h.61a.2.2,0,0,1,0,.4Z"/><path class="cls-1" d="M8.32,3.25H7.51A.2.2,0,0,1,7.31,3a.2.2,0,0,1,.2-.2h.81a.2.2,0,0,1,.2.2A.2.2,0,0,1,8.32,3.25Z"/><path class="cls-1" d="M8.32,4.26H7.71a.2.2,0,1,1,0-.4h.61a.2.2,0,0,1,0,.4Z"/><path class="cls-1" d="M8.32,5.28h-1a.21.21,0,0,1-.21-.21.2.2,0,0,1,.21-.2h1a.2.2,0,0,1,.2.2A.2.2,0,0,1,8.32,5.28Z"/><path class="cls-1" d="M8.32,6.29H7.71a.2.2,0,1,1,0-.4h.61a.2.2,0,1,1,0,.4Z"/><path class="cls-1" d="M8.32,7.31h-.4a.21.21,0,0,1-.21-.21.2.2,0,0,1,.21-.2h.4a.2.2,0,0,1,.2.2A.2.2,0,0,1,8.32,7.31Z"/><path class="cls-1" d="M8.32,8.32h-1a.2.2,0,1,1,0-.4h1a.2.2,0,0,1,0,.4Z"/><path class="cls-3" d="M5.48,2.23H2.23a.2.2,0,1,1,0-.4H5.48a.2.2,0,0,1,0,.4Z"/><path class="cls-3" d="M6.09,3.25H2.23A.2.2,0,0,1,2,3a.2.2,0,0,1,.2-.2H6.09a.2.2,0,0,1,.2.2A.2.2,0,0,1,6.09,3.25Z"/><path class="cls-3" d="M4.87,4.26H2.23a.2.2,0,1,1,0-.4H4.87a.2.2,0,1,1,0,.4Z"/><path class="cls-3" d="M5.68,5.28H2.23A.2.2,0,0,1,2,5.07a.2.2,0,0,1,.2-.2H5.68a.21.21,0,1,1,0,.41Z"/><path class="cls-3" d="M6.7,6.29H2.23a.2.2,0,0,1,0-.4H6.7a.2.2,0,1,1,0,.4Z"/><path class="cls-3" d="M4.87,7.31H2.23A.2.2,0,0,1,2,7.1a.2.2,0,0,1,.2-.2H4.87a.2.2,0,0,1,.2.2A.2.2,0,0,1,4.87,7.31Z"/><path class="cls-3" d="M5.68,8.32H2.23a.2.2,0,0,1,0-.4H5.68a.2.2,0,1,1,0,.4Z"/><path class="cls-1" d="M6.9,9.74H3.65a.2.2,0,0,1,0-.4H6.9a.2.2,0,0,1,0,.4Z"/><path class="cls-1" d="M7.92,10.76H2.64a.2.2,0,0,1-.2-.21.2.2,0,0,1,.2-.2H7.92a.2.2,0,0,1,.2.2A.2.2,0,0,1,7.92,10.76Z"/><polygon class="cls-4" points="8.4 0.23 6.63 2.15 5.53 1.48 5.19 1.78 6.67 3.22 8.6 0.39 8.4 0.23"/><polygon class="cls-4" points="10.02 0.24 8.28 2.18 7.79 1.9 7.45 2.4 8.31 3.25 10.23 0.41 10.02 0.24"/></g></svg>