<svg xmlns="http://www.w3.org/2000/svg" viewBox="0 0 1023.59 559.73"><defs><style>.cls-1{isolation:isolate;}.cls-2{fill:#fe8ca5;}.cls-3{fill:#403c86;}.cls-4{fill:#d1edea;}.cls-5{fill:#66c6c4;}.cls-6{fill:#72dddd;}.cls-7{fill:#fff;}.cls-8{mix-blend-mode:multiply;}.cls-9{fill:#ffce45;}.cls-10{fill:#ffa227;}.cls-11{fill:#95dbd9;}.cls-12{fill:#b3e2df;}</style></defs><g class="cls-1"><g id="Layer_1" data-name="Layer 1"><path class="cls-2" d="M780.46,474.21H754.31l-5,12.07H736L761.07,430h12.87l25.18,56.32H785.44Zm-4.11-9.9-8.93-21.56-8.93,21.56Z"/><path class="cls-2" d="M834.92,447.14q5.4,4.78,5.39,14.44v24.7H828.57v-5.39q-3.54,6-13.2,6a20.44,20.44,0,0,1-8.65-1.69,12.89,12.89,0,0,1-5.59-4.66,12.14,12.14,0,0,1-1.93-6.76,11.29,11.29,0,0,1,4.55-9.5q4.54-3.45,14-3.46h10a8,8,0,0,0-2.49-6.31c-1.67-1.48-4.16-2.21-7.48-2.21a21.93,21.93,0,0,0-6.8,1.08,18.07,18.07,0,0,0-5.67,2.94l-4.51-8.77a27.2,27.2,0,0,1,8.49-3.86,38.1,38.1,0,0,1,10.18-1.37Q829.53,442.35,834.92,447.14ZM824.22,477a8.21,8.21,0,0,0,3.54-4.39v-4.42h-8.61q-7.73,0-7.72,5.06a4.53,4.53,0,0,0,1.89,3.83,8.51,8.51,0,0,0,5.19,1.4A11,11,0,0,0,824.22,477Z"/><path class="cls-3" d="M731.21,467.06H456.27a.57.57,0,1,1,0-1.13H731.21a.57.57,0,0,1,0,1.13Z"/><path class="cls-3" d="M969.57,467.06H867.74a.57.57,0,0,1-.57-.57.56.56,0,0,1,.57-.56H969.57a1.41,1.41,0,0,0,1.41-1.41v-86a.57.57,0,1,1,1.13,0v86A2.54,2.54,0,0,1,969.57,467.06Z"/><path class="cls-3" d="M110.4,470.1H43a3.57,3.57,0,0,1-3.58-3.57V96A3.57,3.57,0,0,1,43,92.4H221.17a3,3,0,0,0,3-3V80.24a.57.57,0,0,1,1.14,0v9.19a4.11,4.11,0,0,1-4.1,4.1H43A2.45,2.45,0,0,0,40.55,96V466.53A2.45,2.45,0,0,0,43,469h67.4a.57.57,0,0,1,0,1.13Z"/><path class="cls-3" d="M378.2,467H287a.52.52,0,1,1,0-1H378.2a.52.52,0,1,1,0,1Z"/><path class="cls-3" d="M731.21,454.76H629.12a.52.52,0,0,1,0-1H731.21a.52.52,0,0,1,0,1Z"/><path class="cls-3" d="M231.34,80.81H218.06a.56.56,0,0,1-.57-.57V75.15a34.94,34.94,0,0,1-12.28-5.07l-3.58,3.6a.59.59,0,0,1-.4.17h0a.54.54,0,0,1-.4-.17l-9.4-9.4a.56.56,0,0,1-.17-.4.58.58,0,0,1,.17-.41l3.6-3.58A34.57,34.57,0,0,1,190,47.61h-5.1a.57.57,0,0,1-.57-.56V33.76a.57.57,0,0,1,.57-.56H190c0-.2.09-.39.15-.58a32.43,32.43,0,0,1,1.09-3.92A34.72,34.72,0,0,1,195,20.92l-3.6-3.58a.56.56,0,0,1-.17-.4.57.57,0,0,1,.17-.41l9.4-9.4a.67.67,0,0,1,.4-.16.58.58,0,0,1,.4.16l3.58,3.6a35.39,35.39,0,0,1,12.28-5.09V.57a.56.56,0,0,1,.57-.57h13.28a.56.56,0,0,1,.57.57V5.64a35.39,35.39,0,0,1,12.28,5.09l3.58-3.6a.59.59,0,0,1,.4-.16.68.68,0,0,1,.4.16l9.4,9.4a.57.57,0,0,1,.17.41.56.56,0,0,1-.17.4l-3.6,3.58a35.31,35.31,0,0,1,5.09,12.28h5.08a.57.57,0,0,1,.57.56V47.05a.57.57,0,0,1-.57.56h-5.1a35.07,35.07,0,0,1-5.07,12.29l3.6,3.57a.58.58,0,0,1,.17.41.56.56,0,0,1-.17.4l-9.4,9.4a1,1,0,0,1-.4.17.6.6,0,0,1-.4-.17l-3.58-3.6a34.94,34.94,0,0,1-12.28,5.07v5.09A.56.56,0,0,1,231.34,80.81Zm-12.72-1.13h12.16v-5a.56.56,0,0,1,.46-.55,34,34,0,0,0,12.7-5.25.57.57,0,0,1,.72.07l3.51,3.53,8.6-8.6-3.53-3.51a.57.57,0,0,1-.07-.72,33.9,33.9,0,0,0,5.25-12.71.57.57,0,0,1,.55-.46h5V34.33h-5a.57.57,0,0,1-.56-.46,34.15,34.15,0,0,0-5.27-12.71.57.57,0,0,1,.07-.72l3.53-3.51-8.6-8.6-3.51,3.53a.55.55,0,0,1-.72.07,34.32,34.32,0,0,0-12.71-5.27.56.56,0,0,1-.45-.55v-5H218.62v5a.56.56,0,0,1-.46.55,34.46,34.46,0,0,0-12.71,5.27.55.55,0,0,1-.72-.07l-3.5-3.53-8.6,8.6,3.53,3.51a.57.57,0,0,1,.07.72,33.48,33.48,0,0,0-4,7.91,30.59,30.59,0,0,0-1.06,3.82c-.09.31-.15.6-.21.87l0,.12a.58.58,0,0,1-.56.45h-5V46.48h5a.57.57,0,0,1,.56.46A33.71,33.71,0,0,0,196,59.38a.65.65,0,0,1,.1.15l.07.1a.56.56,0,0,1-.05.74l-3.53,3.51,8.6,8.6,3.5-3.53a.58.58,0,0,1,.72-.07,34.06,34.06,0,0,0,12.71,5.25.56.56,0,0,1,.46.55Zm6.08-16.52a22.76,22.76,0,1,1,22.75-22.75A22.77,22.77,0,0,1,224.7,63.16Zm0-44.37a21.62,21.62,0,1,0,21.62,21.62A21.65,21.65,0,0,0,224.7,18.79Z"/><path class="cls-4" d="M478.69,438.48a10.58,10.58,0,1,1,10.57,10.57A10.58,10.58,0,0,1,478.69,438.48Zm-8.42-3.17v6.33h2.65a16.35,16.35,0,0,0,2.46,6l.08.13-.08.09-1.79,1.78,1.79,1.78,2.69,2.7.09-.09,1.77-1.79a16.6,16.6,0,0,0,6.16,2.55v2.65h6.34v-2.65a16.54,16.54,0,0,0,6.16-2.55l1.86,1.88,4.48-4.48-1.87-1.87a16.45,16.45,0,0,0,2.54-6.16h2.65v-6.33h-2.64a16.63,16.63,0,0,0-2.55-6.16l1.87-1.86-4.48-4.48-1.86,1.87a16.54,16.54,0,0,0-6.16-2.55v-2.65h-6.34v2.65a16.6,16.6,0,0,0-6.16,2.55l-1.77-1.79-.09-.08-4.48,4.48,1.87,1.86a16.2,16.2,0,0,0-1.91,3.84,14,14,0,0,0-.52,1.85c0,.15-.08.32-.11.47Z"/><path class="cls-4" d="M925.2,219.81A14.16,14.16,0,1,1,939.35,234,14.14,14.14,0,0,1,925.2,219.81Zm-11.27-4.24v8.48h3.55a22.07,22.07,0,0,0,3.28,8.07,1.88,1.88,0,0,1,.12.18l-.12.12-2.39,2.37,2.39,2.4,3.62,3.6.11-.11,2.38-2.39a22.15,22.15,0,0,0,8.24,3.4v3.55h8.48v-3.55a22.13,22.13,0,0,0,8.25-3.4l2.49,2.5,6-6-2.51-2.49a22,22,0,0,0,3.4-8.25h3.55v-8.48h-3.53a22.35,22.35,0,0,0-3.42-8.24l2.51-2.5-6-6-2.49,2.51a22.5,22.5,0,0,0-8.25-3.42v-3.53h-8.48v3.53a22.52,22.52,0,0,0-8.24,3.42L924.49,199l-.11-.12-6,6,2.51,2.5a22.2,22.2,0,0,0-2.57,5.13,20.62,20.62,0,0,0-.68,2.48c-.06.21-.11.43-.15.63Z"/><path class="cls-3" d="M432.63,495.37H379.84a2.2,2.2,0,0,1-2.2-2.2V439.8a2.19,2.19,0,0,1,2.2-2.18h52.79a2.19,2.19,0,0,1,2.18,2.18v53.37A2.2,2.2,0,0,1,432.63,495.37Zm-52.79-56.62a1.06,1.06,0,0,0-1.07,1.05v53.37a1.07,1.07,0,0,0,1.07,1.06h52.79a1.06,1.06,0,0,0,1-1.06V439.8a1.06,1.06,0,0,0-1-1.05Z"/><path class="cls-5" d="M378.2,483.16v10a1.63,1.63,0,0,0,1.64,1.63H406l-1.11-11.64-12.33-13.62Z"/><path class="cls-6" d="M385.54,494.8h47.09a1.63,1.63,0,0,0,1.61-1.63v-10l-18.43-19.33Z"/><path class="cls-6" d="M385.62,453.5a6.5,6.5,0,1,0,6.49-6.5A6.49,6.49,0,0,0,385.62,453.5Z"/><path class="cls-3" d="M432.63,495.37H379.84a2.2,2.2,0,0,1-2.2-2.2V439.8a2.19,2.19,0,0,1,2.2-2.18h52.79a2.19,2.19,0,0,1,2.18,2.18v53.37A2.2,2.2,0,0,1,432.63,495.37Zm-52.79-56.62a1.06,1.06,0,0,0-1.07,1.05v53.37a1.07,1.07,0,0,0,1.07,1.06h52.79a1.06,1.06,0,0,0,1-1.06V439.8a1.06,1.06,0,0,0-1-1.05Z"/><path class="cls-5" d="M153.45,438.87V383.05a2.45,2.45,0,0,1,.2-1,2.53,2.53,0,0,1,1.41-1.41,2.45,2.45,0,0,1,1-.2H247a2.45,2.45,0,0,1,1,.2,2.53,2.53,0,0,1,1.41,1.41,2.45,2.45,0,0,1,.2,1v55.82Z"/><path class="cls-7" d="M143.75,504.45V468.23a1.47,1.47,0,0,1,.12-.58,1.67,1.67,0,0,1,.33-.5,1.56,1.56,0,0,1,.5-.33,1.62,1.62,0,0,1,.58-.11H257.77a1.62,1.62,0,0,1,.58.11,1.56,1.56,0,0,1,.5.33,1.67,1.67,0,0,1,.33.5,1.47,1.47,0,0,1,.12.58v36.22a1.47,1.47,0,0,1-.12.58,1.67,1.67,0,0,1-.33.5,1.56,1.56,0,0,1-.5.33,1.62,1.62,0,0,1-.58.11H145.28a1.62,1.62,0,0,1-.58-.11,1.56,1.56,0,0,1-.5-.33,1.67,1.67,0,0,1-.33-.5A1.47,1.47,0,0,1,143.75,504.45Z"/><path class="cls-3" d="M259.86,506.54H143.19V467.8a1.59,1.59,0,0,1,.48-1.17,1.64,1.64,0,0,1,1.18-.49H258.21a1.67,1.67,0,0,1,1.17.48,1.63,1.63,0,0,1,.48,1.18Zm-115.54-1.13H258.73V467.8a.5.5,0,0,0-.15-.37.49.49,0,0,0-.37-.16H144.85a.49.49,0,0,0-.38.16.5.5,0,0,0-.15.37Z"/><polygon class="cls-7" points="165.15 401.03 165.15 438.87 237.96 438.87 237.96 388.17 178 388.17 165.15 401.03"/><polygon class="cls-6" points="165.15 401.03 178 401.03 178 388.17 165.15 401.03"/><path class="cls-3" d="M284.42,506.54H118.63a3,3,0,0,1-1.19-.24,3,3,0,0,1-1-.67,3.16,3.16,0,0,1-.68-1,3.23,3.23,0,0,1-.23-1.19V443.36a5.07,5.07,0,0,1,3.12-4.67,5.07,5.07,0,0,1,1.93-.38H282.48a5,5,0,0,1,3.57,1.48,4.79,4.79,0,0,1,1.1,1.64,5,5,0,0,1,.39,1.93v60.07a3,3,0,0,1-.24,1.19,3.16,3.16,0,0,1-.68,1,3,3,0,0,1-1,.67A3,3,0,0,1,284.42,506.54Zm-163.85-67.1a3.86,3.86,0,0,0-1.5.3,3.93,3.93,0,0,0-2.12,2.12,3.9,3.9,0,0,0-.3,1.5v60.07a1.93,1.93,0,0,0,.15.75,1.89,1.89,0,0,0,.43.65,2.32,2.32,0,0,0,.64.43,2,2,0,0,0,.76.15H284.42a2,2,0,0,0,.76-.15,2.32,2.32,0,0,0,.64-.43,1.89,1.89,0,0,0,.43-.65,1.93,1.93,0,0,0,.15-.75V443.36a3.9,3.9,0,0,0-.3-1.5,3.64,3.64,0,0,0-.85-1.27,3.78,3.78,0,0,0-1.27-.85,3.86,3.86,0,0,0-1.5-.3Z"/><path class="cls-5" d="M218.1,446.56a3.84,3.84,0,0,1,2.71,6.55,3.83,3.83,0,1,1-5.42-5.42,3.88,3.88,0,0,1,2.71-1.13Z"/><g class="cls-8"><path class="cls-9" d="M201.55,446.56a3.84,3.84,0,0,1,2.71,6.55,3.8,3.8,0,0,1-5.42,0,3.84,3.84,0,0,1,2.71-6.55Z"/></g><g class="cls-8"><path class="cls-2" d="M185,446.56a3.88,3.88,0,0,1,2.71,1.13,3.83,3.83,0,1,1-5.42,5.42,3.84,3.84,0,0,1,2.71-6.55Z"/></g><path class="cls-3" d="M259.17,480.47a5.27,5.27,0,1,0,0-10.53"/><path class="cls-3" d="M143.75,480.47a5.27,5.27,0,0,1,0-10.53"/><path class="cls-7" d="M253.43,483.44l16,28.27a1.24,1.24,0,0,1-1.08,1.86H134.53a1.25,1.25,0,0,1-1.08-1.86l16-28.27a1.25,1.25,0,0,1,1.08-.64H252.35A1.25,1.25,0,0,1,253.43,483.44Z"/><path class="cls-3" d="M268.39,514.14H134.53a1.81,1.81,0,0,1-1.57-2.71l16-28.27a1.83,1.83,0,0,1,1.58-.92H252.35a1.82,1.82,0,0,1,1.58.92l16,28.27a1.81,1.81,0,0,1-1.58,2.71ZM150.57,483.37a.67.67,0,0,0-.59.35l-16,28.27a.68.68,0,0,0,0,.68.64.64,0,0,0,.58.33H268.39a.68.68,0,0,0,.59-.33.66.66,0,0,0,0-.68l-16-28.28a.68.68,0,0,0-.59-.34Z"/><path class="cls-3" d="M261.8,509.47H196.66a.57.57,0,1,1,0-1.13H261.8a.57.57,0,1,1,0,1.13Z"/><path class="cls-3" d="M191.69,509.47H178.45a.57.57,0,0,1,0-1.13h13.24a.57.57,0,1,1,0,1.13Z"/><path class="cls-3" d="M121.62,179.52H58.25a2,2,0,0,1-.76-.15,2.12,2.12,0,0,1-.64-.43,2,2,0,0,1-.43-.65,1.94,1.94,0,0,1-.15-.76V114.17a2,2,0,0,1,.15-.76,1.85,1.85,0,0,1,.43-.64,2,2,0,0,1,.64-.43,2,2,0,0,1,.76-.15h63.37a2,2,0,0,1,.76.15,2,2,0,0,1,1.07,1.07,2,2,0,0,1,.15.76v63.36a1.94,1.94,0,0,1-.15.76,2,2,0,0,1-.43.65,2.12,2.12,0,0,1-.64.43A2,2,0,0,1,121.62,179.52Zm-63.37-66.2a.87.87,0,0,0-.32.06.92.92,0,0,0-.28.19.8.8,0,0,0-.18.27.78.78,0,0,0-.07.33v63.36a.83.83,0,0,0,.53.79.87.87,0,0,0,.32.06h63.37a.87.87,0,0,0,.32-.06.87.87,0,0,0,.53-.79V114.17a.78.78,0,0,0-.07-.33.8.8,0,0,0-.18-.27.92.92,0,0,0-.28-.19.87.87,0,0,0-.32-.06Z"/><path class="cls-3" d="M80.55,162.89c.32-1,.84-1.55,1.57-1.63h4.1V130.44H84.41q-4.41,0-6.28,4.47c-.2.48-.38,1-.54,1.51l-1.57,5H74.27l.24-12.62H105.3l.3,12.62h-1.81l-1.57-5q-1.44-4.71-4.65-5.68a7.25,7.25,0,0,0-2.17-.3H93.65v30.82h5.73v1.63Z"/><path class="cls-9" d="M920.07,349.63V253.41a1.79,1.79,0,0,1,.13-.68,1.74,1.74,0,0,1,.39-.58,1.84,1.84,0,0,1,.57-.38,1.8,1.8,0,0,1,.68-.14h75a1.5,1.5,0,0,1,.55.11,1.63,1.63,0,0,1,.47.32,1.38,1.38,0,0,1,.31.47,1.46,1.46,0,0,1,.11.55V350a1.51,1.51,0,0,1-.11.56,1.44,1.44,0,0,1-.31.46,1.63,1.63,0,0,1-.47.32,1.5,1.5,0,0,1-.55.11h-75a1.8,1.8,0,0,1-.68-.14,1.84,1.84,0,0,1-.57-.38,1.74,1.74,0,0,1-.52-1.26Z"/><path class="cls-10" d="M988.88,351.41V251.63h7.94a1.5,1.5,0,0,1,.55.11,1.63,1.63,0,0,1,.47.32,1.38,1.38,0,0,1,.31.47,1.46,1.46,0,0,1,.11.55V350a1.51,1.51,0,0,1-.11.56,1.44,1.44,0,0,1-.31.46,1.63,1.63,0,0,1-.47.32,1.5,1.5,0,0,1-.55.11Z"/><path class="cls-7" d="M944.83,372.1V275.88a1.76,1.76,0,0,1,.14-.68,1.88,1.88,0,0,1,.38-.58,1.72,1.72,0,0,1,.58-.38,1.76,1.76,0,0,1,.68-.14h75a1.46,1.46,0,0,1,.55.11,1.38,1.38,0,0,1,.47.31,1.63,1.63,0,0,1,.32.47,1.5,1.5,0,0,1,.11.55v96.89a1.46,1.46,0,0,1-.11.55,1.4,1.4,0,0,1-.32.47,1.25,1.25,0,0,1-.47.31,1.29,1.29,0,0,1-.55.11h-75a1.74,1.74,0,0,1-1.26-.52,1.73,1.73,0,0,1-.38-.57A1.8,1.8,0,0,1,944.83,372.1Z"/><path class="cls-3" d="M1021.58,374.44h-75a2.33,2.33,0,0,1-.9-.18,2.42,2.42,0,0,1-.76-.51,2.19,2.19,0,0,1-.5-.76,2.25,2.25,0,0,1-.18-.89V275.88a2.33,2.33,0,0,1,.18-.9,2.23,2.23,0,0,1,.5-.76,2.42,2.42,0,0,1,.76-.51,2.33,2.33,0,0,1,.9-.18h75a2,2,0,0,1,.77.16,1.8,1.8,0,0,1,.65.43,2,2,0,0,1,.44.66,2,2,0,0,1,.15.76v96.89a2,2,0,0,1-.15.77,1.92,1.92,0,0,1-.44.65,1.83,1.83,0,0,1-.65.44A2,2,0,0,1,1021.58,374.44Zm-75-99.77a1.22,1.22,0,0,0-.46.09,1.16,1.16,0,0,0-.39.26,1.25,1.25,0,0,0-.27.39,1.27,1.27,0,0,0-.09.47V372.1a1.22,1.22,0,0,0,.09.46,1.05,1.05,0,0,0,.27.39,1.19,1.19,0,0,0,.39.27,1.22,1.22,0,0,0,.46.09h75a.8.8,0,0,0,.34-.07.9.9,0,0,0,.47-.47.8.8,0,0,0,.07-.34V275.54a.78.78,0,0,0-.07-.33.91.91,0,0,0-.19-.29.92.92,0,0,0-.28-.19,1,1,0,0,0-.34-.06Z"/><path class="cls-4" d="M976.87,281.59v38.68a1.18,1.18,0,0,0,1.18,1.19h38.27a1.18,1.18,0,0,0,1.17-1.19V281.59a1.18,1.18,0,0,0-1.17-1.17H978.05A1.18,1.18,0,0,0,976.87,281.59Z"/><path class="cls-11" d="M976.87,313v7.25a1.18,1.18,0,0,0,1.18,1.19h19l-.8-8.44-8.94-9.87Z"/><path class="cls-12" d="M982.19,321.46h34.13a1.18,1.18,0,0,0,1.17-1.19V313l-13.36-14Z"/><path class="cls-12" d="M982.24,291.52a4.71,4.71,0,1,0,4.71-4.7A4.71,4.71,0,0,0,982.24,291.52Z"/><path class="cls-4" d="M952.27,330.26v-3.91a.49.49,0,0,1,.16-.37.52.52,0,0,1,.37-.16H1017a.53.53,0,0,1,.38.16.51.51,0,0,1,.15.37v3.91a.51.51,0,0,1-.15.37.49.49,0,0,1-.38.16H952.8a.55.55,0,0,1-.53-.53Z"/><path class="cls-4" d="M952.27,339.51v-3.9a.49.49,0,0,1,.16-.38.51.51,0,0,1,.37-.15H1017a.51.51,0,0,1,.53.53v3.9a.54.54,0,0,1-.15.38.52.52,0,0,1-.38.15H952.8a.51.51,0,0,1-.37-.15A.51.51,0,0,1,952.27,339.51Z"/><path class="cls-4" d="M952.27,321.24v-4.37a.26.26,0,0,1,.09-.21.27.27,0,0,1,.21-.09h19.58a.27.27,0,0,1,.21.09.26.26,0,0,1,.09.21v4.37a.29.29,0,0,1-.09.21.27.27,0,0,1-.21.09H952.57a.27.27,0,0,1-.21-.09A.29.29,0,0,1,952.27,321.24Z"/><path class="cls-4" d="M952.27,312v-4.38a.29.29,0,0,1,.09-.21.3.3,0,0,1,.21-.08h19.58a.3.3,0,0,1,.21.08.29.29,0,0,1,.09.21V312a.29.29,0,0,1-.09.21.3.3,0,0,1-.21.08H952.57a.3.3,0,0,1-.21-.08A.29.29,0,0,1,952.27,312Z"/><path class="cls-4" d="M952.27,302.74v-4.38a.29.29,0,0,1,.09-.21.26.26,0,0,1,.21-.08h19.58a.26.26,0,0,1,.21.08.29.29,0,0,1,.09.21v4.37a.26.26,0,0,1-.09.21.27.27,0,0,1-.21.09H952.57a.27.27,0,0,1-.21-.09A.25.25,0,0,1,952.27,302.74Z"/><path class="cls-4" d="M952.27,293.48v-4.37a.29.29,0,0,1,.09-.21.27.27,0,0,1,.21-.09h19.58a.27.27,0,0,1,.21.09.29.29,0,0,1,.09.21v4.37a.29.29,0,0,1-.09.21.27.27,0,0,1-.21.09H952.57a.27.27,0,0,1-.21-.09A.29.29,0,0,1,952.27,293.48Z"/><path class="cls-4" d="M952.27,284.23v-4.38a.25.25,0,0,1,.09-.2.27.27,0,0,1,.21-.09h19.58a.27.27,0,0,1,.21.09.25.25,0,0,1,.09.2v4.38a.29.29,0,0,1-.09.21.26.26,0,0,1-.21.08H952.57a.26.26,0,0,1-.21-.08A.29.29,0,0,1,952.27,284.23Z"/><path class="cls-4" d="M952.27,348.76v-3.9a.51.51,0,0,1,.16-.38.51.51,0,0,1,.37-.15H1017a.52.52,0,0,1,.38.15.54.54,0,0,1,.15.38v3.9a.54.54,0,0,1-.15.38.52.52,0,0,1-.38.15H952.8a.51.51,0,0,1-.37-.15A.51.51,0,0,1,952.27,348.76Z"/><path class="cls-4" d="M952.27,358v-3.91a.47.47,0,0,1,.16-.37.49.49,0,0,1,.37-.16H1017a.49.49,0,0,1,.38.16.5.5,0,0,1,.15.37V358a.51.51,0,0,1-.15.37.53.53,0,0,1-.38.16H952.8a.52.52,0,0,1-.37-.16A.49.49,0,0,1,952.27,358Z"/><path class="cls-4" d="M952.27,367.27v-3.91a.49.49,0,0,1,.16-.37.52.52,0,0,1,.37-.16H1017a.53.53,0,0,1,.38.16.51.51,0,0,1,.15.37v3.91a.51.51,0,0,1-.15.37.49.49,0,0,1-.38.16H952.8a.55.55,0,0,1-.53-.53Z"/><path class="cls-7" d="M921.67,348.91V254.13a.58.58,0,0,1,.18-.43.61.61,0,0,1,.43-.17h2.25v96h-2.25a.57.57,0,0,1-.43-.17A.58.58,0,0,1,921.67,348.91Z"/><path class="cls-6" d="M14.11,364.68V235.85a1,1,0,0,1,1-1H28.72a1,1,0,0,1,1,1V364.68a1,1,0,0,1-.31.73,1,1,0,0,1-.73.3H15.14a1,1,0,0,1-.73-.3A1,1,0,0,1,14.11,364.68Z"/><path class="cls-3" d="M28.73,366.27H15.14a1.6,1.6,0,0,1-1.13-.46,1.56,1.56,0,0,1-.47-1.13V235.85a1.55,1.55,0,0,1,.47-1.13,1.56,1.56,0,0,1,1.13-.47H28.73a1.53,1.53,0,0,1,1.12.47,1.55,1.55,0,0,1,.47,1.13V364.68a1.59,1.59,0,0,1-1.59,1.59ZM15.14,235.38a.42.42,0,0,0-.33.14.44.44,0,0,0-.13.33V364.68a.46.46,0,0,0,.13.33.44.44,0,0,0,.33.13H28.73a.48.48,0,0,0,.46-.46V235.85a.42.42,0,0,0-.14-.33.4.4,0,0,0-.32-.14Z"/><path class="cls-3" d="M29.75,241.15H24.64a.57.57,0,1,1,0-1.13h5.11a.57.57,0,1,1,0,1.13Z"/><path class="cls-3" d="M29.75,362H24.64a.57.57,0,1,1,0-1.13h5.11a.57.57,0,1,1,0,1.13Z"/><path class="cls-3" d="M29.75,356.47H24.64a.57.57,0,1,1,0-1.13h5.11a.57.57,0,1,1,0,1.13Z"/><path class="cls-3" d="M29.75,351H21.93a.57.57,0,0,1,0-1.13h7.82a.57.57,0,1,1,0,1.13Z"/><path class="cls-3" d="M29.75,345.49H24.64a.57.57,0,0,1,0-1.14h5.11a.57.57,0,1,1,0,1.14Z"/><path class="cls-3" d="M29.75,340H24.64a.57.57,0,0,1,0-1.14h5.11a.57.57,0,1,1,0,1.14Z"/><path class="cls-3" d="M29.75,334.51H21.93a.57.57,0,0,1,0-1.14h7.82a.57.57,0,1,1,0,1.14Z"/><path class="cls-3" d="M29.75,329H24.64a.57.57,0,1,1,0-1.13h5.11a.57.57,0,1,1,0,1.13Z"/><path class="cls-3" d="M29.75,323.52H24.64a.57.57,0,1,1,0-1.13h5.11a.57.57,0,1,1,0,1.13Z"/><path class="cls-3" d="M29.75,318H21.93a.57.57,0,0,1,0-1.13h7.82a.57.57,0,1,1,0,1.13Z"/><path class="cls-3" d="M29.75,312.54H24.64a.57.57,0,1,1,0-1.13h5.11a.57.57,0,1,1,0,1.13Z"/><path class="cls-3" d="M29.75,307.05H24.64a.57.57,0,0,1,0-1.14h5.11a.57.57,0,1,1,0,1.14Z"/><path class="cls-3" d="M29.75,301.56H21.93a.57.57,0,0,1,0-1.14h7.82a.57.57,0,1,1,0,1.14Z"/><path class="cls-3" d="M29.75,296.07H24.64a.57.57,0,0,1,0-1.14h5.11a.57.57,0,1,1,0,1.14Z"/><path class="cls-3" d="M29.75,290.57H24.64a.57.57,0,1,1,0-1.13h5.11a.57.57,0,1,1,0,1.13Z"/><path class="cls-3" d="M29.75,285.08H21.93a.57.57,0,0,1,0-1.13h7.82a.57.57,0,1,1,0,1.13Z"/><path class="cls-3" d="M29.75,279.59H24.64a.57.57,0,1,1,0-1.13h5.11a.57.57,0,1,1,0,1.13Z"/><path class="cls-3" d="M29.75,274.1H24.64a.57.57,0,1,1,0-1.13h5.11a.57.57,0,1,1,0,1.13Z"/><path class="cls-3" d="M29.75,268.61H21.93a.57.57,0,0,1-.56-.57.56.56,0,0,1,.56-.56h7.82a.56.56,0,0,1,.57.56A.57.57,0,0,1,29.75,268.61Z"/><path class="cls-3" d="M29.75,263.12H24.64a.57.57,0,0,1,0-1.14h5.11a.57.57,0,1,1,0,1.14Z"/><path class="cls-3" d="M29.75,257.63H24.64a.57.57,0,0,1,0-1.14h5.11a.57.57,0,1,1,0,1.14Z"/><path class="cls-3" d="M29.75,252.13H21.93a.57.57,0,0,1,0-1.13h7.82a.57.57,0,1,1,0,1.13Z"/><path class="cls-3" d="M29.75,246.64H24.64a.57.57,0,1,1,0-1.13h5.11a.57.57,0,1,1,0,1.13Z"/><path class="cls-3" d="M1000.72,216.5a10.85,10.85,0,1,1,10.85-10.84A10.86,10.86,0,0,1,1000.72,216.5Zm0-20.56a9.72,9.72,0,1,0,9.72,9.72A9.73,9.73,0,0,0,1000.72,195.94Z"/><path class="cls-6" d="M1001.9,211.3a.58.58,0,0,1-.4-.16l-13.23-13.23a.57.57,0,0,1,.8-.8l12.83,12.82,4.72-4.72a.57.57,0,0,1,.8,0,.55.55,0,0,1,0,.8l-5.12,5.13A.59.59,0,0,1,1001.9,211.3Z"/><path class="cls-3" d="M106.49,252.2a10.85,10.85,0,1,1,10.85-10.85A10.86,10.86,0,0,1,106.49,252.2Zm0-20.56a9.72,9.72,0,1,0,9.71,9.71A9.73,9.73,0,0,0,106.49,231.64Z"/><path class="cls-6" d="M107.66,247a.58.58,0,0,1-.4-.17L94,233.6a.55.55,0,0,1,0-.8.57.57,0,0,1,.8,0l12.82,12.83,4.73-4.73a.57.57,0,0,1,.8.8l-5.13,5.13A.56.56,0,0,1,107.66,247Z"/><path class="cls-3" d="M354.67,492.44a5.4,5.4,0,1,1,5.39-5.4A5.4,5.4,0,0,1,354.67,492.44Zm0-9.75A4.35,4.35,0,1,0,359,487,4.36,4.36,0,0,0,354.67,482.69Z"/><path class="cls-3" d="M24.59,189.8a5.69,5.69,0,1,1,5.69-5.69A5.69,5.69,0,0,1,24.59,189.8Zm0-10.33a4.64,4.64,0,1,0,4.64,4.64A4.64,4.64,0,0,0,24.59,179.47Z"/><path class="cls-3" d="M116.08,408.58a6,6,0,0,1-1.11-.11,5,5,0,0,1-1.06-.33,5.19,5.19,0,0,1-1-.52,6.35,6.35,0,0,1-.86-.71,5.26,5.26,0,0,1-.7-.86,5.45,5.45,0,0,1-.85-2.05,5.61,5.61,0,0,1,0-2.21,5.51,5.51,0,0,1,.32-1.07,4.86,4.86,0,0,1,.53-1,5.26,5.26,0,0,1,.7-.86,6.35,6.35,0,0,1,.86-.71,5.87,5.87,0,0,1,1-.53,5.63,5.63,0,0,1,1.06-.32,5.92,5.92,0,0,1,2.22,0,5.73,5.73,0,0,1,1.07.32,6.18,6.18,0,0,1,1,.53,5.32,5.32,0,0,1,.86.71,5.9,5.9,0,0,1,.71.86,5.38,5.38,0,0,1,.52,1,6.33,6.33,0,0,1,.33,1.07,6.16,6.16,0,0,1,0,2.21,6.33,6.33,0,0,1-.33,1.07,6.13,6.13,0,0,1-.52,1,5.9,5.9,0,0,1-.71.86,5.32,5.32,0,0,1-.86.71,5.42,5.42,0,0,1-1,.52,5.28,5.28,0,0,1-1.07.33A5.8,5.8,0,0,1,116.08,408.58Zm0-10.32a4.5,4.5,0,0,0-.9.09,3.79,3.79,0,0,0-.87.26,5.25,5.25,0,0,0-.81.43,5.45,5.45,0,0,0-.7.57,5.62,5.62,0,0,0-.58.71,4.69,4.69,0,0,0-.42.8,4.39,4.39,0,0,0-.27.87,4.6,4.6,0,0,0,0,1.81,4.39,4.39,0,0,0,.27.87,4.69,4.69,0,0,0,.42.8,4.9,4.9,0,0,0,.58.7,4.79,4.79,0,0,0,.7.58,4.47,4.47,0,0,0,.81.43,3.79,3.79,0,0,0,.87.26,4.6,4.6,0,0,0,1.81,0,3.94,3.94,0,0,0,.87-.26,4.73,4.73,0,0,0,.8-.43,4.87,4.87,0,0,0,1.28-1.28,4.73,4.73,0,0,0,.43-.8,5.13,5.13,0,0,0,.26-.87,4.6,4.6,0,0,0,0-1.81,5.13,5.13,0,0,0-.26-.87,4.73,4.73,0,0,0-.43-.8,4.5,4.5,0,0,0-1.28-1.28,4.73,4.73,0,0,0-.8-.43,3.94,3.94,0,0,0-.87-.26A4.68,4.68,0,0,0,116.08,398.26Z"/><path class="cls-3" d="M5.68,425.82a5.22,5.22,0,0,1-1.11-.11,5.63,5.63,0,0,1-1.06-.32,6.13,6.13,0,0,1-1-.52,6.58,6.58,0,0,1-.87-.71,5.84,5.84,0,0,1-.7-.86,5.47,5.47,0,0,1-.53-1,6,6,0,0,1-.32-1.07A5.88,5.88,0,0,1,0,420.14,6,6,0,0,1,.11,419,5.63,5.63,0,0,1,.43,418,5.23,5.23,0,0,1,1,417a5.84,5.84,0,0,1,.7-.86,5.8,5.8,0,0,1,.87-.7,5.45,5.45,0,0,1,2.05-.85,5.48,5.48,0,0,1,2.21,0,6,6,0,0,1,1.07.32,5.47,5.47,0,0,1,1,.53,5.26,5.26,0,0,1,.86.7,5.9,5.9,0,0,1,.71.86,5.19,5.19,0,0,1,.52,1,5,5,0,0,1,.33,1.06,5.66,5.66,0,0,1,0,2.22,5.28,5.28,0,0,1-.33,1.07,5.42,5.42,0,0,1-.52,1,5.86,5.86,0,0,1-1.57,1.57,6.13,6.13,0,0,1-1,.52,6,6,0,0,1-1.07.32A5.1,5.1,0,0,1,5.68,425.82Zm0-10.32a4.58,4.58,0,0,0-.9.09,4.39,4.39,0,0,0-.87.27,4.07,4.07,0,0,0-.8.42,5,5,0,0,0-.71.58,4.84,4.84,0,0,0-.57.7,4.51,4.51,0,0,0-.43.81,4.39,4.39,0,0,0-.27.87,4.5,4.5,0,0,0-.09.9,4.68,4.68,0,0,0,.09.91,4.6,4.6,0,0,0,.27.87,4.42,4.42,0,0,0,.43.8,4.25,4.25,0,0,0,.57.7,4.39,4.39,0,0,0,.71.58,4.73,4.73,0,0,0,.8.43,5.13,5.13,0,0,0,.87.26,4.6,4.6,0,0,0,1.81,0,5.42,5.42,0,0,0,.87-.26,4.73,4.73,0,0,0,.8-.43,4.31,4.31,0,0,0,.7-.58,4.31,4.31,0,0,0,.58-.7,5.15,5.15,0,0,0,.43-.8,4.76,4.76,0,0,0,.35-1.78,4.5,4.5,0,0,0-.09-.9,4.66,4.66,0,0,0-.26-.88,5.65,5.65,0,0,0-.43-.8,4.31,4.31,0,0,0-.58-.7,4.9,4.9,0,0,0-.7-.58,4.73,4.73,0,0,0-.8-.43,5.42,5.42,0,0,0-.87-.26A4.6,4.6,0,0,0,5.68,415.5Z"/><path class="cls-3" d="M834.68,535.88a6,6,0,0,1-1.11-.1,6.51,6.51,0,0,1-1.06-.33,5.38,5.38,0,0,1-1-.52,6.58,6.58,0,0,1-.87-.71,5.26,5.26,0,0,1-.7-.86,5.47,5.47,0,0,1-.53-1,6,6,0,0,1-.32-1.07,5.8,5.8,0,0,1-.11-1.11,6,6,0,0,1,.11-1.11,5.63,5.63,0,0,1,.32-1.06,5.23,5.23,0,0,1,.53-1,6.27,6.27,0,0,1,.7-.86,5.8,5.8,0,0,1,.87-.7,4.86,4.86,0,0,1,1-.53,5.63,5.63,0,0,1,1.06-.32,5.77,5.77,0,0,1,3.29.32,5.47,5.47,0,0,1,1,.53,5.26,5.26,0,0,1,.86.7,7.2,7.2,0,0,1,.71.86,5.83,5.83,0,0,1,.52,1,5.66,5.66,0,0,1,.33,1.06,6,6,0,0,1,.11,1.11,5.8,5.8,0,0,1-.11,1.11,6,6,0,0,1-.33,1.07,6.13,6.13,0,0,1-.52,1,5.86,5.86,0,0,1-1.57,1.57,6.13,6.13,0,0,1-1,.52,6,6,0,0,1-1.07.33A5.8,5.8,0,0,1,834.68,535.88Zm0-10.32a4.58,4.58,0,0,0-.9.09,4.39,4.39,0,0,0-.87.27,4.69,4.69,0,0,0-.8.42,5,5,0,0,0-.71.58,4.33,4.33,0,0,0-.57.71,4.11,4.11,0,0,0-.43.8,4.39,4.39,0,0,0-.27.87,4.5,4.5,0,0,0-.09.9,4.52,4.52,0,0,0,.36,1.78,4.11,4.11,0,0,0,.43.8,4.25,4.25,0,0,0,.57.7,4.39,4.39,0,0,0,.71.58,4.73,4.73,0,0,0,.8.43,5.13,5.13,0,0,0,.87.26,4.6,4.6,0,0,0,1.81,0,5.42,5.42,0,0,0,.87-.26,4.73,4.73,0,0,0,.8-.43,4.87,4.87,0,0,0,1.28-1.28,4.73,4.73,0,0,0,.43-.8,5.42,5.42,0,0,0,.26-.87,4.6,4.6,0,0,0,.09-.91,4.5,4.5,0,0,0-.09-.9,5.13,5.13,0,0,0-.26-.87,5.25,5.25,0,0,0-.43-.81,4.79,4.79,0,0,0-.58-.7,4.9,4.9,0,0,0-.7-.58,4.69,4.69,0,0,0-.8-.42,4.39,4.39,0,0,0-.87-.27A4.6,4.6,0,0,0,834.68,525.56Z"/><path class="cls-3" d="M913.93,424.17a5.69,5.69,0,1,1,5.68-5.69A5.68,5.68,0,0,1,913.93,424.17Zm0-10.32a4.64,4.64,0,1,0,4.64,4.63A4.64,4.64,0,0,0,913.93,413.85Z"/><path class="cls-3" d="M895.72,115a5.22,5.22,0,0,1-1.11-.11,5.63,5.63,0,0,1-1.06-.32,6.13,6.13,0,0,1-1-.52,6.58,6.58,0,0,1-.87-.71,5.26,5.26,0,0,1-.7-.86,6.18,6.18,0,0,1-.53-1,5.51,5.51,0,0,1-.32-1.07,5.66,5.66,0,0,1,0-2.22,5.63,5.63,0,0,1,.32-1.06,5.83,5.83,0,0,1,1.23-1.85,5.8,5.8,0,0,1,.87-.7,5.47,5.47,0,0,1,1-.53,5.63,5.63,0,0,1,1.06-.32,5.53,5.53,0,0,1,2.22,0,6,6,0,0,1,1.07.32,5.47,5.47,0,0,1,1,.53,5.26,5.26,0,0,1,.86.7,5.9,5.9,0,0,1,.71.86,5.83,5.83,0,0,1,.52,1,6.51,6.51,0,0,1,.33,1.06,5.66,5.66,0,0,1,0,2.22,6.33,6.33,0,0,1-.33,1.07,6.13,6.13,0,0,1-.52,1,5.86,5.86,0,0,1-1.57,1.57,6.13,6.13,0,0,1-1,.52,6,6,0,0,1-1.07.32A5.1,5.1,0,0,1,895.72,115Zm0-10.32a4.58,4.58,0,0,0-.9.09,5.13,5.13,0,0,0-.87.26,5.57,5.57,0,0,0-.8.43,5,5,0,0,0-.71.58,4.84,4.84,0,0,0-.57.7,3.92,3.92,0,0,0-.43.81,4.19,4.19,0,0,0-.27.87,4.5,4.5,0,0,0-.09.9,4.68,4.68,0,0,0,.09.91,4.6,4.6,0,0,0,.27.87,4.11,4.11,0,0,0,.43.8,4.25,4.25,0,0,0,.57.7,4.39,4.39,0,0,0,.71.58,4.73,4.73,0,0,0,.8.43,5.13,5.13,0,0,0,.87.26,4.6,4.6,0,0,0,1.81,0,5.42,5.42,0,0,0,.87-.26,4.73,4.73,0,0,0,.8-.43,4.87,4.87,0,0,0,1.28-1.28,4.73,4.73,0,0,0,.43-.8,5.42,5.42,0,0,0,.26-.87,4.68,4.68,0,0,0,.09-.91,4.5,4.5,0,0,0-.09-.9,4.87,4.87,0,0,0-.26-.87,4.47,4.47,0,0,0-.43-.81,4.31,4.31,0,0,0-.58-.7,4.9,4.9,0,0,0-.7-.58,5.57,5.57,0,0,0-.8-.43,5.42,5.42,0,0,0-.87-.26A4.6,4.6,0,0,0,895.72,104.64Z"/><path class="cls-3" d="M453.07,538.69a5.68,5.68,0,1,1,5.69-5.68A5.69,5.69,0,0,1,453.07,538.69Zm0-10.32a4.64,4.64,0,1,0,4.64,4.64A4.64,4.64,0,0,0,453.07,528.37Z"/><path class="cls-3" d="M77.74,487.21a2.87,2.87,0,0,1-1.12-.22,3.15,3.15,0,0,1-1-.63,2.92,2.92,0,0,1-.63-.95,2.94,2.94,0,0,1,0-2.23,2.92,2.92,0,0,1,.63-.95,3,3,0,0,1,1-.63,2.9,2.9,0,0,1,2.24,0,2.83,2.83,0,0,1,.94.63,2.8,2.8,0,0,1,.64.95,2.94,2.94,0,0,1,0,2.23,2.8,2.8,0,0,1-.64.95,3,3,0,0,1-.94.63A2.9,2.9,0,0,1,77.74,487.21Zm0-4.79a2,2,0,0,0-.72.14,1.93,1.93,0,0,0-.61.41,1.9,1.9,0,0,0-.4.61A1.78,1.78,0,0,0,76,485a1.9,1.9,0,0,0,.4.61A1.93,1.93,0,0,0,77,486a1.89,1.89,0,0,0,1.44,0,1.94,1.94,0,0,0,1-1,1.9,1.9,0,0,0,0-1.43,1.9,1.9,0,0,0-.4-.61,1.93,1.93,0,0,0-.61-.41A2,2,0,0,0,77.74,482.42Z"/><path class="cls-3" d="M110.34,333.22H89.13a.57.57,0,0,1,0-1.14h21.21a.57.57,0,1,1,0,1.14Z"/><path class="cls-3" d="M99.73,343.82a.56.56,0,0,1-.56-.56V322a.57.57,0,0,1,1.13,0v21.22A.56.56,0,0,1,99.73,343.82Z"/><path class="cls-3" d="M1006.23,401.59H985a.57.57,0,0,1,0-1.13h21.22a.57.57,0,0,1,0,1.13Z"/><path class="cls-3" d="M995.62,412.2a.57.57,0,0,1-.57-.57V390.42a.58.58,0,0,1,.57-.57.57.57,0,0,1,.56.57v21.21A.56.56,0,0,1,995.62,412.2Z"/><path class="cls-3" d="M970.66,520.78H958.91a.57.57,0,1,1,0-1.13h11.75a.57.57,0,0,1,0,1.13Z"/><path class="cls-3" d="M964.78,526.66a.58.58,0,0,1-.57-.57V514.34a.57.57,0,1,1,1.14,0v11.75A.58.58,0,0,1,964.78,526.66Z"/><path class="cls-3" d="M187,159.05H175.29a.57.57,0,0,1,0-1.14H187a.57.57,0,0,1,0,1.14Z"/><path class="cls-3" d="M181.16,164.92a.56.56,0,0,1-.56-.56V152.61a.57.57,0,1,1,1.13,0v11.75A.56.56,0,0,1,181.16,164.92Z"/><path class="cls-3" d="M314,524.22H302.27a.57.57,0,0,1,0-1.14H314a.57.57,0,0,1,0,1.14Z"/><path class="cls-3" d="M308.15,530.09a.57.57,0,0,1-.57-.57V517.77a.57.57,0,0,1,1.14,0v11.75A.57.57,0,0,1,308.15,530.09Z"/><path class="cls-3" d="M218.1,559.73a.57.57,0,0,1-.57-.56V538a.57.57,0,0,1,1.14,0v21.22A.57.57,0,0,1,218.1,559.73Z"/><path class="cls-3" d="M770.92,414.09H749.71a.57.57,0,0,1,0-1.14h21.21a.57.57,0,1,1,0,1.14Z"/><path class="cls-3" d="M760.32,424.69a.56.56,0,0,1-.57-.56V402.91a.57.57,0,0,1,1.13,0v21.22A.56.56,0,0,1,760.32,424.69Z"/><path class="cls-6" d="M680.71,516.88a9.8,9.8,0,1,0,9.8-9.8A9.8,9.8,0,0,0,680.71,516.88Z"/><path class="cls-2" d="M80.14,504.43a9.8,9.8,0,1,0,9.8-9.8A9.8,9.8,0,0,0,80.14,504.43Z"/><path class="cls-2" d="M58.14,281.25a9.8,9.8,0,1,0,9.8-9.8A9.8,9.8,0,0,0,58.14,281.25Z"/></g></g></svg>