<svg id="Layer_1" data-name="Layer 1" xmlns="http://www.w3.org/2000/svg" viewBox="0 0 200 35"><defs><style>.cls-1,.cls-4{fill:#fa9008;}.cls-2,.cls-3,.cls-4{isolation:isolate;}.cls-3,.cls-4{font-size:32.18px;}.cls-3{fill:#374562;font-family:AvantGardeExtLitITCTT, AvantGardeExtLitITCTT;}.cls-4{font-family:AvantGardeITCTTDemi, AvantGardeITCTT;}</style></defs><title>logo.svg</title><g id="Artboard_1" data-name="Artboard 1"><g id="Logo"><g id="cargo_logo_new_2" data-name="cargo logo new 2"><g id="Group_139" data-name="Group 139"><g id="Group_138" data-name="Group 138"><g id="Group_137" data-name="Group 137"><g id="Group_136" data-name="Group 136"><g id="Group_135" data-name="Group 135"><g id="Group_131" data-name="Group 131"><path id="Path_191" data-name="Path 191" class="cls-1" d="M30.92,28.75a2.17,2.17,0,0,1-1.85,2.46l-.35,0A2.84,2.84,0,0,1,26,28.75a2.17,2.17,0,0,1,1.85-2.46l.35,0A2.84,2.84,0,0,1,30.92,28.75Z"/></g><g id="Group_132" data-name="Group 132"><path id="Path_192" data-name="Path 192" class="cls-1" d="M13,28.75a2.17,2.17,0,0,1-1.85,2.46l-.35,0A2.84,2.84,0,0,1,8,28.75,2.17,2.17,0,0,1,9.9,26.3l.35,0A2.84,2.84,0,0,1,13,28.75Z"/></g><g id="Group_134" data-name="Group 134"><g id="Group_133" data-name="Group 133"><path id="Path_193" data-name="Path 193" class="cls-1" d="M37.61,22.49h-9a.88.88,0,1,1,0-1.76h3.9l-.14-1.23h2.51a.78.78,0,0,0,0-1.55l-10.09-.06A.88.88,0,0,1,23.9,17V17a.88.88,0,0,1,.88-.88H32l-.11-1h.92a.78.78,0,0,0,0-1.55H23.65a.88.88,0,0,1-.88-.88h0v0a.88.88,0,0,1,.88-.88H31.5l-.11-1a1.17,1.17,0,0,0-1.13-1H14.91a.89.89,0,0,0-.9,1l1.6,14.46H14.9L13.41,11.73H12l-.52.63-2.92,0a5.77,5.77,0,0,0-5.19,2.89l-1.47,2.6a7,7,0,0,0-.68,4l.43,3.62a1.11,1.11,0,0,0-.53,1.42l.31.87a1,1,0,0,0,.9.64h4a.75.75,0,0,0,.72-.48L7.41,27a2.77,2.77,0,0,1,2.65-1.77,3.64,3.64,0,0,1,3.21,2.09l.27.55a1,1,0,0,0,.86.56H25.32c0-.11,0-.21,0-.31a2.47,2.47,0,0,1,2.43-2.52h.57a3.25,3.25,0,0,1,3.15,2.83h.86a.89.89,0,0,0,.91-1L32.85,24H37.6a.78.78,0,0,0,0-1.55Zm-25.78-4.4L4.65,19.67a.72.72,0,0,1-.8-1l1.38-2.85a2.46,2.46,0,0,1,2.13-1.37l3.81-.19a1,1,0,0,1,1,.86l.23,2.09A.76.76,0,0,1,11.83,18.09Zm9.68-2.37h-1a.8.8,0,0,1,0-1.61h1a.8.8,0,1,1,0,1.61Zm3.64,4.94h-1a.8.8,0,0,1,0-1.61h1a.8.8,0,0,1,0,1.61Z"/></g></g></g><path id="Path_194" data-name="Path 194" class="cls-1" d="M34.67,13.1h-1a.8.8,0,0,1-.8-.8h0a.8.8,0,0,1,.8-.8h1a.8.8,0,0,1,.8.8h0A.8.8,0,0,1,34.67,13.1Z"/><path id="Path_195" data-name="Path 195" class="cls-1" d="M36.4,16.92h-1a.8.8,0,0,1-.8-.8h0a.8.8,0,0,1,.8-.8h1a.8.8,0,0,1,.8.8h0A.8.8,0,0,1,36.4,16.92Z"/><path id="Path_196" data-name="Path 196" class="cls-1" d="M35.09,21.9h-1a.8.8,0,0,1-.8-.8h0a.8.8,0,0,1,.8-.8h1a.8.8,0,0,1,.8.8h0a.8.8,0,0,1-.8.8Z"/><path id="Path_197" data-name="Path 197" class="cls-1" d="M39.53,21.9h-1a.8.8,0,0,1-.8-.8h0a.8.8,0,0,1,.8-.8h1a.8.8,0,0,1,.8.8h0A.8.8,0,0,1,39.53,21.9Z"/><path id="Path_198" data-name="Path 198" class="cls-1" d="M40.84,18.77h-1A.8.8,0,0,1,39,18h0a.8.8,0,0,1,.8-.8h1a.8.8,0,0,1,.8.8h0A.8.8,0,0,1,40.84,18.77Z"/><path id="Path_199" data-name="Path 199" class="cls-1" d="M36,26.28H35a.8.8,0,0,1-.8-.8h0a.8.8,0,0,1,.8-.8h1a.8.8,0,0,1,.8.8h0A.8.8,0,0,1,36,26.28Z"/></g></g></g></g></g><g id="Group_148" data-name="Group 148"><g id="ezeecargo" class="cls-2"><text class="cls-3" transform="translate(47.12 27.04)">ezee</text><text class="cls-4" transform="translate(113.24 27.04)">cargo</text></g></g></g></g></svg>