<svg xmlns="http://www.w3.org/2000/svg" xmlns:xlink="http://www.w3.org/1999/xlink" viewBox="0 0 120 70"><defs><style>.cls-1{isolation:isolate;}.cls-2{fill:#92b3d0;opacity:0.2;}.cls-3{fill:#1f376b;}.cls-4{fill:#0d4d92;}.cls-13,.cls-16,.cls-5{fill:#2673ab;}.cls-26,.cls-6{fill:#a8cdec;}.cls-7{fill:#acd0ee;}.cls-19,.cls-8{fill:#d0e8f8;}.cls-17,.cls-22,.cls-9{fill:#4191ce;}.cls-10,.cls-11{fill:#76b4e2;}.cls-11,.cls-21{opacity:0.7;}.cls-12,.cls-18,.cls-20,.cls-21,.cls-23{fill:#fff;}.cls-13,.cls-14,.cls-20{opacity:0.3;}.cls-15{fill:#0f1c44;}.cls-16,.cls-17,.cls-18,.cls-19{opacity:0.5;}.cls-22,.cls-26,.cls-27,.cls-29,.cls-32{mix-blend-mode:multiply;}.cls-23{mix-blend-mode:color-dodge;}.cls-24{fill:#ffcc05;}.cls-25{fill:#ffdd0f;}.cls-28,.cls-32{fill:#d72d6a;}.cls-29{fill:url(#radial-gradient);}.cls-30{fill:#ef6194;}.cls-31{fill:#ea4680;}.cls-33{fill:#231f20;}</style><radialGradient id="radial-gradient" cx="-446.97" cy="-2080.27" r="3.69" gradientTransform="matrix(0.87, 0.5, -0.86, 0.5, -1286.32, 1283.95)" gradientUnits="userSpaceOnUse"><stop offset="0.06" stop-color="#91a2af"/><stop offset="1" stop-color="#fff"/></radialGradient></defs><g class="cls-1"><g id="Layer_1" data-name="Layer 1"><path class="cls-2" d="M45.75,68.67,35.51,62.79c-.88-.51-.77-1.39.25-2L102,22.93a3.79,3.79,0,0,1,3.43-.14l10.23,5.88c.88.51.77,1.4-.24,2L49.17,68.53A3.77,3.77,0,0,1,45.75,68.67Z"/><polygon class="cls-3" points="86.53 39.36 86.53 42.29 110.51 28.45 110.51 25.52 86.53 39.36"/><polygon class="cls-4" points="86.53 39.36 86.53 42.29 75.48 35.96 75.48 33.03 86.53 39.36"/><polygon class="cls-4" points="75.48 33.03 86.53 39.36 110.51 25.52 99.44 19.19 75.48 33.03"/><polygon class="cls-3" points="115.24 22.19 115.24 27.32 115.74 26.92 115.74 21.8 115.24 22.19"/><polygon class="cls-4" points="115.24 22.19 115.24 27.32 103.01 20.45 103.01 15.31 115.24 22.19"/><polygon class="cls-5" points="103.01 15.31 115.24 22.19 115.74 21.8 103.51 14.93 103.01 15.31"/><path class="cls-6" d="M55.91,50.16l.31.15v1.62l-.83-.31a2.17,2.17,0,0,1-1.41-2V41.67a1.64,1.64,0,0,1,1.64,0v8A.5.5,0,0,0,55.91,50.16Z"/><path class="cls-7" d="M56.09,38.86H53.5V49.94h0c0,.41.58.75,1.3.75s1.29-.34,1.29-.75h0Z"/><path class="cls-8" d="M56.09,38.86c0,.42-.58.76-1.29.76s-1.3-.34-1.3-.76.58-.75,1.3-.75S56.09,38.45,56.09,38.86Z"/><path class="cls-9" d="M55.89,38.86c0,.35-.49.64-1.09.64s-1.09-.29-1.09-.64.49-.63,1.09-.63S55.89,38.51,55.89,38.86Z"/><path class="cls-6" d="M55.91,30.79l.31-.15V29l-.83.31a2.17,2.17,0,0,0-1.41,2v7.91a1.64,1.64,0,0,0,1.64,0v-8A.5.5,0,0,1,55.91,30.79Z"/><path class="cls-9" d="M43.49,43.21c.93,0,1.68.45,1.68,1a.07.07,0,0,1-.07.08.07.07,0,0,1-.08-.08c0-.47-.69-.86-1.53-.86s-1.54.39-1.54.86a.07.07,0,0,1-.08.08.07.07,0,0,1-.07-.08C41.8,43.66,42.55,43.21,43.49,43.21Z"/><path class="cls-9" d="M43.49,44.73c.93,0,1.68.45,1.68,1a.08.08,0,0,1-.07.08.08.08,0,0,1-.08-.08c0-.47-.69-.86-1.53-.86s-1.54.39-1.54.86a.08.08,0,0,1-.08.08.08.08,0,0,1-.07-.08C41.8,45.18,42.55,44.73,43.49,44.73Z"/><path class="cls-9" d="M43.49,46.22c.93,0,1.68.45,1.68,1a.07.07,0,0,1-.07.08.07.07,0,0,1-.08-.08c0-.47-.69-.86-1.53-.86s-1.54.39-1.54.86a.07.07,0,0,1-.08.08.07.07,0,0,1-.07-.08C41.8,46.67,42.55,46.22,43.49,46.22Z"/><path class="cls-9" d="M43.49,47.7c.93,0,1.68.46,1.68,1a.07.07,0,0,1-.07.07.07.07,0,0,1-.08-.07c0-.48-.69-.87-1.53-.87s-1.54.39-1.54.87a.07.07,0,0,1-.08.07.07.07,0,0,1-.07-.07C41.8,48.16,42.55,47.7,43.49,47.7Z"/><path class="cls-5" d="M45,43.91H42V49.3h0c0,.5.69.9,1.54.9s1.53-.4,1.53-.9h0Z"/><path class="cls-9" d="M45,43.92c0,.49-.69.9-1.53.9S42,44.41,42,43.92s.69-.9,1.54-.9S45,43.43,45,43.92Z"/><path class="cls-10" d="M43.49,44.74c-.83,0-1.5-.38-1.54-.86v0c0,.49.69.9,1.54.9s1.53-.41,1.53-.9v0C45,44.36,44.31,44.74,43.49,44.74Z"/><path class="cls-4" d="M43.49,49.81c-.94,0-1.69-.45-1.69-1a.08.08,0,0,1,.07-.08.08.08,0,0,1,.08.08c0,.48.69.86,1.54.86S45,49.28,45,48.8a.08.08,0,0,1,.08-.08.08.08,0,0,1,.07.08C45.17,49.36,44.42,49.81,43.49,49.81Z"/><path class="cls-9" d="M43.49,49.72c-.94,0-1.69-.46-1.69-1a.07.07,0,0,1,.07-.07.07.07,0,0,1,.08.07c0,.48.69.87,1.54.87S45,49.18,45,48.7a.07.07,0,0,1,.08-.07.07.07,0,0,1,.07.07C45.17,49.26,44.42,49.72,43.49,49.72Z"/><path class="cls-4" d="M43.49,48.3c-.94,0-1.69-.46-1.69-1a.07.07,0,0,1,.07-.07.07.07,0,0,1,.08.07c0,.48.69.86,1.54.86S45,47.76,45,47.28a.07.07,0,0,1,.08-.07.07.07,0,0,1,.07.07C45.17,47.84,44.42,48.3,43.49,48.3Z"/><path class="cls-9" d="M43.49,48.2c-.94,0-1.69-.45-1.69-1a.07.07,0,0,1,.07-.08.07.07,0,0,1,.08.08c0,.47.69.86,1.54.86S45,47.66,45,47.19a.07.07,0,0,1,.08-.08.07.07,0,0,1,.07.08C45.17,47.75,44.42,48.2,43.49,48.2Z"/><path class="cls-4" d="M43.49,46.8c-.94,0-1.69-.45-1.69-1a.08.08,0,0,1,.07-.08.08.08,0,0,1,.08.08c0,.48.69.86,1.54.86S45,46.27,45,45.79a.08.08,0,0,1,.08-.08.08.08,0,0,1,.07.08C45.17,46.35,44.42,46.8,43.49,46.8Z"/><path class="cls-9" d="M43.49,46.71c-.94,0-1.69-.46-1.69-1a.07.07,0,0,1,.07-.07.07.07,0,0,1,.08.07c0,.48.69.87,1.54.87S45,46.17,45,45.69a.07.07,0,0,1,.08-.07.07.07,0,0,1,.07.07C45.17,46.25,44.42,46.71,43.49,46.71Z"/><path class="cls-4" d="M43.49,45.32c-.94,0-1.69-.45-1.69-1a.08.08,0,0,1,.07-.08.08.08,0,0,1,.08.08c0,.47.69.86,1.54.86S45,44.78,45,44.31a.08.08,0,0,1,.08-.08.08.08,0,0,1,.07.08C45.17,44.87,44.42,45.32,43.49,45.32Z"/><path class="cls-9" d="M43.49,45.23c-.94,0-1.69-.46-1.69-1a.07.07,0,0,1,.07-.07.07.07,0,0,1,.08.07c0,.48.69.86,1.54.86S45,44.69,45,44.21a.07.07,0,0,1,.08-.07.07.07,0,0,1,.07.07C45.17,44.77,44.42,45.23,43.49,45.23Z"/><path class="cls-3" d="M115.36,26.48l-3.06-1.9a2.93,2.93,0,0,1,2.18,0A2.22,2.22,0,0,1,115.36,26.48Z"/><path class="cls-4" d="M107.58,29.76a2.06,2.06,0,0,0,.81,1.85s1.6.93,1.62.93c.53.3.19-.37,1-.83a6.42,6.42,0,0,0,2.91-5c0-.91.85-.92.33-1.22l-1.71-.95a2.06,2.06,0,0,0-2,.22A6.42,6.42,0,0,0,107.58,29.76Z"/><ellipse class="cls-3" cx="112.18" cy="29.03" rx="4.11" ry="2.37" transform="matrix(0.5, -0.86, 0.86, 0.5, 30.5, 111.23)"/><path class="cls-5" d="M112,25.62a2.06,2.06,0,0,1,2-.24,2.26,2.26,0,0,0-1.74.34,6.42,6.42,0,0,0-2.91,5,2,2,0,0,0,.92,1.9,1.87,1.87,0,0,1-1.18-2A6.43,6.43,0,0,1,112,25.62Z"/><path class="cls-9" d="M108.53,30.48A7.61,7.61,0,0,1,112,24.54a2.32,2.32,0,0,1,2.61-.13.48.48,0,0,0-.18-.14l-2-1.12a2.45,2.45,0,0,0-2.41.26,7.6,7.6,0,0,0-3.44,5.94Z"/><path class="cls-10" d="M108.37,30.4a7.6,7.6,0,0,1,3.44-5.94,2.48,2.48,0,0,1,2.36-.29,2.7,2.7,0,0,0-2.06.41,7.6,7.6,0,0,0-3.44,5.8Z"/><path class="cls-6" d="M112.2,27a4.15,4.15,0,0,0-1.88,3.25c0,1.19.84,1.67,1.88,1.07a4.16,4.16,0,0,0,1.89-3.25C114.09,26.9,113.24,26.42,112.2,27Z"/><path class="cls-10" d="M113.42,26.84a1.36,1.36,0,0,1,.46,1.13A4.15,4.15,0,0,1,112,31.22a1.39,1.39,0,0,1-1.21.19,1.26,1.26,0,0,0,1.42-.07,4.16,4.16,0,0,0,1.89-3.25A1.22,1.22,0,0,0,113.42,26.84Z"/><path class="cls-9" d="M111,29.68c0,.62.44.87,1,.56a2.15,2.15,0,0,0,1-1.7c0-.62-.44-.87-1-.56A2.16,2.16,0,0,0,111,29.68Z"/><path class="cls-5" d="M111.15,29.78c0,.62.44.87,1,.56a2.19,2.19,0,0,0,1-1.7c0-.62-.44-.88-1-.56A2.15,2.15,0,0,0,111.15,29.78Z"/><path class="cls-5" d="M109,30.19a7.11,7.11,0,0,1,3.2-5.32c1.7-1,3.1-.26,3.2,1.61l.06,0c0-2.13-1.56-3-3.44-1.9a7.58,7.58,0,0,0-3.44,5.9Z"/><path class="cls-3" d="M107.38,31l-3.06-1.9a2.93,2.93,0,0,1,2.18,0A2.22,2.22,0,0,1,107.38,31Z"/><path class="cls-4" d="M99.6,34.26a2.06,2.06,0,0,0,.81,1.85l1.62.94c.52.29.19-.38,1-.84a6.42,6.42,0,0,0,2.91-5c0-.91.85-.92.33-1.22L104.54,29a2.07,2.07,0,0,0-2,.22A6.42,6.42,0,0,0,99.6,34.26Z"/><ellipse class="cls-3" cx="104.2" cy="33.54" rx="4.11" ry="2.37" transform="translate(22.66 106.57) rotate(-59.69)"/><path class="cls-5" d="M104.06,30.12a2.11,2.11,0,0,1,2-.24,2.26,2.26,0,0,0-1.74.34,6.42,6.42,0,0,0-2.91,5,2,2,0,0,0,.92,1.9c-.72-.19-1.18-.9-1.18-2A6.43,6.43,0,0,1,104.06,30.12Z"/><path class="cls-9" d="M100.55,35A7.57,7.57,0,0,1,104,29.05a2.3,2.3,0,0,1,2.61-.13.41.41,0,0,0-.18-.15l-2-1.12a2.45,2.45,0,0,0-2.41.26,7.6,7.6,0,0,0-3.44,5.94Z"/><path class="cls-10" d="M100.39,34.9A7.6,7.6,0,0,1,103.83,29a2.53,2.53,0,0,1,2.36-.29,2.7,2.7,0,0,0-2.06.41,7.6,7.6,0,0,0-3.44,5.8Z"/><path class="cls-6" d="M104.22,31.52a4.15,4.15,0,0,0-1.88,3.25c0,1.19.84,1.67,1.88,1.07a4.15,4.15,0,0,0,1.89-3.25C106.11,31.4,105.26,30.92,104.22,31.52Z"/><path class="cls-10" d="M105.44,31.34a1.37,1.37,0,0,1,.46,1.14A4.16,4.16,0,0,1,104,35.73a1.41,1.41,0,0,1-1.21.18,1.26,1.26,0,0,0,1.42-.07,4.15,4.15,0,0,0,1.89-3.25A1.24,1.24,0,0,0,105.44,31.34Z"/><path class="cls-9" d="M103,34.18c0,.62.44.88,1,.56a2.15,2.15,0,0,0,1-1.7c0-.62-.44-.87-1-.56A2.19,2.19,0,0,0,103,34.18Z"/><path class="cls-5" d="M103.17,34.28c0,.62.44.87,1,.56a2.16,2.16,0,0,0,1-1.7c0-.62-.44-.87-1-.56A2.15,2.15,0,0,0,103.17,34.28Z"/><path class="cls-5" d="M101,34.7a7.12,7.12,0,0,1,3.2-5.33c1.7-1,3.1-.26,3.2,1.61l.06,0c0-2.14-1.56-3-3.44-1.9a7.6,7.6,0,0,0-3.45,5.89Z"/><polygon class="cls-9" points="87.18 42.51 87.76 42.85 97.13 37.45 96.55 37.12 87.18 42.51"/><polygon class="cls-5" points="97.14 34.02 97.14 37.46 96.55 37.12 96.55 33.66 97.14 34.02"/><path class="cls-4" d="M86.91,39.46v4.89L98,37.92V33.07Zm10.22-2-9.36,5.43V40l9.36-5.39Z"/><polygon class="cls-5" points="86.91 39.46 86.91 44.35 86.19 43.98 86.19 39.06 86.91 39.46"/><polygon class="cls-9" points="86.19 39.06 86.91 39.46 98 33.07 97.26 32.68 86.19 39.06"/><polygon class="cls-3" points="68.58 49.24 68.58 52.17 78.29 46.55 78.29 43.62 68.58 49.24"/><polygon class="cls-4" points="68.59 49.24 68.59 52.17 57.53 45.84 57.53 42.92 68.59 49.24"/><polygon class="cls-4" points="57.53 42.92 68.59 49.24 78.29 43.62 67.23 37.3 57.53 42.92"/><polygon class="cls-9" points="44.65 55.08 44.65 57.31 42.12 55.89 42.23 53.67 44.65 55.08"/><polygon class="cls-8" points="37.98 62.16 37.98 58.93 40.08 55.31 43.04 53.6 40.87 52.38 37.9 54.09 35.8 57.72 35.8 60.95 37.98 62.16"/><polygon class="cls-11" points="37.98 62.16 37.98 58.93 35.8 57.72 35.8 60.95 37.98 62.16"/><polygon class="cls-6" points="37.98 58.93 40.08 55.31 37.9 54.09 35.8 57.72 37.98 58.93"/><polygon class="cls-10" points="38.47 61.89 38.47 59.06 40.44 55.67 43.05 54.16 44.65 55.08 44.65 57.31 45.15 57.02 45.15 54.79 43.05 53.59 40.08 55.31 37.98 58.93 37.98 62.18 38.47 61.89"/><polygon class="cls-12" points="37.9 54.09 40.08 55.31 43.05 53.59 40.08 55.2 37.9 54.09"/><path class="cls-3" d="M82.12,45.43l-3.06-1.91a3,3,0,0,1,2.18,0A2.22,2.22,0,0,1,82.12,45.43Z"/><path class="cls-4" d="M74.34,48.71a2,2,0,0,0,.82,1.85l1.61.93c.53.3.19-.37,1-.83a6.43,6.43,0,0,0,2.92-5c0-.91.84-.92.32-1.23l-1.71-.94a2.06,2.06,0,0,0-2,.22A6.42,6.42,0,0,0,74.34,48.71Z"/><ellipse class="cls-3" cx="78.94" cy="47.98" rx="4.11" ry="2.37" transform="translate(-2.32 91.92) rotate(-59.69)"/><path class="cls-5" d="M78.8,44.57a2.11,2.11,0,0,1,2-.25,2.34,2.34,0,0,0-1.75.35,6.42,6.42,0,0,0-2.91,5,2,2,0,0,0,.92,1.91,1.86,1.86,0,0,1-1.17-2A6.42,6.42,0,0,1,78.8,44.57Z"/><path class="cls-9" d="M75.3,49.43a7.6,7.6,0,0,1,3.44-5.94,2.32,2.32,0,0,1,2.61-.13.48.48,0,0,0-.18-.14l-2-1.13a2.47,2.47,0,0,0-2.4.27A7.58,7.58,0,0,0,73.3,48.3Z"/><path class="cls-10" d="M75.13,49.35a7.6,7.6,0,0,1,3.44-5.94,2.48,2.48,0,0,1,2.36-.29,2.74,2.74,0,0,0-2.06.4,7.63,7.63,0,0,0-3.44,5.8Z"/><path class="cls-6" d="M79,46a4.17,4.17,0,0,0-1.88,3.25c0,1.19.85,1.67,1.88,1.07A4.16,4.16,0,0,0,80.85,47C80.85,45.85,80,45.37,79,46Z"/><path class="cls-10" d="M80.18,45.78a1.37,1.37,0,0,1,.46,1.14,4.15,4.15,0,0,1-1.88,3.25,1.41,1.41,0,0,1-1.22.19A1.26,1.26,0,0,0,79,50.29,4.16,4.16,0,0,0,80.85,47,1.24,1.24,0,0,0,80.18,45.78Z"/><path class="cls-9" d="M77.75,48.63c0,.62.44.87,1,.56a2.19,2.19,0,0,0,1-1.7c0-.62-.44-.87-1-.56A2.15,2.15,0,0,0,77.75,48.63Z"/><ellipse class="cls-5" cx="78.9" cy="48.16" rx="1.39" ry="0.8" transform="translate(-2.49 91.97) rotate(-59.69)"/><path class="cls-5" d="M75.72,49.14a7.11,7.11,0,0,1,3.2-5.32c1.71-1,3.1-.26,3.2,1.61l.06,0c0-2.13-1.56-3-3.44-1.9a7.59,7.59,0,0,0-3.44,5.9Z"/><polygon class="cls-4" points="115.74 7.26 115.74 21.22 74.15 45.41 74.15 31.4 115.74 7.26"/><polygon class="cls-13" points="115.08 8.4 74.81 31.78 74.81 44.27 115.08 20.84 115.08 8.4"/><polygon class="cls-3" points="114.67 20.68 114.67 8.64 115.08 8.4 115.08 20.84 74.81 44.27 74.81 43.85 114.67 20.68"/><polygon class="cls-5" points="74.16 31.4 74.16 45.41 62.75 38.91 62.75 24.88 74.16 31.4"/><polygon class="cls-9" points="62.75 24.88 74.16 31.4 115.74 7.26 104.32 0.75 62.75 24.88"/><polygon class="cls-10" points="62.75 24.88 74.16 31.4 115.74 7.26 74.24 31.15 62.75 24.88"/><g class="cls-14"><polygon class="cls-3" points="75.9 31.44 75.72 31.55 75.72 43.31 75.9 43.2 75.9 31.44"/><polygon class="cls-3" points="77.53 30.5 77.35 30.61 77.35 42.37 77.53 42.26 77.53 30.5"/><polygon class="cls-3" points="79.16 29.55 78.97 29.66 78.97 41.43 79.16 41.31 79.16 29.55"/><polygon class="cls-3" points="80.79 28.61 80.6 28.72 80.6 40.48 80.79 40.37 80.79 28.61"/><polygon class="cls-3" points="82.41 27.67 82.23 27.78 82.23 39.54 82.41 39.43 82.41 27.67"/><polygon class="cls-3" points="84.04 26.72 83.86 26.84 83.86 38.6 84.04 38.48 84.04 26.72"/><polygon class="cls-3" points="85.67 25.78 85.48 25.89 85.48 37.65 85.67 37.54 85.67 25.78"/><polygon class="cls-3" points="87.3 24.84 87.11 24.95 87.11 36.71 87.3 36.6 87.3 24.84"/><polygon class="cls-3" points="88.92 23.89 88.74 24.01 88.74 35.77 88.92 35.66 88.92 23.89"/><polygon class="cls-3" points="90.55 22.95 90.37 23.06 90.37 34.82 90.55 34.71 90.55 22.95"/><polygon class="cls-3" points="92.18 22.01 91.99 22.12 91.99 33.88 92.18 33.77 92.18 22.01"/><polygon class="cls-3" points="93.81 21.06 93.62 21.18 93.62 32.94 93.81 32.83 93.81 21.06"/><polygon class="cls-3" points="95.43 20.12 95.25 20.23 95.25 32 95.43 31.88 95.43 20.12"/><polygon class="cls-3" points="97.06 19.18 96.88 19.29 96.88 31.05 97.06 30.94 97.06 19.18"/><polygon class="cls-3" points="98.69 18.23 98.5 18.35 98.5 30.11 98.69 30 98.69 18.23"/><polygon class="cls-3" points="100.31 17.29 100.13 17.4 100.13 29.16 100.31 29.05 100.31 17.29"/><polygon class="cls-3" points="101.94 16.35 101.76 16.46 101.76 28.22 101.94 28.11 101.94 16.35"/><polygon class="cls-3" points="103.57 15.4 103.39 15.52 103.39 27.28 103.57 27.16 103.57 15.4"/><polygon class="cls-3" points="105.2 14.46 105.01 14.57 105.01 26.34 105.2 26.22 105.2 14.46"/><polygon class="cls-3" points="106.82 13.52 106.64 13.63 106.64 25.39 106.82 25.28 106.82 13.52"/><polygon class="cls-3" points="108.45 12.57 108.27 12.69 108.27 24.45 108.45 24.34 108.45 12.57"/><polygon class="cls-3" points="110.08 11.63 109.89 11.74 109.89 23.5 110.08 23.39 110.08 11.63"/><polygon class="cls-3" points="111.7 10.69 111.52 10.8 111.52 22.56 111.7 22.45 111.7 10.69"/><polygon class="cls-3" points="113.33 9.74 113.15 9.86 113.15 21.62 113.33 21.5 113.33 9.74"/></g><g class="cls-14"><polygon class="cls-9" points="76.09 31.19 75.91 31.3 75.91 43.07 76.09 42.95 76.09 31.19"/><polygon class="cls-9" points="77.72 30.25 77.54 30.36 77.54 42.12 77.72 42.01 77.72 30.25"/><polygon class="cls-9" points="79.35 29.3 79.17 29.42 79.17 41.18 79.35 41.07 79.35 29.3"/><polygon class="cls-9" points="80.98 28.36 80.79 28.48 80.79 40.24 80.98 40.12 80.98 28.36"/><polygon class="cls-9" points="82.6 27.42 82.42 27.53 82.42 39.29 82.6 39.18 82.6 27.42"/><polygon class="cls-9" points="84.23 26.48 84.05 26.59 84.05 38.35 84.23 38.24 84.23 26.48"/><polygon class="cls-9" points="85.86 25.53 85.67 25.64 85.67 37.41 85.86 37.29 85.86 25.53"/><polygon class="cls-9" points="87.48 24.59 87.3 24.7 87.3 36.46 87.48 36.35 87.48 24.59"/><polygon class="cls-9" points="89.11 23.64 88.93 23.76 88.93 35.52 89.11 35.41 89.11 23.64"/><polygon class="cls-9" points="90.74 22.7 90.56 22.82 90.56 34.58 90.74 34.46 90.74 22.7"/><polygon class="cls-9" points="92.37 21.76 92.18 21.87 92.18 33.63 92.37 33.52 92.37 21.76"/><polygon class="cls-9" points="94 20.82 93.81 20.93 93.81 32.69 94 32.58 94 20.82"/><polygon class="cls-9" points="95.62 19.87 95.44 19.98 95.44 31.75 95.62 31.63 95.62 19.87"/><polygon class="cls-9" points="97.25 18.93 97.06 19.04 97.06 30.8 97.25 30.69 97.25 18.93"/><polygon class="cls-9" points="98.88 17.98 98.69 18.1 98.69 29.86 98.88 29.75 98.88 17.98"/><polygon class="cls-9" points="100.5 17.04 100.32 17.16 100.32 28.92 100.5 28.8 100.5 17.04"/><polygon class="cls-9" points="102.13 16.1 101.95 16.21 101.95 27.97 102.13 27.86 102.13 16.1"/><polygon class="cls-9" points="103.76 15.16 103.58 15.27 103.58 27.03 103.76 26.92 103.76 15.16"/><polygon class="cls-9" points="105.39 14.21 105.2 14.32 105.2 26.09 105.39 25.97 105.39 14.21"/><polygon class="cls-9" points="107.01 13.27 106.83 13.38 106.83 25.14 107.01 25.03 107.01 13.27"/><polygon class="cls-9" points="108.64 12.33 108.46 12.44 108.46 24.2 108.64 24.09 108.64 12.33"/><polygon class="cls-9" points="110.27 11.38 110.08 11.49 110.08 23.26 110.27 23.14 110.27 11.38"/><polygon class="cls-9" points="111.89 10.44 111.71 10.55 111.71 22.31 111.89 22.2 111.89 10.44"/><polygon class="cls-9" points="113.52 9.5 113.34 9.61 113.34 21.37 113.52 21.26 113.52 9.5"/></g><g class="cls-14"><polygon class="cls-10" points="114.56 7.05 114.71 7.15 74.19 30.5 74.04 30.41 114.56 7.05"/><polygon class="cls-10" points="113.44 6.4 113.58 6.49 73.06 29.85 72.91 29.75 113.44 6.4"/><polygon class="cls-10" points="112.31 5.75 112.45 5.84 71.93 29.19 71.78 29.1 112.31 5.75"/><polygon class="cls-10" points="111.17 5.09 111.32 5.18 70.8 28.54 70.65 28.44 111.17 5.09"/><polygon class="cls-10" points="110.05 4.43 110.19 4.53 69.67 27.88 69.52 27.79 110.05 4.43"/><polygon class="cls-10" points="108.92 3.78 109.06 3.87 68.53 27.23 68.39 27.13 108.92 3.78"/><polygon class="cls-10" points="107.78 3.12 107.93 3.22 67.41 26.57 67.26 26.48 107.78 3.12"/><polygon class="cls-10" points="106.66 2.47 106.8 2.56 66.28 25.92 66.13 25.82 106.66 2.47"/><polygon class="cls-10" points="105.53 1.81 105.67 1.91 65.14 25.26 65 25.17 105.53 1.81"/><polygon class="cls-10" points="104.39 1.16 104.54 1.25 64.02 24.61 63.87 24.51 104.39 1.16"/></g><g class="cls-14"><polygon class="cls-5" points="114.83 7.06 114.97 7.15 74.44 30.51 74.3 30.41 114.83 7.06"/><polygon class="cls-5" points="113.69 6.4 113.84 6.5 73.31 29.85 73.17 29.76 113.69 6.4"/><polygon class="cls-5" points="112.56 5.75 112.71 5.84 72.19 29.2 72.04 29.1 112.56 5.75"/><polygon class="cls-5" points="111.44 5.09 111.58 5.19 71.06 28.54 70.91 28.45 111.44 5.09"/><polygon class="cls-5" points="110.3 4.44 110.45 4.53 69.92 27.89 69.78 27.79 110.3 4.44"/><polygon class="cls-5" points="109.17 3.78 109.32 3.88 68.8 27.23 68.65 27.14 109.17 3.78"/><polygon class="cls-5" points="108.04 3.13 108.19 3.22 67.67 26.58 67.52 26.48 108.04 3.13"/><polygon class="cls-5" points="106.91 2.47 107.06 2.57 66.53 25.92 66.39 25.83 106.91 2.47"/><polygon class="cls-5" points="105.78 1.82 105.93 1.91 65.41 25.27 65.26 25.17 105.78 1.82"/><polygon class="cls-5" points="104.65 1.16 104.8 1.26 64.28 24.61 64.13 24.52 104.65 1.16"/></g><path class="cls-6" d="M45.9,44.84a.12.12,0,0,1-.08,0L45.25,44a1.31,1.31,0,0,1-.26-.79V41.35a1.34,1.34,0,0,1,1-1.3l1.66-.42a.09.09,0,0,1,.11.07.1.1,0,0,1-.07.12l-1.65.41a1.16,1.16,0,0,0-.87,1.12v1.88a1.12,1.12,0,0,0,.23.68l.56.78a.08.08,0,0,1,0,.13Z"/><path class="cls-6" d="M45.43,43.67,45,43.41a.91.91,0,0,1-.37-.71V40.58c0-.27.17-.4.37-.28l.46.27a.85.85,0,0,1,.37.7v2.12C45.8,43.66,45.64,43.79,45.43,43.67Z"/><path class="cls-10" d="M45.43,40.57,45,40.3a.22.22,0,0,0-.29,0,.32.32,0,0,1,.16,0l.47.27a.9.9,0,0,1,.36.71v2.12a.36.36,0,0,1-.08.25c.13,0,.21-.12.21-.32V41.27A.85.85,0,0,0,45.43,40.57Z"/><polygon class="cls-6" points="37.96 52.3 44.58 56.06 44.58 65.29 37.98 61.46 37.96 52.3"/><polygon class="cls-8" points="37.96 52.3 44.58 56.06 53.03 50.02 44.67 45.22 37.96 52.3"/><polygon class="cls-12" points="37.96 52.3 44.58 56.06 53.03 50.02 44.58 55.94 37.96 52.3"/><polygon class="cls-6" points="44.67 45.22 53.03 50.02 55.85 44.01 47.65 39.26 44.67 45.22"/><path class="cls-15" d="M45.6,44.67l2.11-4.23a.39.39,0,0,1,.54-.16l6.54,3.79a.4.4,0,0,1,.16.5l-2,4.25a.37.37,0,0,1-.54.17l-6.66-3.82A.38.38,0,0,1,45.6,44.67Z"/><path class="cls-4" d="M52.76,48.6a.16.16,0,0,1-.12,0L46,44.74a.24.24,0,0,1-.1-.31l2-3.93a.26.26,0,0,1,.22-.13l.12,0,6.54,3.79a.24.24,0,0,1,.09.31l-1.84,4A.24.24,0,0,1,52.76,48.6Z"/><path class="cls-8" d="M73.64,35,63.18,29c-1.63,1-2.63,1.74-2.63,3.62l0,7.2L71,45.87Z"/><path class="cls-10" d="M71,38.66v7.19l2.67-1.6V35l0,0C72,36,71,36.77,71,38.66Z"/><path class="cls-4" d="M73.64,31.55l-10.46-6c-1.63.95-2.63,1.74-2.63,3.62l0,7.2L71,42.41Z"/><path class="cls-3" d="M71,35.19v7.2l2.67-1.6V31.53l0,0C72,32.52,71,33.31,71,35.19Z"/><path class="cls-4" d="M73.12,34.14,71.58,35a.3.3,0,0,0-.15.26v.07a.12.12,0,0,0,.19.1l1.53-.87a.31.31,0,0,0,.15-.27v-.06A.12.12,0,0,0,73.12,34.14Z"/><path class="cls-15" d="M73.17,34.12a.11.11,0,0,1,0,.07v.07a.29.29,0,0,1-.16.26l-1.53.88h-.06a.13.13,0,0,0,.17,0l1.53-.87a.31.31,0,0,0,.15-.27v-.06A.13.13,0,0,0,73.17,34.12Z"/><path class="cls-4" d="M73.12,35l-1.54.88a.3.3,0,0,0-.15.26v.06a.12.12,0,0,0,.19.11l1.53-.87a.31.31,0,0,0,.15-.27V35.1A.12.12,0,0,0,73.12,35Z"/><path class="cls-15" d="M73.17,35a.11.11,0,0,1,0,.07v.07a.29.29,0,0,1-.16.26l-1.53.88h-.06a.13.13,0,0,0,.17,0l1.53-.87a.31.31,0,0,0,.15-.27V35.1A.13.13,0,0,0,73.17,35Z"/><path class="cls-4" d="M73.12,35.84l-1.54.87a.33.33,0,0,0-.15.27V37a.12.12,0,0,0,.19.11l1.53-.88A.28.28,0,0,0,73.3,36v-.07A.12.12,0,0,0,73.12,35.84Z"/><path class="cls-15" d="M73.17,35.82a.09.09,0,0,1,0,.07V36a.29.29,0,0,1-.16.26l-1.53.88h-.06a.13.13,0,0,0,.17,0l1.53-.88A.28.28,0,0,0,73.3,36v-.07A.12.12,0,0,0,73.17,35.82Z"/><path class="cls-4" d="M73.12,36.69l-1.54.87a.33.33,0,0,0-.15.27v.06a.12.12,0,0,0,.19.11l1.53-.88a.28.28,0,0,0,.15-.26v-.07A.12.12,0,0,0,73.12,36.69Z"/><path class="cls-15" d="M73.17,36.67a.09.09,0,0,1,0,.07v.07a.29.29,0,0,1-.16.26L71.51,38h-.06a.14.14,0,0,0,.17,0l1.53-.88a.28.28,0,0,0,.15-.26v-.07A.12.12,0,0,0,73.17,36.67Z"/><path class="cls-4" d="M73.12,37.54l-1.54.87a.32.32,0,0,0-.15.26v.07a.12.12,0,0,0,.19.11L73.15,38a.28.28,0,0,0,.15-.26v-.07A.12.12,0,0,0,73.12,37.54Z"/><path class="cls-15" d="M73.17,37.52a.09.09,0,0,1,0,.07v.07a.31.31,0,0,1-.16.26l-1.53.87-.06,0a.14.14,0,0,0,.17,0L73.15,38a.28.28,0,0,0,.15-.26v-.07A.12.12,0,0,0,73.17,37.52Z"/><path class="cls-4" d="M73.12,38.39l-1.54.87a.32.32,0,0,0-.15.26v.07a.12.12,0,0,0,.19.11l1.53-.88a.28.28,0,0,0,.15-.26v-.07A.12.12,0,0,0,73.12,38.39Z"/><path class="cls-15" d="M73.17,38.37a.09.09,0,0,1,0,.07v.07a.31.31,0,0,1-.16.26l-1.53.87-.06,0a.14.14,0,0,0,.17,0l1.53-.88a.28.28,0,0,0,.15-.26v-.07A.12.12,0,0,0,73.17,38.37Z"/><path class="cls-4" d="M73.12,39.24l-1.54.87a.32.32,0,0,0-.15.26v.07a.13.13,0,0,0,.19.11l1.53-.88a.28.28,0,0,0,.15-.26v-.07A.12.12,0,0,0,73.12,39.24Z"/><path class="cls-15" d="M73.17,39.22a.09.09,0,0,1,0,.07v.07a.31.31,0,0,1-.16.26l-1.53.87-.06,0a.14.14,0,0,0,.17,0l1.53-.88a.28.28,0,0,0,.15-.26v-.07A.12.12,0,0,0,73.17,39.22Z"/><path class="cls-4" d="M73.12,40.08,71.58,41a.3.3,0,0,0-.15.26v.07a.13.13,0,0,0,.19.11l1.53-.88a.28.28,0,0,0,.15-.26v-.07A.13.13,0,0,0,73.12,40.08Z"/><path class="cls-15" d="M73.17,40.07a.09.09,0,0,1,0,.07v.06a.32.32,0,0,1-.16.27l-1.53.87-.06,0a.14.14,0,0,0,.17,0l1.53-.88a.28.28,0,0,0,.15-.26v-.07A.12.12,0,0,0,73.17,40.07Z"/><path class="cls-16" d="M46,44.74a.24.24,0,0,1-.1-.31l2-3.93a.26.26,0,0,1,.22-.13l.12,0,6.54,3.79a.24.24,0,0,1,.09.31Z"/><polygon class="cls-8" points="60.62 31.64 68.98 36.44 55.85 44.01 47.65 39.26 60.62 31.64"/><polygon class="cls-12" points="55.86 43.91 68.98 36.44 55.85 44.01 47.65 39.26 55.86 43.91"/><polygon class="cls-10" points="44.58 65.29 44.58 56.06 53.03 50.02 55.85 44.01 68.98 36.44 68.98 51.21 44.58 65.29"/><path class="cls-3" d="M56.43,45.37,54.78,49.9l6-3.42V42.17L57.55,44A2.6,2.6,0,0,0,56.43,45.37Z"/><polygon class="cls-15" points="60.52 42.29 60.52 46.32 54.91 49.53 54.78 49.9 60.74 46.48 60.74 42.17 60.52 42.29"/><polygon class="cls-17" points="49.69 57.37 54.5 57.07 54.5 59.56 51.52 61.05 49.69 57.37"/><polygon class="cls-9" points="53.48 60.07 53.48 62.3 50.94 60.89 51.05 58.66 53.48 60.07"/><path class="cls-4" d="M45.91,64.69a2.05,2.05,0,0,0,.83,1.86l1.55.9c.53.3.19-.37,1-.84a6.46,6.46,0,0,0,2.94-5c0-.92.84-.93.32-1.24l-1.65-.91a2.06,2.06,0,0,0-2,.22A6.48,6.48,0,0,0,45.91,64.69Z"/><ellipse class="cls-3" cx="50.47" cy="63.92" rx="4.13" ry="2.39" transform="matrix(0.5, -0.86, 0.86, 0.5, -30.18, 75.23)"/><path class="cls-6" d="M48.38,65.13c0,1.32.94,1.85,2.09,1.19a4.62,4.62,0,0,0,2.09-3.6c0-1.33-.94-1.86-2.09-1.2A4.62,4.62,0,0,0,48.38,65.13Z"/><path class="cls-10" d="M51.66,61.27a1.43,1.43,0,0,1,.61,1.33,4.59,4.59,0,0,1-2.09,3.6,1.65,1.65,0,0,1-1.19.26,1.47,1.47,0,0,0,1.48-.14,4.62,4.62,0,0,0,2.09-3.6C52.56,61.9,52.21,61.39,51.66,61.27Z"/><path class="cls-5" d="M50.33,60.49a2.13,2.13,0,0,1,2-.25,2.31,2.31,0,0,0-1.76.35,6.43,6.43,0,0,0-2.93,5,2,2,0,0,0,.93,1.92c-.72-.2-1.18-.91-1.18-2A6.45,6.45,0,0,1,50.33,60.49Z"/><path class="cls-3" d="M50.17,62a.61.61,0,0,0-.27.47c0,.18.12.24.27.16a.62.62,0,0,0,.28-.47C50.45,62,50.32,61.88,50.17,62Zm0,3.2a.61.61,0,0,0-.27.47c0,.17.12.24.27.15a.59.59,0,0,0,.28-.47C50.45,65.15,50.32,65.08,50.17,65.17Zm.8-2.65c.1.06.27,0,.38-.23s.11-.38,0-.44-.28,0-.38.22S50.86,62.46,51,62.52Zm-1.59,2.73c-.1-.06-.28,0-.38.22s-.11.38,0,.44.28,0,.38-.22S49.49,65.31,49.38,65.25Zm2.19-2.48a.59.59,0,0,0-.28.47c0,.17.13.24.28.15a.61.61,0,0,0,.27-.47C51.84,62.75,51.72,62.68,51.57,62.77Zm-2.79,1.6a.61.61,0,0,0-.27.47c0,.18.12.25.27.16a.61.61,0,0,0,.27-.47C49.05,64.36,48.93,64.29,48.78,64.37Zm2.57-.26c-.11-.06-.28,0-.38.22s-.11.39,0,.45.27,0,.38-.23S51.46,64.17,51.35,64.11Zm-2-1.12c-.1-.06-.28,0-.38.22s-.11.38,0,.44.28,0,.38-.22S49.49,63.05,49.38,63Z"/><path class="cls-9" d="M49.33,64.25a.56.56,0,0,0,.23.51l.33.2c.15.09.06-.1.28-.23A1.76,1.76,0,0,0,51,63.34c0-.25.23-.25.09-.34l-.37-.21a.56.56,0,0,0-.56.07A1.76,1.76,0,0,0,49.33,64.25Z"/><path class="cls-5" d="M49.69,64.46c0,.51.36.72.81.46a1.8,1.8,0,0,0,.81-1.39c0-.52-.37-.72-.81-.46A1.76,1.76,0,0,0,49.69,64.46Z"/><polygon class="cls-8" points="46.8 67.15 46.8 63.92 48.9 60.3 51.86 58.59 49.69 57.37 46.72 59.09 44.62 62.71 44.62 65.94 46.8 67.15"/><polygon class="cls-11" points="46.8 67.15 46.8 63.92 44.62 62.71 44.62 65.94 46.8 67.15"/><polygon class="cls-6" points="46.8 63.92 48.9 60.3 46.72 59.09 44.62 62.71 46.8 63.92"/><polygon class="cls-10" points="47.3 66.88 47.3 64.06 49.26 60.66 51.87 59.16 53.48 60.07 53.48 62.3 53.97 62.02 53.97 59.78 51.87 58.59 48.9 60.3 46.8 63.92 46.8 67.17 47.3 66.88"/><polygon class="cls-12" points="46.72 59.09 48.9 60.3 51.87 58.59 48.9 60.19 46.72 59.09"/><path class="cls-8" d="M65.66,52a.09.09,0,0,1,.07,0,.07.07,0,0,1,0,.1.9.9,0,0,0-.35.82,3,3,0,0,0,1.35,2.34.94.94,0,0,0,.91.11.08.08,0,0,1,.1,0,.09.09,0,0,1,0,.1,1.07,1.07,0,0,1-1.05-.11A3.14,3.14,0,0,1,65.2,52.9a1,1,0,0,1,.43-.94Z"/><path class="cls-8" d="M67.52,50.9a.1.1,0,0,1,.07,0,.07.07,0,0,1,0,.1.9.9,0,0,0-.35.82,3,3,0,0,0,1.35,2.34.94.94,0,0,0,.91.11.07.07,0,0,1,.1,0,.1.1,0,0,1,0,.1,1.1,1.1,0,0,1-1.05-.11,3.16,3.16,0,0,1-1.43-2.47,1.05,1.05,0,0,1,.43-1Z"/><path class="cls-6" d="M71.77,52.35a1,1,0,0,1-.37.86l-6,3.39c-.25.14-.09-.17-.46-.38a3,3,0,0,1-1.35-2.32c0-.43-.39-.43-.15-.57l6-3.4a1,1,0,0,1,.94.1A3,3,0,0,1,71.77,52.35Z"/><path class="cls-10" d="M69.54,54.43a.09.09,0,0,1-.06,0,.07.07,0,0,1,0-.1.92.92,0,0,0,.35-.83,3,3,0,0,0-1.36-2.34.92.92,0,0,0-.9-.11.07.07,0,0,1-.1,0,.07.07,0,0,1,0-.09,1.07,1.07,0,0,1,1,.1A3.17,3.17,0,0,1,70,53.47a1,1,0,0,1-.43,1Z"/><path class="cls-8" d="M69.49,54.45a.06.06,0,0,1-.06,0,.08.08,0,0,1,0-.1.91.91,0,0,0,.36-.82,3,3,0,0,0-1.36-2.35.94.94,0,0,0-.9-.1.08.08,0,0,1-.1,0,.07.07,0,0,1,0-.1,1.05,1.05,0,0,1,1,.11A3.14,3.14,0,0,1,70,53.5a1,1,0,0,1-.42.94Z"/><path class="cls-10" d="M67.68,55.47a.09.09,0,0,1-.06,0,.07.07,0,0,1,0-.1.91.91,0,0,0,.35-.83,3,3,0,0,0-1.36-2.34.91.91,0,0,0-.9-.1.1.1,0,0,1-.1,0,.08.08,0,0,1,0-.1,1,1,0,0,1,1,.11,3.14,3.14,0,0,1,1.43,2.46,1,1,0,0,1-.43,1Z"/><path class="cls-8" d="M67.63,55.5a.07.07,0,0,1-.06,0,.08.08,0,0,1,0-.1.91.91,0,0,0,.36-.82,3,3,0,0,0-1.36-2.34.92.92,0,0,0-.9-.11.07.07,0,0,1-.1,0,.07.07,0,0,1,0-.1,1.08,1.08,0,0,1,1,.11,3.16,3.16,0,0,1,1.43,2.47,1.07,1.07,0,0,1-.42,1Z"/><path class="cls-8" d="M64.5,53.4a1,1,0,0,0-.92-.11,1.08,1.08,0,0,1,.8.16,3,3,0,0,1,1.35,2.32.91.91,0,0,1-.43.88c.33-.09.54-.42.54-.92A3,3,0,0,0,64.5,53.4Z"/><path class="cls-7" d="M65.78,55.76c0,.85-.6,1.2-1.35.77a3,3,0,0,1-1.34-2.33c0-.85.6-1.19,1.34-.76A3,3,0,0,1,65.78,55.76Z"/><polygon class="cls-4" points="46.33 65.72 46.33 68.66 46.81 68.36 46.81 65.43 46.33 65.72"/><polygon class="cls-5" points="46.34 65.72 46.34 68.66 35.28 62.33 35.28 59.4 46.34 65.72"/><polygon class="cls-9" points="35.28 59.4 46.34 65.72 46.81 65.43 35.74 59.1 35.28 59.4"/><path class="cls-9" d="M37.11,57.91a.81.81,0,0,0-.74,0h0l-.4.23.08,0a.79.79,0,0,0-.15.46v.48l2.3,1.58.24-.15V58.66Z"/><path class="cls-4" d="M38.24,58.79a12.09,12.09,0,0,0,0,1.88l.24-.15V58.66Z"/><path class="cls-10" d="M38.24,58.78l-.05,1.88-2.5-1.44v-.48A.81.81,0,0,1,36.9,58Z"/><path class="cls-5" d="M38.2,58.8v1.87l-2.55-1.44v-.47a.81.81,0,0,1,1.21-.7Z"/><path class="cls-12" d="M35.94,59.06v-.3a.52.52,0,0,1,.52-.52.45.45,0,0,1,.25.07L37.9,59v1.2Z"/><path class="cls-8" d="M36.13,59v-.3a.54.54,0,0,1,.22-.43.53.53,0,0,0-.41.51v.3l2,1.11V60Z"/><path class="cls-6" d="M56.16,50.48a.1.1,0,0,1-.08,0,.1.1,0,0,1,0-.13l.65-.39a1.14,1.14,0,0,0,.56-1V46.4a1.14,1.14,0,0,0-.51-1L56.17,45a.09.09,0,0,1,0-.13.11.11,0,0,1,.14,0l.63.42a1.33,1.33,0,0,1,.6,1.12v2.53a1.37,1.37,0,0,1-.65,1.15l-.65.39Z"/><path class="cls-6" d="M57.82,49.51l-.46-.27a.9.9,0,0,1-.37-.71V46.41c0-.27.17-.39.37-.28l.46.27a.88.88,0,0,1,.37.71v2.12C58.19,49.5,58,49.62,57.82,49.51Z"/><path class="cls-10" d="M57.82,46.4l-.46-.27a.22.22,0,0,0-.29,0,.2.2,0,0,1,.16,0l.46.26a.88.88,0,0,1,.37.71v2.12a.38.38,0,0,1-.08.26c.13,0,.21-.13.21-.32V47.11A.88.88,0,0,0,57.82,46.4Z"/><path class="cls-6" d="M49,36.27h0a.15.15,0,0,1-.1-.17c.05-.17.11-.35.17-.52a.13.13,0,0,1,.17-.08.13.13,0,0,1,.08.17,4.13,4.13,0,0,0-.15.5A.14.14,0,0,1,49,36.27ZM49.46,35l-.06,0a.13.13,0,0,1,0-.18,2.83,2.83,0,0,1,.29-.47.13.13,0,0,1,.19,0,.14.14,0,0,1,0,.19,4.92,4.92,0,0,0-.28.45A.14.14,0,0,1,49.46,35Zm.8-1.09a.1.1,0,0,1-.09,0,.13.13,0,0,1,0-.19c.13-.13.26-.26.4-.38a.13.13,0,0,1,.19,0,.14.14,0,0,1,0,.19,3.24,3.24,0,0,0-.38.36A.14.14,0,0,1,50.26,33.94Zm1-.85a.14.14,0,0,1-.12-.06.13.13,0,0,1,0-.19l.12-.07a.14.14,0,0,1,.19,0,.14.14,0,0,1,0,.19l-.12.07Z"/><path class="cls-8" d="M69,34l-8.32-4.77L52.55,34a4.4,4.4,0,0,0-2.19,3.81h0l8.2,4.69Z"/><path class="cls-18" d="M60.5,40.43,61.88,39l-9-5.2h0l-.34.21a4.44,4.44,0,0,0-1.28,1.12Z"/><path class="cls-12" d="M58.5,42.44h0l10.43-6V33.92l-8.24,4.71A4.42,4.42,0,0,0,58.5,42.44Z"/><path class="cls-10" d="M58.56,42.47h0l10.42-6V33.94l-8.23,4.71A4.43,4.43,0,0,0,58.56,42.47Z"/><path class="cls-6" d="M64.07,54.71l.31.15v1.62l-.83-.31a2.18,2.18,0,0,1-1.41-2V46.22a1.64,1.64,0,0,1,1.64,0v8A.54.54,0,0,0,64.07,54.71Z"/><path class="cls-7" d="M64.26,43.4H61.67V54.48h0c0,.42.58.76,1.29.76s1.3-.34,1.3-.76h0Z"/><ellipse class="cls-8" cx="62.96" cy="43.41" rx="1.29" ry="0.75"/><path class="cls-9" d="M64.05,43.41c0,.35-.49.63-1.09.63s-1.09-.28-1.09-.63.49-.64,1.09-.64S64.05,43.06,64.05,43.41Z"/><path class="cls-6" d="M64.07,35.33l.31-.15V33.56l-.83.31a2.18,2.18,0,0,0-1.41,2v7.91a1.64,1.64,0,0,0,1.64,0v-8A.54.54,0,0,1,64.07,35.33Z"/><path class="cls-19" d="M62.77,43.86a1.12,1.12,0,0,1-.32,0V35.93a1.69,1.69,0,0,1,1.09-1.57l.14,0v.57h0a1,1,0,0,0-.57.92v8A1.12,1.12,0,0,1,62.77,43.86Z"/><path class="cls-19" d="M62.17,44.28v10.2a.94.94,0,0,0,.62.25V44.43A2,2,0,0,1,62.17,44.28Z"/><polygon class="cls-6" points="41.37 53.94 42.84 55.61 47.88 48 41.37 53.94"/><polygon class="cls-20" points="39.2 53.61 41.37 53.94 47.88 48 39.2 53.61"/><polygon class="cls-21" points="41.23 53.9 41.37 53.94 47.88 48 41.23 53.9"/><polygon class="cls-4" points="43.34 56.48 43.34 64.02 43.81 63.73 43.81 56.19 43.34 56.48"/><polygon class="cls-5" points="43.35 56.48 43.35 64.02 38.32 61.18 38.32 53.64 41 54.08 43.35 56.48"/><polygon class="cls-4" points="38.9 61.33 38.9 55.38 42.76 57.66 42.76 63.52 38.9 61.33"/><polygon class="cls-3" points="39.2 61.16 39.2 55.56 38.9 55.38 38.9 61.33 42.76 63.52 42.76 63.18 39.2 61.16"/><polygon class="cls-9" points="41 54.08 43.35 56.48 43.81 56.19 41.45 53.8 41 54.08"/><polygon class="cls-10" points="41 54.08 43.35 56.48 43.81 56.19 43.34 56.36 41 54.08"/><polygon class="cls-10" points="38.78 53.35 38.32 53.64 41 54.08 41.45 53.8 38.78 53.35"/><polygon class="cls-5" points="39.33 61.59 39.33 55.61 39.65 55.81 39.65 61.76 39.33 61.59"/><polygon class="cls-3" points="39.86 61.64 39.86 55.96 39.65 55.81 39.65 61.76 39.86 61.64"/><polygon class="cls-5" points="40.03 61.98 40.03 56.03 40.35 56.23 40.35 62.16 40.03 61.98"/><polygon class="cls-3" points="40.56 62.04 40.56 56.37 40.35 56.23 40.35 62.16 40.56 62.04"/><polygon class="cls-5" points="40.73 62.37 40.73 56.4 41.05 56.6 41.05 62.55 40.73 62.37"/><polygon class="cls-3" points="41.26 62.43 41.26 56.77 41.05 56.65 41.05 62.55 41.26 62.43"/><polygon class="cls-5" points="41.43 62.77 41.43 56.8 41.75 57 41.75 62.95 41.43 62.77"/><polygon class="cls-3" points="41.96 62.83 41.96 57.19 41.75 57.06 41.75 62.95 41.96 62.83"/><polygon class="cls-5" points="42.12 63.17 42.12 57.2 42.44 57.4 42.44 63.35 42.12 63.17"/><polygon class="cls-3" points="42.65 63.23 42.65 57.6 42.44 57.47 42.44 63.35 42.65 63.23"/><path class="cls-9" d="M46.65,64.35v.85l-.25.14-2.65-1.47-.09-2,.25-.16,1.74.95A2,2,0,0,1,46.65,64.35Z"/><path class="cls-10" d="M46.47,64.47l-.06.87L43.73,63.8l-.06-2,1.8.92A2,2,0,0,1,46.47,64.47Z"/><path class="cls-5" d="M46.4,64.5v.85l-2.74-1.53v-2l1.74,1A2,2,0,0,1,46.4,64.5Z"/><path class="cls-12" d="M44,63.65V62.31l1.31.71a1.7,1.7,0,0,1,.85,1.48v.35Z"/><polygon class="cls-8" points="44.13 63.54 44.13 62.41 43.95 62.31 43.95 63.65 46.11 64.85 46.11 64.65 44.13 63.54"/><path class="cls-22" d="M37.8,63.75l0-.42a.57.57,0,0,1,.87-.49L42.43,65a1.91,1.91,0,0,1,1,1.64V67Z"/><polygon class="cls-8" points="42.33 65.39 42.33 66.4 38.68 64.34 38.68 63.3 42.33 65.39"/><polygon class="cls-23" points="38.68 63.3 38.68 63.45 42.21 65.47 42.21 66.33 42.33 66.4 42.33 65.39 38.68 63.3"/><path class="cls-6" d="M36.83,62.13c0,.29-.21.41-.46.26a1,1,0,0,1-.46-.79c0-.29.2-.41.46-.26A1,1,0,0,1,36.83,62.13Z"/><path class="cls-3" d="M36.61,62.26a1,1,0,0,1-.46-.8.38.38,0,0,1,0-.19c-.17,0-.28.11-.28.33a1,1,0,0,0,.46.79c.19.11.35.08.42-.07A.32.32,0,0,1,36.61,62.26Z"/><path class="cls-6" d="M45.74,67.21c0,.29-.21.41-.46.26a1,1,0,0,1-.47-.79c0-.3.21-.41.47-.27A1,1,0,0,1,45.74,67.21Z"/><path class="cls-3" d="M45.52,67.34a1,1,0,0,1-.46-.8.38.38,0,0,1,0-.19c-.17,0-.29.11-.29.33a1,1,0,0,0,.47.79.28.28,0,0,0,.42-.07A.32.32,0,0,1,45.52,67.34Z"/><path class="cls-24" d="M44.19,62.88l.32.68s.52-.45.42-.66S44.19,62.88,44.19,62.88Z"/><path class="cls-25" d="M44.61,63.37c0,.17-.12.24-.27.15a.59.59,0,0,1-.27-.47c0-.17.12-.24.27-.15A.61.61,0,0,1,44.61,63.37Z"/><path class="cls-24" d="M36.35,58.73l.3.64s.48-.42.39-.62S36.35,58.73,36.35,58.73Z"/><path class="cls-25" d="M36.74,59.19c0,.16-.11.22-.25.14a.56.56,0,0,1-.25-.44c0-.16.11-.22.25-.14A.56.56,0,0,1,36.74,59.19Z"/><path class="cls-24" d="M37,58.91l.3.63s.48-.42.39-.62S37,58.91,37,58.91Z"/><ellipse class="cls-25" cx="37.11" cy="59.21" rx="0.21" ry="0.36" transform="translate(-24.81 26.82) rotate(-30.31)"/><path class="cls-24" d="M44.76,63.47l.33.69s.7-.52.6-.73S44.76,63.47,44.76,63.47Z"/><path class="cls-25" d="M45.19,64c0,.17-.12.24-.27.15a.58.58,0,0,1-.27-.47c0-.17.12-.24.27-.15A.61.61,0,0,1,45.19,64Z"/><path class="cls-15" d="M50.25,45l-3.94-.86a.1.1,0,0,0,0,.19l1.42.31.47,1.6a.1.1,0,0,0,.09.07h0a.11.11,0,0,0,.07-.12l-.44-1.5,2.3.5h0a.1.1,0,0,0,.09-.07A.09.09,0,0,0,50.25,45Z"/><path class="cls-15" d="M53.2,46.73l-3.94-.86a.1.1,0,0,0-.11.08.09.09,0,0,0,.07.11l1.42.31.47,1.6a.09.09,0,0,0,.09.07h0a.11.11,0,0,0,.07-.12l-.44-1.5,2.3.5h0a.11.11,0,0,0,.1-.08A.11.11,0,0,0,53.2,46.73Z"/><path class="cls-26" d="M60,48.42l-.6.35a.42.42,0,0,0-.21.37v0a.2.2,0,0,0,.3.18L60,49a.43.43,0,0,0,.21-.36v-.12A.15.15,0,0,0,60,48.42Z"/><g class="cls-27"><path class="cls-26" d="M60,49l-.54.32a.2.2,0,0,1-.3-.16h0v.11a.2.2,0,0,0,.3.17l.54-.32a.41.41,0,0,0,.21-.36v-.13A.43.43,0,0,1,60,49Z"/></g><polygon class="cls-9" points="60.73 46.49 60.55 46.6 60.55 54.84 60.73 54.72 60.73 46.49"/><polygon class="cls-6" points="60.92 41.9 60.74 42.02 60.74 54.76 60.92 54.65 60.92 41.9"/><path class="cls-26" d="M65.42,44.13a.32.32,0,0,1-.32-.32V40.37a.83.83,0,0,1,.42-.72l2.13-1.24a.32.32,0,0,1,.16,0,.32.32,0,0,1,.33.32v3.44a.83.83,0,0,1-.42.72l-2.14,1.24A.27.27,0,0,1,65.42,44.13Zm2.39-5.58a.1.1,0,0,0-.07,0L65.61,39.8a.68.68,0,0,0-.33.57v3.44a.14.14,0,0,0,.21.12l2.14-1.23a.68.68,0,0,0,.33-.57V38.69A.14.14,0,0,0,67.81,38.55Z"/><path class="cls-6" d="M65.42,44.13a.32.32,0,0,1-.16,0l.09-.16a.12.12,0,0,0,.14,0l2.14-1.23a.68.68,0,0,0,.33-.57V38.69a.14.14,0,0,0-.09-.13l.06-.17a.32.32,0,0,1,.21.3v3.44a.83.83,0,0,1-.42.72l-2.14,1.24A.29.29,0,0,1,65.42,44.13Z"/><polygon class="cls-4" points="62.02 57.97 62.02 58.77 56.14 62.19 56.14 61.31 62.02 57.97"/><polygon class="cls-9" points="62.02 57.97 56.14 61.31 55.27 60.75 61.05 57.41 62.02 57.97"/><polygon class="cls-10" points="62.02 57.97 56.14 61.31 55.27 60.75 56.16 61.21 62.02 57.97"/><polygon class="cls-4" points="55.27 60.75 55.27 59.83 61.03 56.51 61.05 57.41 55.27 60.75"/><polygon class="cls-9" points="54.67 59.46 55.27 59.83 61.03 56.51 60.45 56.12 54.67 59.46"/><polygon class="cls-10" points="54.67 59.46 55.27 59.83 61.03 56.51 55.24 59.75 54.67 59.46"/><polygon class="cls-4" points="55.27 58.42 55.27 57.5 61.03 54.17 61.05 55.08 55.27 58.42"/><polygon class="cls-4" points="55.27 60.76 55.27 57.5 55.5 57.37 55.52 60.61 55.27 60.76"/><polygon class="cls-9" points="54.5 57.09 55.27 57.5 61.03 54.17 60.28 53.75 54.5 57.09"/><polygon class="cls-10" points="54.5 57.09 55.27 57.5 61.03 54.17 55.27 57.38 54.5 57.09"/><polygon class="cls-5" points="54.5 57.07 54.5 61.23 56.14 62.19 56.14 61.31 55.27 60.75 55.27 57.48 54.5 57.07"/><path class="cls-9" d="M55.67,49.46c.93,0,1.68.46,1.68,1a.07.07,0,0,1-.07.07.07.07,0,0,1-.08-.07c0-.48-.69-.87-1.53-.87s-1.54.39-1.54.87a.07.07,0,0,1-.08.07.07.07,0,0,1-.07-.07C54,49.92,54.73,49.46,55.67,49.46Z"/><path class="cls-9" d="M55.67,51c.93,0,1.68.46,1.68,1a.07.07,0,0,1-.07.07A.07.07,0,0,1,57.2,52c0-.48-.69-.87-1.53-.87s-1.54.39-1.54.87a.07.07,0,0,1-.08.07A.07.07,0,0,1,54,52C54,51.44,54.73,51,55.67,51Z"/><path class="cls-9" d="M55.67,52.47c.93,0,1.68.46,1.68,1a.07.07,0,0,1-.07.07.07.07,0,0,1-.08-.07c0-.48-.69-.86-1.53-.86s-1.54.38-1.54.86a.07.07,0,0,1-.08.07.07.07,0,0,1-.07-.07C54,52.93,54.73,52.47,55.67,52.47Z"/><path class="cls-9" d="M55.67,54c.93,0,1.68.45,1.68,1a.08.08,0,0,1-.07.08A.08.08,0,0,1,57.2,55c0-.48-.69-.86-1.53-.86s-1.54.38-1.54.86a.08.08,0,0,1-.08.08A.08.08,0,0,1,54,55C54,54.41,54.73,54,55.67,54Z"/><path class="cls-5" d="M57.2,50.17H54.13v5.39h0c0,.49.69.89,1.54.89s1.53-.4,1.53-.89h0Z"/><path class="cls-9" d="M57.2,50.17c0,.5-.69.9-1.53.9s-1.54-.4-1.54-.9.69-.89,1.54-.89S57.2,49.68,57.2,50.17Z"/><path class="cls-10" d="M55.67,51c-.83,0-1.5-.38-1.54-.85v0c0,.5.69.9,1.54.9s1.53-.4,1.53-.9v0C57.17,50.61,56.49,51,55.67,51Z"/><path class="cls-4" d="M55.67,56.07c-.94,0-1.69-.46-1.69-1a.07.07,0,0,1,.07-.07.07.07,0,0,1,.08.07c0,.48.69.87,1.54.87s1.53-.39,1.53-.87a.07.07,0,0,1,.08-.07.07.07,0,0,1,.07.07C57.35,55.61,56.6,56.07,55.67,56.07Z"/><path class="cls-9" d="M55.67,56c-.94,0-1.69-.45-1.69-1a.08.08,0,0,1,.07-.08.08.08,0,0,1,.08.08c0,.47.69.86,1.54.86s1.53-.39,1.53-.86a.08.08,0,0,1,.08-.08.08.08,0,0,1,.07.08C57.35,55.52,56.6,56,55.67,56Z"/><path class="cls-4" d="M55.67,54.55c-.94,0-1.69-.45-1.69-1a.07.07,0,0,1,.07-.08.07.07,0,0,1,.08.08c0,.47.69.86,1.54.86s1.53-.39,1.53-.86a.07.07,0,0,1,.08-.08.07.07,0,0,1,.07.08C57.35,54.1,56.6,54.55,55.67,54.55Z"/><path class="cls-9" d="M55.67,54.46c-.94,0-1.69-.46-1.69-1a.08.08,0,0,1,.07-.08.08.08,0,0,1,.08.08c0,.48.69.86,1.54.86s1.53-.38,1.53-.86a.08.08,0,0,1,.08-.08.08.08,0,0,1,.07.08C57.35,54,56.6,54.46,55.67,54.46Z"/><path class="cls-4" d="M55.67,53.06c-.94,0-1.69-.46-1.69-1a.07.07,0,0,1,.07-.07.07.07,0,0,1,.08.07c0,.48.69.87,1.54.87s1.53-.39,1.53-.87a.07.07,0,0,1,.08-.07.07.07,0,0,1,.07.07C57.35,52.6,56.6,53.06,55.67,53.06Z"/><path class="cls-9" d="M55.67,53c-.94,0-1.69-.45-1.69-1a.08.08,0,0,1,.07-.08.08.08,0,0,1,.08.08c0,.47.69.86,1.54.86s1.53-.39,1.53-.86a.08.08,0,0,1,.08-.08.08.08,0,0,1,.07.08C57.35,52.51,56.6,53,55.67,53Z"/><path class="cls-4" d="M55.67,51.58c-.94,0-1.69-.46-1.69-1a.08.08,0,0,1,.07-.08.08.08,0,0,1,.08.08c0,.48.69.86,1.54.86s1.53-.38,1.53-.86a.08.08,0,0,1,.08-.08.08.08,0,0,1,.07.08C57.35,51.12,56.6,51.58,55.67,51.58Z"/><path class="cls-9" d="M55.67,51.48c-.94,0-1.69-.45-1.69-1a.07.07,0,0,1,.07-.08.07.07,0,0,1,.08.08c0,.47.69.86,1.54.86s1.53-.39,1.53-.86a.07.07,0,0,1,.08-.08.07.07,0,0,1,.07.08C57.35,51,56.6,51.48,55.67,51.48Z"/><polygon class="cls-10" points="115.63 21.9 74.55 45.62 74.55 44.26 115.63 20.55 115.63 21.9"/><polygon class="cls-8" points="115.19 20.33 74.11 44.04 74.55 44.26 115.63 20.55 115.19 20.33"/><polygon class="cls-6" points="74.11 45.38 74.55 45.62 74.55 44.26 74.11 44.02 74.11 45.38"/><polygon class="cls-28" points="115.58 21.92 114.41 22.61 112.75 22.21 113.93 21.53 115.58 21.92"/><polygon class="cls-28" points="112.67 23.61 111.49 24.29 109.83 23.89 111.01 23.21 112.67 23.61"/><polygon class="cls-28" points="109.76 25.29 108.58 25.97 106.92 25.57 108.1 24.89 109.76 25.29"/><polygon class="cls-28" points="106.84 26.97 105.66 27.65 104 27.26 105.18 26.58 106.84 26.97"/><polygon class="cls-28" points="103.93 28.65 102.75 29.34 101.09 28.94 102.27 28.26 103.93 28.65"/><polygon class="cls-28" points="101.01 30.34 99.83 31.02 98.17 30.62 99.35 29.94 101.01 30.34"/><polygon class="cls-28" points="98.1 32.02 96.92 32.7 95.26 32.3 96.44 31.62 98.1 32.02"/><polygon class="cls-28" points="95.18 33.7 94 34.38 92.35 33.99 93.53 33.31 95.18 33.7"/><polygon class="cls-28" points="92.27 35.38 91.09 36.07 89.43 35.67 90.61 34.99 92.27 35.38"/><polygon class="cls-28" points="89.36 37.07 88.18 37.75 86.52 37.35 87.7 36.67 89.36 37.07"/><polygon class="cls-28" points="86.44 38.75 85.26 39.43 83.6 39.03 84.78 38.35 86.44 38.75"/><polygon class="cls-28" points="83.53 40.43 82.35 41.11 80.69 40.72 81.87 40.04 83.53 40.43"/><polygon class="cls-28" points="80.61 42.12 79.43 42.8 77.77 42.4 78.95 41.72 80.61 42.12"/><polygon class="cls-28" points="77.7 43.8 76.52 44.48 74.86 44.08 76.04 43.4 77.7 43.8"/><polygon class="cls-10" points="43.35 64.02 46.34 65.72 46.81 65.43 46.33 65.66 43.35 64.02"/><ellipse class="cls-4" cx="108.59" cy="18.13" rx="5.2" ry="3" transform="translate(38.13 102.73) rotate(-59.69)"/><path class="cls-3" d="M110.83,13.48a2.63,2.63,0,0,1,1,2.3,8.14,8.14,0,0,1-3.69,6.37,2.93,2.93,0,0,1-2.24.42,2.53,2.53,0,0,0,2.71-.2A8.14,8.14,0,0,0,112.28,16C112.28,14.63,111.71,13.74,110.83,13.48Z"/><path class="cls-6" d="M117.43,18.63h0a.13.13,0,0,1-.14-.13,2.44,2.44,0,0,0,0-.27.15.15,0,0,1,.13-.14.13.13,0,0,1,.14.13,2.53,2.53,0,0,1,0,.28A.13.13,0,0,1,117.43,18.63Zm-.12-1.07a.13.13,0,0,1-.13-.1A2.91,2.91,0,0,0,117,17a.13.13,0,0,1,.08-.17.14.14,0,0,1,.18.07,4.26,4.26,0,0,1,.16.54.13.13,0,0,1-.1.16Zm-.54-1.22a.13.13,0,0,1-.11-.06,2.49,2.49,0,0,0-.34-.38.14.14,0,0,1,0-.19.13.13,0,0,1,.19,0,3.79,3.79,0,0,1,.38.42.14.14,0,0,1,0,.19A.13.13,0,0,1,116.77,16.34Z"/><ellipse class="cls-29" cx="110.16" cy="19.2" rx="5.95" ry="3.44" transform="translate(37.99 104.61) rotate(-59.69)"/><path class="cls-30" d="M108.77,22.48a8.14,8.14,0,0,1,3.69-6.37,2.67,2.67,0,0,1,2.54-.3h0l.57.31-.27.46a3.58,3.58,0,0,1,.2,1.24,8.11,8.11,0,0,1-3.7,6.36,3.59,3.59,0,0,1-1.19.47l-.27.46-.39-.2A2.5,2.5,0,0,1,108.77,22.48Z"/><ellipse class="cls-12" cx="112.89" cy="20.59" rx="5.2" ry="3" transform="translate(38.14 107.66) rotate(-59.69)"/><ellipse class="cls-28" cx="112.97" cy="20.63" rx="5.2" ry="3" transform="matrix(0.5, -0.86, 0.86, 0.5, 38.15, 107.75)"/><path class="cls-12" d="M115,20.7l-.53,0,.55-.49a.31.31,0,0,0,.11-.27c0-.07-.11-.08-.18,0l-.84.73-.72-.06.72-.9.84-.22,0,0a.31.31,0,0,0,.15-.2c0-.11,0-.17-.11-.15l-.55.15.53-.66c.07-.09.1-.2.06-.26s-.13,0-.2.05l-.53.66.14-.71c0-.1,0-.17-.1-.15a.29.29,0,0,0-.18.22L114,19.46l-.74.91v-1l.61-1.05c.06-.1.06-.21,0-.24s-.15,0-.21.12l-.4.69V18.2c0-.09-.07-.13-.15-.08a.31.31,0,0,0-.14.25v.73l-.4-.23c-.06,0-.15,0-.21.12s-.06.21,0,.24l.61.35v.94l-.72-.06-.22-.82c0-.08-.1-.09-.18,0a.3.3,0,0,0-.1.27l.14.54-.55,0c-.07,0-.16.07-.2.17s0,.2,0,.2l.56,0-.55.48a.31.31,0,0,0-.11.27c0,.07.08.08.15,0l0,0,.84-.74.72.06-.72.9-.84.23a.34.34,0,0,0-.18.22c0,.1,0,.17.11.15l.55-.15-.56.68a.25.25,0,0,0,0,.26.09.09,0,0,0,.13,0,.19.19,0,0,0,.07-.06l.55-.68-.14.71c0,.1,0,.17.1.14h0a.36.36,0,0,0,.14-.21l.22-1.08.72-.89v1l-.61,1.05c-.06.1-.06.21,0,.24s.15,0,.21-.12l.4-.69v.7c0,.1.06.13.14.09a.34.34,0,0,0,.15-.26v-.7l.4.23a.11.11,0,0,0,.11,0,.36.36,0,0,0,.1-.11c.06-.1.06-.21,0-.24l-.61-.35v-1L114,21l.22.83a.09.09,0,0,0,.14,0l0,0a.29.29,0,0,0,.1-.26l-.14-.55.53,0,.07,0a.35.35,0,0,0,.13-.16C115.11,20.8,115.08,20.71,115,20.7Z"/><path class="cls-31" d="M96.36,69.25a.22.22,0,0,1-.22-.2.23.23,0,0,1,.21-.23,2.53,2.53,0,0,0,.48-.07.21.21,0,1,1,.12.41,2.91,2.91,0,0,1-.58.09Zm-.8-.09H95.5a2.52,2.52,0,0,1-.54-.21.22.22,0,0,1-.09-.3.21.21,0,0,1,.29-.08,3.66,3.66,0,0,0,.46.18.22.22,0,0,1,.15.27A.23.23,0,0,1,95.56,69.16Zm2.06-.32a.21.21,0,0,1-.18-.11.21.21,0,0,1,.08-.29l.46-.27a.22.22,0,1,1,.22.37l-.47.27A.2.2,0,0,1,97.62,68.84Zm-3.26-.28a.2.2,0,0,1-.11,0l-.47-.26a.22.22,0,0,1-.08-.3.21.21,0,0,1,.29-.08l.47.27a.21.21,0,0,1,.08.29A.21.21,0,0,1,94.36,68.56Zm4.43-.4a.21.21,0,0,1-.11-.4l.46-.28a.22.22,0,0,1,.3.08.23.23,0,0,1-.08.3l-.46.27Zm-5.61-.26a.19.19,0,0,1-.1,0l-.47-.27a.21.21,0,0,1-.08-.29.21.21,0,0,1,.29-.08l.47.26a.22.22,0,0,1,.08.3A.21.21,0,0,1,93.18,67.9ZM92,67.23a.19.19,0,0,1-.1,0l-.47-.26a.22.22,0,0,1-.08-.3.21.21,0,0,1,.29-.08l.47.27a.21.21,0,0,1-.11.4Zm-1.17-.67-.11,0-.46-.27a.21.21,0,0,1-.08-.29.21.21,0,0,1,.29-.09l.47.27a.21.21,0,0,1-.11.4Zm-1.17-.66a.23.23,0,0,1-.11,0l-.47-.27a.21.21,0,0,1-.08-.29.22.22,0,0,1,.3-.08l.47.26a.22.22,0,0,1-.11.41Zm-1.17-.67a.23.23,0,0,1-.11,0l-.47-.26a.22.22,0,1,1,.22-.38l.47.27a.22.22,0,0,1,.08.29A.23.23,0,0,1,88.5,65.23Zm-1.17-.66a.2.2,0,0,1-.11,0l-.47-.27a.21.21,0,0,1-.08-.29A.21.21,0,0,1,87,63.9l.47.26a.21.21,0,0,1,.08.3A.21.21,0,0,1,87.33,64.57Zm-1.17-.67a.2.2,0,0,1-.11,0l-.47-.27a.21.21,0,0,1-.08-.29.21.21,0,0,1,.29-.08l.47.27a.21.21,0,0,1,.08.29A.21.21,0,0,1,86.16,63.9ZM85,63.23a.19.19,0,0,1-.1,0l-.47-.26a.22.22,0,0,1,.21-.38l.47.27a.21.21,0,0,1-.11.4Zm-1.17-.66a.19.19,0,0,1-.1,0l-.47-.27a.21.21,0,0,1-.08-.29.21.21,0,0,1,.29-.08l.47.26a.22.22,0,0,1,.08.3A.21.21,0,0,1,83.81,62.57Zm-1.17-.67a.23.23,0,0,1-.11,0l-.46-.26a.23.23,0,0,1-.09-.3.22.22,0,0,1,.3-.08l.47.27a.21.21,0,0,1-.11.4Zm-1.17-.67a.22.22,0,0,1-.11,0l-.47-.27a.22.22,0,1,1,.22-.37l.47.26a.22.22,0,0,1,.08.3A.22.22,0,0,1,81.47,61.23Zm-1.08-.78a.2.2,0,0,1-.18-.1,1.36,1.36,0,0,1-.22-.59.23.23,0,0,1,.19-.24.22.22,0,0,1,.24.19,1,1,0,0,0,.15.41.21.21,0,0,1-.06.3A.27.27,0,0,1,80.39,60.45Zm0-1.28a.23.23,0,0,1-.11,0,.21.21,0,0,1-.08-.29,1.45,1.45,0,0,1,.42-.47.22.22,0,0,1,.3,0,.21.21,0,0,1,0,.3,1,1,0,0,0-.29.33A.23.23,0,0,1,80.36,59.17Zm1-.82a.22.22,0,0,1-.18-.1.22.22,0,0,1,.07-.3l.46-.28A.22.22,0,1,1,82,58l-.46.28A.27.27,0,0,1,81.4,58.35Zm1.15-.7a.22.22,0,0,1-.11-.4L82.9,57a.21.21,0,0,1,.3.07.21.21,0,0,1-.07.29l-.46.29A.27.27,0,0,1,82.55,57.65Zm1.15-.71a.2.2,0,0,1-.18-.1.22.22,0,0,1,.07-.3l.46-.28a.22.22,0,0,1,.3.08.21.21,0,0,1-.07.29l-.46.28A.27.27,0,0,1,83.7,56.94Zm1.15-.7a.2.2,0,0,1-.18-.1.22.22,0,0,1,.07-.3l.46-.28a.22.22,0,0,1,.3.07.22.22,0,0,1-.07.3l-.46.28Zm1.15-.7a.22.22,0,0,1-.11-.4l.46-.28a.22.22,0,0,1,.23.37l-.46.28A.27.27,0,0,1,86,55.54Zm1.15-.7a.22.22,0,0,1-.11-.4l.46-.28a.21.21,0,0,1,.3.07.21.21,0,0,1-.07.29l-.46.29Zm1.16-.7a.21.21,0,0,1-.19-.11.21.21,0,0,1,.07-.29l.46-.29a.22.22,0,0,1,.3.08.21.21,0,0,1-.07.29l-.46.28A.19.19,0,0,1,88.31,54.14Zm1.15-.71a.21.21,0,0,1-.19-.1.22.22,0,0,1,.07-.3l.46-.28a.22.22,0,0,1,.3.07.22.22,0,0,1-.07.3l-.46.28Zm1.15-.7a.23.23,0,0,1-.19-.1.22.22,0,0,1,.07-.3l.46-.28a.22.22,0,1,1,.23.37l-.46.28Zm1.15-.7a.21.21,0,0,1-.19-.11.21.21,0,0,1,.07-.29l.46-.28a.21.21,0,0,1,.3.07.22.22,0,0,1-.07.3l-.46.28Zm1.15-.7a.21.21,0,0,1-.19-.11.21.21,0,0,1,.07-.29l.46-.28a.21.21,0,0,1,.3.07.21.21,0,0,1-.07.29l-.46.28A.19.19,0,0,1,92.91,51.33Zm1.15-.71a.21.21,0,0,1-.19-.1.22.22,0,0,1,.07-.3l.46-.28a.22.22,0,1,1,.23.37l-.46.28Zm1.15-.7a.23.23,0,0,1-.19-.1.22.22,0,0,1,.07-.3l.46-.28a.22.22,0,0,1,.3.07.22.22,0,0,1-.07.3l-.46.28Zm1.15-.7a.23.23,0,0,1-.19-.1.22.22,0,0,1,.07-.3l.46-.28a.22.22,0,0,1,.3.07.22.22,0,0,1-.07.3l-.46.28Zm1.15-.7a.21.21,0,0,1-.19-.11.21.21,0,0,1,.07-.29l.46-.28a.21.21,0,1,1,.23.36l-.46.28A.17.17,0,0,1,97.51,48.52Zm1.15-.71a.21.21,0,0,1-.19-.1.22.22,0,0,1,.07-.3l.46-.28a.21.21,0,0,1,.3.08.21.21,0,0,1-.07.29l-.46.28A.23.23,0,0,1,98.66,47.81Zm1.15-.7a.21.21,0,0,1-.19-.1.22.22,0,0,1,.07-.3l.46-.28a.22.22,0,0,1,.3.07.22.22,0,0,1-.07.3l-.46.28A.23.23,0,0,1,99.81,47.11Zm1.15-.7a.23.23,0,0,1-.19-.1.22.22,0,0,1,.07-.3l.46-.28a.22.22,0,0,1,.3.07.22.22,0,0,1-.07.3l-.46.28A.23.23,0,0,1,101,46.41Zm1.15-.7a.23.23,0,0,1-.19-.11.21.21,0,0,1,.08-.29l.46-.28a.2.2,0,0,1,.29.07.21.21,0,0,1-.07.29l-.46.29A.23.23,0,0,1,102.11,45.71Zm1.15-.71a.22.22,0,0,1-.19-.1.21.21,0,0,1,.08-.29l.46-.29a.21.21,0,0,1,.29.08.21.21,0,0,1-.07.29l-.46.28A.23.23,0,0,1,103.26,45Zm1.15-.7a.21.21,0,0,1-.11-.4l.46-.28a.21.21,0,0,1,.29.07.22.22,0,0,1-.07.3l-.46.28A.2.2,0,0,1,104.41,44.3Zm1.15-.7a.24.24,0,0,1-.19-.1.22.22,0,0,1,.08-.3l.46-.28a.21.21,0,0,1,.29.07.22.22,0,0,1-.07.3l-.46.28A.2.2,0,0,1,105.56,43.6Zm1.15-.7a.23.23,0,0,1-.19-.11.21.21,0,0,1,.08-.29l.46-.28a.2.2,0,0,1,.29.07.22.22,0,0,1-.07.3l-.46.28A.2.2,0,0,1,106.71,42.9Zm1.15-.7a.23.23,0,0,1-.19-.11.21.21,0,0,1,.08-.29l.46-.29a.21.21,0,0,1,.29.08.21.21,0,0,1-.07.29l-.46.28A.15.15,0,0,1,107.86,42.2Zm1.15-.71a.23.23,0,0,1-.19-.1.22.22,0,0,1,.08-.3l.46-.28a.21.21,0,0,1,.29.07.22.22,0,0,1-.07.3l-.46.28A.2.2,0,0,1,109,41.49Zm1.15-.7a.26.26,0,0,1-.19-.1.22.22,0,0,1,.08-.3l.46-.28a.21.21,0,0,1,.29.07.21.21,0,0,1-.07.3l-.46.28A.2.2,0,0,1,110.16,40.79Zm1.12-.74a.26.26,0,0,1-.16-.07.22.22,0,0,1,0-.31,1.85,1.85,0,0,0,.31-.37.22.22,0,0,1,.3-.07.21.21,0,0,1,.06.3,2.33,2.33,0,0,1-.37.46A.22.22,0,0,1,111.28,40.05Zm.65-1.16h-.05a.21.21,0,0,1-.16-.25,2.09,2.09,0,0,0,0-.43v-.06a.22.22,0,0,1,.22-.22.21.21,0,0,1,.21.22v.06a3.05,3.05,0,0,1,0,.52A.21.21,0,0,1,111.93,38.89Zm0-1.35a.21.21,0,0,1-.22-.21v-.54a.22.22,0,0,1,.22-.22.21.21,0,0,1,.21.22v.54A.21.21,0,0,1,112,37.54Zm0-1.34a.22.22,0,0,1-.22-.22v-.54a.21.21,0,0,1,.22-.21.21.21,0,0,1,.21.21V36A.21.21,0,0,1,112,36.2Zm0-1.35a.22.22,0,0,1-.22-.22v-.54a.21.21,0,0,1,.22-.21.21.21,0,0,1,.21.21v.54A.21.21,0,0,1,112,34.85Zm0-1.35a.22.22,0,0,1-.22-.22v-.53a.22.22,0,0,1,.22-.22.21.21,0,0,1,.21.22v.53A.21.21,0,0,1,112,33.5Zm0-1.35a.21.21,0,0,1-.22-.21V31.4a.22.22,0,0,1,.22-.22.21.21,0,0,1,.21.22v.54A.21.21,0,0,1,112,32.15Zm0-1.34a.22.22,0,0,1-.22-.22v-.54a.22.22,0,0,1,.22-.22.21.21,0,0,1,.21.22v.54A.21.21,0,0,1,112,30.81Zm0-1.35a.22.22,0,0,1-.22-.22V28.7a.21.21,0,0,1,.22-.21.21.21,0,0,1,.21.21v.54A.21.21,0,0,1,112,29.46Zm0-1.35a.22.22,0,0,1-.22-.22v-.53a.22.22,0,0,1,.22-.22.21.21,0,0,1,.21.22v.53A.21.21,0,0,1,112,28.11Zm0-1.35a.21.21,0,0,1-.22-.21V26a.22.22,0,0,1,.22-.22.21.21,0,0,1,.21.22v.54A.21.21,0,0,1,112,26.76Z"/><path class="cls-2" d="M108.73,65.78c-2.67,1.55-8.37,1.13-8.37,1.13s-.72-3.29,2-4.83a7.05,7.05,0,0,1,6.39,0C110.48,63.11,110.49,64.76,108.73,65.78Z"/><path class="cls-6" d="M111.12,51.07A.12.12,0,0,1,111,51l0-.06a.13.13,0,0,1,.09-.16.13.13,0,0,1,.17.09l0,0a.15.15,0,0,1-.1.17Zm-.26-.82a.14.14,0,0,1-.13-.09,5.17,5.17,0,0,0-.18-.51.14.14,0,0,1,.08-.17.15.15,0,0,1,.18.08l.18.51a.14.14,0,0,1-.09.17ZM110.38,49a.13.13,0,0,1-.13-.08l-.22-.49a.14.14,0,1,1,.25-.11l.22.49a.14.14,0,0,1-.07.18Zm-.59-1.21a.17.17,0,0,1-.12-.07c-.08-.16-.16-.32-.25-.47a.13.13,0,0,1,0-.19.14.14,0,0,1,.18.05c.09.16.18.32.26.48a.13.13,0,0,1,0,.18Z"/><path class="cls-6" d="M110.26,54.55a.14.14,0,0,1-.14-.14c0-.17,0-.35,0-.53a.13.13,0,0,1,.12-.14.14.14,0,0,1,.15.12c0,.19,0,.37,0,.55a.15.15,0,0,1-.13.14Zm-.11-1.35a.14.14,0,0,1-.14-.11c0-.18-.05-.35-.08-.53a.13.13,0,0,1,.1-.16.14.14,0,0,1,.16.11l.09.54a.13.13,0,0,1-.12.15Zm-.26-1.32a.13.13,0,0,1-.13-.1c-.05-.17-.09-.34-.14-.52a.13.13,0,0,1,.09-.16.13.13,0,0,1,.17.09c.05.17.09.35.14.52a.14.14,0,0,1-.1.17Zm-.39-1.29a.13.13,0,0,1-.13-.09l-.18-.5a.14.14,0,0,1,.07-.18.15.15,0,0,1,.18.08l.19.51a.14.14,0,0,1-.09.17Zm-.5-1.25a.13.13,0,0,1-.12-.08c-.08-.16-.15-.33-.23-.49a.15.15,0,0,1,.06-.18.14.14,0,0,1,.18.07c.08.16.16.32.23.49a.14.14,0,0,1-.06.18Zm-.6-1.21a.13.13,0,0,1-.12-.07c-.08-.16-.17-.31-.26-.46a.14.14,0,0,1,0-.19.14.14,0,0,1,.19.05l.27.47a.14.14,0,0,1,0,.18A.11.11,0,0,1,108.4,48.13ZM107.71,47a.14.14,0,0,1-.12-.06c-.09-.15-.2-.3-.3-.45a.13.13,0,0,1,0-.18.13.13,0,0,1,.19,0l.31.45a.13.13,0,0,1,0,.18A.11.11,0,0,1,107.71,47Z"/><path class="cls-28" d="M102.29,43.74c-1.91-1.1-3.61-1.13-4.79-.31l-1.37.64.17.88a6.08,6.08,0,0,0-.46,2.47c0,2.8,1.49,7.22,3,11l1.62,8.45,1.79-.89s6.44-5.34,6.44-11.15A14.22,14.22,0,0,0,102.29,43.74Z"/><path class="cls-30" d="M107,55.76c0,5.81-6.45,11.15-6.45,11.15s-6.45-12.79-6.45-18.6c0-4.09,2.89-5.73,6.45-3.68A14.23,14.23,0,0,1,107,55.76Z"/><path class="cls-21" d="M100.91,44.41c-1.86-1.07-3.53-1.13-4.71-.36a4.72,4.72,0,0,1,4.3.58A14.23,14.23,0,0,1,107,55.76c0,5-4.73,9.61-6.09,10.83,0,.06-.22.2-.22.2s6.72-5.44,6.72-11.25A14.23,14.23,0,0,0,100.91,44.41Z"/><ellipse class="cls-12" cx="100.5" cy="52.03" rx="1.91" ry="3.31" transform="translate(-12.52 57.83) rotate(-30.31)"/><path class="cls-32" d="M101.23,54.39a5.15,5.15,0,0,1-2.35-4A1.81,1.81,0,0,1,99.32,49c-.7.06-1.17.65-1.17,1.65a5.17,5.17,0,0,0,2.35,4,1.51,1.51,0,0,0,1.9,0A2,2,0,0,1,101.23,54.39Z"/><polygon class="cls-31" points="98.32 67.38 99.54 68.24 100.42 66.98 98.32 67.38"/><path class="cls-30" d="M14.17,23.87h4.11V29.8a9.28,9.28,0,0,1-2.88,1.32,11.83,11.83,0,0,1-3.23.46,8.58,8.58,0,0,1-4-.93,7,7,0,0,1-2.8-2.6,7.65,7.65,0,0,1,0-7.6,6.93,6.93,0,0,1,2.83-2.61,8.87,8.87,0,0,1,4.1-.93,9.42,9.42,0,0,1,3.7.69,6.84,6.84,0,0,1,2.71,2l-3,2.66a4,4,0,0,0-3.15-1.54,3.33,3.33,0,0,0-2.49.94,3.55,3.55,0,0,0-.92,2.57A3.57,3.57,0,0,0,10,26.79a3.21,3.21,0,0,0,2.44,1,4.55,4.55,0,0,0,1.72-.34Z"/><path class="cls-30" d="M31,17.87a5.2,5.2,0,0,1,2.23,7.46A5,5,0,0,1,31,27.17a8.23,8.23,0,0,1-3.39.65h-2v3.44H20.81v-14h6.75A8.4,8.4,0,0,1,31,17.87Zm-2.24,5.87a1.78,1.78,0,0,0,0-2.43,2.09,2.09,0,0,0-1.45-.43H25.54v3.29h1.72A2.15,2.15,0,0,0,28.71,23.74Z"/><path class="cls-30" d="M38,31.19a9.19,9.19,0,0,1-2.72-1.05l1.53-3.45a9.67,9.67,0,0,0,2.24.94,9,9,0,0,0,2.39.35,3.84,3.84,0,0,0,1.4-.19.62.62,0,0,0,.42-.58c0-.29-.18-.51-.55-.66a13.81,13.81,0,0,0-1.81-.48,19.33,19.33,0,0,1-2.71-.73,4.61,4.61,0,0,1-1.88-1.28,3.47,3.47,0,0,1-.81-2.42,4.11,4.11,0,0,1,.75-2.4,4.86,4.86,0,0,1,2.21-1.71,9.29,9.29,0,0,1,3.58-.62,12.72,12.72,0,0,1,2.83.31,9,9,0,0,1,2.46.91L46,21.56a8.77,8.77,0,0,0-3.91-1c-1.22,0-1.83.29-1.83.88,0,.28.18.49.55.63a11.33,11.33,0,0,0,1.78.45,17.29,17.29,0,0,1,2.71.7,4.69,4.69,0,0,1,1.91,1.27,3.42,3.42,0,0,1,.81,2.4,4.15,4.15,0,0,1-.74,2.4A5,5,0,0,1,45,31a9.14,9.14,0,0,1-3.58.63A14.71,14.71,0,0,1,38,31.19Z"/><path class="cls-33" d="M5.7,2.06h.88v8.38H5.7Z"/><path class="cls-33" d="M14.23,4.78a2.69,2.69,0,0,1,.7,2v3.65h-.85V6.87a2.15,2.15,0,0,0-.49-1.5,1.87,1.87,0,0,0-1.4-.51,2.15,2.15,0,0,0-1.61.6A2.28,2.28,0,0,0,10,7.13v3.31H9.13V4.14H10V5.3a2.36,2.36,0,0,1,1-.89,3.11,3.11,0,0,1,1.43-.32A2.59,2.59,0,0,1,14.23,4.78Z"/><path class="cls-33" d="M20.56,10.06a1.77,1.77,0,0,1-.59.33,2.65,2.65,0,0,1-.74.11A1.86,1.86,0,0,1,17.86,10a1.83,1.83,0,0,1-.48-1.35V4.86H16.26V4.14h1.12V2.76h.85V4.14h1.92v.72H18.23V8.62a1.21,1.21,0,0,0,.29.86,1.06,1.06,0,0,0,.8.29,1.44,1.44,0,0,0,.51-.09,1.18,1.18,0,0,0,.43-.23Z"/><path class="cls-33" d="M27.36,7.55H22.09a2.24,2.24,0,0,0,.76,1.59,2.51,2.51,0,0,0,1.72.61,2.74,2.74,0,0,0,1.08-.21,2.36,2.36,0,0,0,.85-.62l.48.55a2.81,2.81,0,0,1-1.05.77,3.65,3.65,0,0,1-1.38.26,3.56,3.56,0,0,1-1.72-.41,3,3,0,0,1-1.17-1.15,3.24,3.24,0,0,1-.42-1.65,3.33,3.33,0,0,1,.4-1.65,2.94,2.94,0,0,1,1.1-1.14,3.13,3.13,0,0,1,1.58-.41,3.09,3.09,0,0,1,1.57.41A3,3,0,0,1,27,5.63a3.45,3.45,0,0,1,.39,1.66ZM22.79,5.4a2.33,2.33,0,0,0-.7,1.52h4.47a2.33,2.33,0,0,0-.7-1.52,2.2,2.2,0,0,0-1.54-.58A2.17,2.17,0,0,0,22.79,5.4Z"/><path class="cls-33" d="M34.94,4.14V9.67a3.22,3.22,0,0,1-.78,2.38,3.24,3.24,0,0,1-2.37.77,5.38,5.38,0,0,1-1.66-.25,3.47,3.47,0,0,1-1.27-.72l.43-.64a3.16,3.16,0,0,0,1.11.63,4.15,4.15,0,0,0,1.37.23,2.43,2.43,0,0,0,1.76-.56,2.37,2.37,0,0,0,.56-1.73V9a2.58,2.58,0,0,1-1,.91,3.18,3.18,0,0,1-1.42.31A3.33,3.33,0,0,1,30,9.81a2.79,2.79,0,0,1-1.14-1.09,3,3,0,0,1-.42-1.59,3,3,0,0,1,.42-1.58A2.87,2.87,0,0,1,30,4.47a3.46,3.46,0,0,1,1.62-.38,3.19,3.19,0,0,1,1.45.33,2.58,2.58,0,0,1,1,.93V4.14Zm-2,5a2.06,2.06,0,0,0,.86-.82,2.46,2.46,0,0,0,0-2.39A2.14,2.14,0,0,0,33,5.13a2.53,2.53,0,0,0-1.24-.3,2.66,2.66,0,0,0-1.23.29,2.16,2.16,0,0,0-.85.82,2.36,2.36,0,0,0-.3,1.19,2.38,2.38,0,0,0,.3,1.2,2.16,2.16,0,0,0,.85.82,2.54,2.54,0,0,0,1.23.3A2.49,2.49,0,0,0,33,9.15Z"/><path class="cls-33" d="M39,4.42a3,3,0,0,1,1.47-.33v.83h-.2a2,2,0,0,0-1.56.61,2.4,2.4,0,0,0-.56,1.71v3.21h-.85V4.14h.81V5.37A2.05,2.05,0,0,1,39,4.42Z"/><path class="cls-33" d="M46.12,4.71a2.38,2.38,0,0,1,.66,1.83v3.9H46v-1a1.89,1.89,0,0,1-.84.76,2.9,2.9,0,0,1-1.33.28,2.6,2.6,0,0,1-1.67-.5,1.63,1.63,0,0,1-.63-1.33,1.64,1.64,0,0,1,.58-1.3,2.9,2.9,0,0,1,1.85-.49h2V6.5a1.62,1.62,0,0,0-.45-1.24,1.9,1.9,0,0,0-1.33-.43A3.43,3.43,0,0,0,43,5a3,3,0,0,0-1,.55l-.38-.64a3.45,3.45,0,0,1,1.15-.63,4.72,4.72,0,0,1,1.41-.22A2.68,2.68,0,0,1,46.12,4.71Zm-1,4.79a2,2,0,0,0,.76-.95v-1H44c-1.08,0-1.62.37-1.62,1.12a1,1,0,0,0,.42.87,1.91,1.91,0,0,0,1.17.32A2.25,2.25,0,0,0,45.16,9.5Z"/><path class="cls-33" d="M52.4,10.06a1.6,1.6,0,0,1-.59.33,2.53,2.53,0,0,1-.73.11A1.84,1.84,0,0,1,49.71,10a1.83,1.83,0,0,1-.48-1.35V4.86H48.1V4.14h1.13V2.76h.85V4.14H52v.72H50.08V8.62a1.2,1.2,0,0,0,.28.86,1.1,1.1,0,0,0,.81.29,1.44,1.44,0,0,0,.51-.09,1.27,1.27,0,0,0,.43-.23Z"/><path class="cls-33" d="M59.21,7.55H53.94a2.27,2.27,0,0,0,.75,1.59,2.54,2.54,0,0,0,1.73.61,2.65,2.65,0,0,0,1.07-.21,2.28,2.28,0,0,0,.85-.62l.48.55a2.78,2.78,0,0,1-1,.77,3.66,3.66,0,0,1-1.39.26,3.58,3.58,0,0,1-1.72-.41,3,3,0,0,1-1.16-1.15,3.24,3.24,0,0,1-.42-1.65,3.33,3.33,0,0,1,.4-1.65,2.87,2.87,0,0,1,1.1-1.14,3.09,3.09,0,0,1,1.57-.41,3,3,0,0,1,1.57.41,2.82,2.82,0,0,1,1.09,1.13,3.34,3.34,0,0,1,.4,1.66ZM54.64,5.4a2.28,2.28,0,0,0-.7,1.52h4.47A2.29,2.29,0,0,0,57.7,5.4a2.31,2.31,0,0,0-3.06,0Z"/><path class="cls-33" d="M66.71,1.55v8.89h-.82V9.19a2.54,2.54,0,0,1-1,1,2.9,2.9,0,0,1-1.42.34,3.24,3.24,0,0,1-1.61-.41A2.86,2.86,0,0,1,60.73,9a3.35,3.35,0,0,1-.41-1.66,3.35,3.35,0,0,1,.41-1.66,2.86,2.86,0,0,1,1.12-1.14,3.34,3.34,0,0,1,1.61-.4,3,3,0,0,1,1.38.32,2.57,2.57,0,0,1,1,.93V1.55Zm-2,7.89a2.07,2.07,0,0,0,.84-.87,2.8,2.8,0,0,0,0-2.56,2.07,2.07,0,0,0-.84-.87,2.46,2.46,0,0,0-2.39,0,2.07,2.07,0,0,0-.84.87,2.8,2.8,0,0,0,0,2.56,2.07,2.07,0,0,0,.84.87,2.46,2.46,0,0,0,2.39,0Z"/><path class="cls-6" d="M3,18.47a.14.14,0,0,1,0-.19l0,0a.13.13,0,0,1,.19,0,.14.14,0,0,1,0,.18l0,.05a.14.14,0,0,1-.16,0Zm.53-.67a.14.14,0,0,1,0-.19l.36-.41a.14.14,0,0,1,.19,0,.13.13,0,0,1,0,.19l-.35.4a.14.14,0,0,1-.16,0Zm.92-1a.12.12,0,0,1,0-.19l.39-.37a.14.14,0,0,1,.19,0,.13.13,0,0,1,0,.19l-.38.37a.14.14,0,0,1-.15,0S4.45,16.82,4.44,16.8Zm1-.91a.13.13,0,0,1,0-.19,4.87,4.87,0,0,1,.42-.35.13.13,0,0,1,.19,0,.14.14,0,0,1,0,.19l-.41.34a.14.14,0,0,1-.14,0S5.44,15.9,5.42,15.89Z"/><path class="cls-6" d="M2.52,22a.14.14,0,0,1-.07-.18c.07-.16.15-.33.23-.49a.12.12,0,0,1,.18-.06.14.14,0,0,1,.06.18c-.08.16-.15.32-.22.48a.14.14,0,0,1-.18.07Zm.59-1.21a.13.13,0,0,1,0-.19c.09-.15.18-.31.28-.46a.14.14,0,0,1,.19,0,.13.13,0,0,1,0,.18c-.1.15-.19.31-.28.46a.13.13,0,0,1-.16.06Zm.72-1.14a.14.14,0,0,1,0-.19c.11-.14.21-.29.33-.43a.13.13,0,1,1,.21.16L4,19.65a.15.15,0,0,1-.16.05Zm.83-1.06a.13.13,0,0,1,0-.19L5,18a.13.13,0,0,1,.2.18l-.36.4a.14.14,0,0,1-.15,0Zm.92-1a.13.13,0,0,1,0-.19L6,17.07a.14.14,0,0,1,.19,0,.13.13,0,0,1,0,.19l-.39.37a.12.12,0,0,1-.14,0Zm1-.9a.13.13,0,0,1,0-.19L7,16.2a.13.13,0,0,1,.18,0,.13.13,0,0,1,0,.19l-.42.33a.13.13,0,0,1-.13,0A.13.13,0,0,1,6.58,16.73Zm1.07-.82a.14.14,0,0,1,0-.19l.45-.3a.14.14,0,0,1,.19,0,.13.13,0,0,1,0,.18l-.44.3a.15.15,0,0,1-.13,0A.15.15,0,0,1,7.65,15.91Z"/></g></g></svg>