<svg id="Layer_1" data-name="Layer 1" xmlns="http://www.w3.org/2000/svg" xmlns:xlink="http://www.w3.org/1999/xlink" viewBox="0 0 700 726"><defs><style>.cls-1{fill:none;}.cls-2{fill:url(#linear-gradient);}.cls-3{fill:#000e3e;}.cls-4{fill:#ff4f29;}.cls-5{fill:#ced1d2;}.cls-6{fill:#fff;}.cls-7{fill:#21db45;}.cls-8{fill:#eaff52;}.cls-9{fill:#00786a;}.cls-10{fill:#eb1c24;}.cls-11{fill:#e01901;}.cls-12{fill:#0b0a0c;}.cls-13{fill:#c2c2d2;}.cls-14{fill:#67677e;}.cls-15{fill:#10262a;}.cls-16{clip-path:url(#clip-path);}.cls-17{fill:#f6f9fa;}.cls-18{fill:#161616;}.cls-19{fill:#e6c69f;}.cls-20{fill:#ff391c;}.cls-21{fill:#002032;}.cls-22{fill:#031f51;}.cls-23{fill:#00beb7;}.cls-24{fill:#0d163f;}.cls-25{fill:#c0873d;}.cls-26{fill:#e8b369;}.cls-27{fill:#f6ca81;}.cls-28{fill:#008e80;}.cls-29{fill:#009689;}.cls-30{clip-path:url(#clip-path-2);}.cls-31{fill:#dae1f4;}.cls-32{fill:#a9befa;}.cls-33{fill:#d7dffb;}.cls-34{fill:#cf0601;}.cls-35{fill:#f81a09;}.cls-36{fill:#beb5bd;}</style><linearGradient id="linear-gradient" x1="33.9" y1="372.62" x2="699" y2="372.62" gradientUnits="userSpaceOnUse"><stop offset="0" stop-color="#ffbd49"/><stop offset="1" stop-color="#ffcb5a"/></linearGradient><clipPath id="clip-path"><path class="cls-1" d="M533,364.27V534.79a9.36,9.36,0,0,0,9.37,9.36h69.54a9.37,9.37,0,0,0,9.37-9.37V364.27a9.37,9.37,0,0,0-9.37-9.37H596.7a1.16,1.16,0,0,0-1.16,1.16v1.84a3.64,3.64,0,0,1-3.65,3.65H562.45a3.65,3.65,0,0,1-3.66-3.65v-1.84a1.15,1.15,0,0,0-1.16-1.16H542.4A9.37,9.37,0,0,0,533,364.27Z"/></clipPath><clipPath id="clip-path-2"><path class="cls-1" d="M185.32,481.43s7.81,70.81-60.93,67-55.25-68.66-55.25-68.66l48.58-41.54Z"/></clipPath></defs><title>video</title><path class="cls-2" d="M50.53,526.9a102,102,0,0,0,14.85,21.18H657.54a104.71,104.71,0,0,0,12.7-16.68,200.29,200.29,0,0,0,14.83-25.61c30.81-64.34,11.8-156.14-70.1-168.24-30.2-4.48-61.63-2.76-90.58-13.7-38.21-14.42-50.71-49.4-75.39-78.47-18.06-21.32-42.39-38.21-69.67-45.05-50.59-12.7-102.18,14.31-130.8,55.79-14.9,21.61-26.36,45.46-42,66.51C163.06,380.74,37.87,373.76,34,461.79,33,484.42,39.7,507,50.53,526.9Z"/><path class="cls-3" d="M154.37,310.94q-.05.87-.05,1.75a29.38,29.38,0,0,0,1.12,8v0l3.49-1a25.66,25.66,0,0,0,5.51,10l-2.73,2.43a29.45,29.45,0,0,0,7.67,6.16l1.78-3.19a25.72,25.72,0,0,0,11,3.23l-.22,3.64q.88.05,1.77.05a29.4,29.4,0,0,0,8-1.12l.09,0-1-3.49a25.66,25.66,0,0,0,10-5.53l2.43,2.73a29.45,29.45,0,0,0,6.14-7.68l-3.19-1.77a25.72,25.72,0,0,0,3.2-11l3.64.21q0-.85,0-1.7a29.39,29.39,0,0,0-1.12-8l0-.07-3.49,1a25.66,25.66,0,0,0-5.53-10l2.73-2.43A29.46,29.46,0,0,0,198,287l-1.77,3.19a25.72,25.72,0,0,0-11-3.21l.22-3.64q-.86-.05-1.72-.05a29.43,29.43,0,0,0-8,1.12h0l1,3.49a25.66,25.66,0,0,0-10,5.52l-2.43-2.73A29.45,29.45,0,0,0,158,298.4l3.19,1.78a25.73,25.73,0,0,0-3.22,11Zm35.55,23.69.18.63h0ZM168.14,312.7a15.6,15.6,0,1,1,.59,4.25A15.58,15.58,0,0,1,168.14,312.7Z"/><path class="cls-3" d="M320.73,248.13q0,.39,0,.79a13.22,13.22,0,0,0,.5,3.61h0l1.57-.45a11.54,11.54,0,0,0,2.48,4.51L324,257.69a13.24,13.24,0,0,0,3.45,2.77l.8-1.43a11.57,11.57,0,0,0,4.94,1.45l-.1,1.64.8,0a13.23,13.23,0,0,0,3.61-.5h0l-.45-1.57a11.54,11.54,0,0,0,4.51-2.49l1.09,1.23a13.25,13.25,0,0,0,2.76-3.46l-1.43-.8a11.57,11.57,0,0,0,1.44-4.95l1.64.1q0-.38,0-.76a13.22,13.22,0,0,0-.5-3.6v0l-1.57.45a11.54,11.54,0,0,0-2.49-4.51l1.23-1.09a13.25,13.25,0,0,0-3.45-2.77l-.8,1.43a11.57,11.57,0,0,0-4.94-1.44l.1-1.64-.78,0a13.24,13.24,0,0,0-3.61.5h0l.45,1.57a11.54,11.54,0,0,0-4.51,2.48L325.15,239a13.24,13.24,0,0,0-2.77,3.45l1.43.8a11.57,11.57,0,0,0-1.45,4.94Zm16,10.65.08.29h0Zm-9.8-9.86a7,7,0,1,1,.27,1.91A7,7,0,0,1,326.92,248.92Z"/><path class="cls-4" d="M366.93,477.19H500.52l-47-68.13a11.48,11.48,0,0,0-9.45-5H366.93Z"/><path class="cls-3" d="M430.26,462.69h49.31l-33-49a5.73,5.73,0,0,0-4.75-2.53H417.71a2.11,2.11,0,0,0-2.11,2.11V448A14.65,14.65,0,0,0,430.26,462.69Z"/><path class="cls-5" d="M418.12,416v30.91A13.12,13.12,0,0,0,431.23,460h44.13l-29.51-43.85a5.11,5.11,0,0,0-4.25-2.27H420.23A2.11,2.11,0,0,0,418.12,416Z"/><polygon class="cls-6" points="429.01 413.86 445 459.99 462.5 459.99 432.82 413.86 429.01 413.86"/><path class="cls-4" d="M398.44,462.69v60.49h126V475.4a12.78,12.78,0,0,0-12.7-12.7Z"/><rect class="cls-7" x="153.32" y="372.59" width="248.07" height="151.23"/><rect class="cls-8" x="160.48" y="379.51" width="233.75" height="137.38"/><rect class="cls-9" x="172.19" y="388.14" width="73.95" height="23.42" transform="translate(418.33 799.7) rotate(-180)"/><path class="cls-10" d="M502.36,467.56c-.18,1.26,11.67,7.91,11.67,7.91h10.43v-.08a12.51,12.51,0,0,0-3.1-8.27C516,467,502.48,466.55,502.36,467.56Z"/><path class="cls-11" d="M436.24,523.19h65.83a32.92,32.92,0,0,0-65.83,0Z"/><path class="cls-12" d="M440.23,523.19h56.94a28.47,28.47,0,0,0-56.94,0Z"/><circle class="cls-3" cx="468.69" cy="523.5" r="24.48"/><path class="cls-13" d="M486.91,517.58a19.15,19.15,0,1,0-1.15,14.61A19.17,19.17,0,0,0,486.91,517.58ZM474.09,507a17.46,17.46,0,0,1,8.68,6.31,1.21,1.21,0,0,1-.62,1.85l-5.09,1.65a3.29,3.29,0,0,1-3-.48l-.19-.14a3.28,3.28,0,0,1-1.37-2.69v-5.34A1.21,1.21,0,0,1,474.09,507Zm-19.46,6.32a17.27,17.27,0,0,1,8.68-6.34h0a1.2,1.2,0,0,1,1.57,1.14v5.38a3.28,3.28,0,0,1-1.37,2.69l-.19.14a3.29,3.29,0,0,1-3,.48l-5.08-1.65A1.21,1.21,0,0,1,454.63,513.28Zm0,20.46a17.34,17.34,0,0,1-3.33-10.23,1.21,1.21,0,0,1,1.59-1.14L458,524a3.28,3.28,0,0,1,2.13,2.14l.08.24a3.29,3.29,0,0,1-.47,3l-3.14,4.33A1.2,1.2,0,0,1,454.62,533.74Zm19.47,6.32h0a17.27,17.27,0,0,1-10.74,0,1.21,1.21,0,0,1-.59-1.86l3.13-4.3a3.42,3.42,0,0,1,2.81-1.37h0a3.42,3.42,0,0,1,2.81,1.37l3.16,4.35A1.18,1.18,0,0,1,474.09,540.05Zm8.68-6.35a1.21,1.21,0,0,1-2,0l-3.13-4.31a3.29,3.29,0,0,1-.47-3l.08-.24a3.28,3.28,0,0,1,2.13-2.14l5.08-1.65a1.21,1.21,0,0,1,1.59,1.15A17.45,17.45,0,0,1,482.77,533.7Z"/><circle class="cls-13" cx="468.69" cy="523.5" r="5.83"/><path class="cls-14" d="M468.69,529.75a6.25,6.25,0,1,1,6.25-6.25A6.26,6.26,0,0,1,468.69,529.75Zm0-11.66a5.4,5.4,0,1,0,5.4,5.4A5.41,5.41,0,0,0,468.69,518.1Z"/><path class="cls-9" d="M189.87,523.51v.3h65.86v-.3a32.93,32.93,0,1,0-65.86,0Z"/><path class="cls-12" d="M193.87,523.51v.3h56.91v-.3a28.46,28.46,0,1,0-56.91,0Z"/><circle class="cls-3" cx="222.33" cy="523.5" r="24.48"/><path class="cls-13" d="M240.54,517.58a19.15,19.15,0,1,0-1.15,14.61A19.18,19.18,0,0,0,240.54,517.58ZM227.72,507a17.46,17.46,0,0,1,8.68,6.31,1.21,1.21,0,0,1-.62,1.85l-5.09,1.65a3.29,3.29,0,0,1-3-.48l-.19-.14a3.28,3.28,0,0,1-1.37-2.69v-5.34A1.21,1.21,0,0,1,227.72,507Zm-19.46,6.32a17.27,17.27,0,0,1,8.68-6.34h0a1.2,1.2,0,0,1,1.57,1.14v5.38a3.28,3.28,0,0,1-1.37,2.69l-.19.14a3.29,3.29,0,0,1-3,.48l-5.08-1.65A1.21,1.21,0,0,1,208.26,513.28Zm0,20.46a17.34,17.34,0,0,1-3.33-10.23,1.21,1.21,0,0,1,1.59-1.14l5.08,1.65a3.28,3.28,0,0,1,2.13,2.14l.08.24a3.29,3.29,0,0,1-.47,3l-3.14,4.33A1.2,1.2,0,0,1,208.25,533.74Zm19.47,6.32h0A17.27,17.27,0,0,1,217,540a1.21,1.21,0,0,1-.59-1.86l3.13-4.3a3.42,3.42,0,0,1,2.81-1.37h0a3.42,3.42,0,0,1,2.81,1.37l3.16,4.35A1.18,1.18,0,0,1,227.72,540.05Zm8.68-6.35a1.21,1.21,0,0,1-2,0l-3.13-4.31a3.29,3.29,0,0,1-.47-3l.08-.24a3.28,3.28,0,0,1,2.13-2.14l5.08-1.65a1.21,1.21,0,0,1,1.59,1.15A17.45,17.45,0,0,1,236.41,533.7Z"/><circle class="cls-13" cx="222.33" cy="523.5" r="5.83"/><path class="cls-14" d="M222.33,529.75a6.25,6.25,0,1,1,6.25-6.25A6.26,6.26,0,0,1,222.33,529.75Zm0-11.66a5.4,5.4,0,1,0,5.4,5.4A5.41,5.41,0,0,0,222.33,518.1Z"/><path class="cls-15" d="M421.07,472.78h13a1.89,1.89,0,0,0,1.89-1.89h0a1.89,1.89,0,0,0-1.89-1.89h-13a1.89,1.89,0,0,0-1.89,1.89h0A1.89,1.89,0,0,0,421.07,472.78Z"/><path class="cls-12" d="M530.32,363.61V535.45a11.83,11.83,0,0,0,11.83,11.83h70A11.83,11.83,0,0,0,624,535.45V363.61a11.83,11.83,0,0,0-11.83-11.83h-70A11.83,11.83,0,0,0,530.32,363.61Zm2.72.67a9.36,9.36,0,0,1,9.36-9.37h10.93V369H601V354.9h10.93a9.37,9.37,0,0,1,9.37,9.37V534.79a9.37,9.37,0,0,1-9.37,9.37H542.4a9.36,9.36,0,0,1-9.36-9.37Z"/><path class="cls-12" d="M573.89,358.05a.71.71,0,0,0,.71.71h9.1a.71.71,0,0,0,0-1.41h-9.1A.7.7,0,0,0,573.89,358.05Zm-3.94,0a.8.8,0,1,0,.8-.8A.8.8,0,0,0,569.94,358.05Z"/><path class="cls-5" d="M533,364.26V534.8a9.37,9.37,0,0,0,9.37,9.35H612a9.36,9.36,0,0,0,9.35-9.37V364.26a9.36,9.36,0,0,0-9.37-9.35H596.71a1.15,1.15,0,0,0-1.16,1.15v1.84a3.65,3.65,0,0,1-3.64,3.66H562.44a3.65,3.65,0,0,1-3.64-3.66v-1.84a1.15,1.15,0,0,0-1.16-1.15H542.4A9.37,9.37,0,0,0,533,364.26Z"/><g class="cls-16"><path class="cls-17" d="M527.5,427l41.32-8.87-6.27,25.58,13.1,33.69L582.11,494l2-.76-10.82-27.81,19-5.84,10.4,38.75,1-.27L593,458.28l-20.14,6.18-8.12-20.88,6.57-26.79L591,406.47l21.14,99.81,1.17-3.6L594.1,411.21,609,441.7l7.21,45.18,1-.17L610,441.31l-16.72-34.18-.27-1.32,29.6-26.49-1.4-1.57-15.69,14-27.3-38.25-1.71,1.22,27.44,38.44L592.3,403.62,581.4,374.74l-30.27-24.43-1.32,1.64L579,375.53l-18.65,9.32,9,31L527.05,425Zm44.16-11.59v0l-1.2.26-8.82-30.23,18.12-9.06,11,29.08Z"/></g><path class="cls-5" d="M563.64,540.57H590.7a.54.54,0,1,0,0-1.08H563.64a.54.54,0,1,0,0,1.08Z"/><rect class="cls-18" x="530.32" y="369.48" width="2.72" height="1.35" transform="translate(1063.35 740.31) rotate(-180)"/><rect class="cls-18" x="530.32" y="528.23" width="2.72" height="1.35" transform="translate(1063.35 1057.81) rotate(-180)"/><rect class="cls-18" x="621.31" y="528.23" width="2.72" height="1.35" transform="translate(1245.33 1057.81) rotate(-180)"/><path class="cls-1" d="M542.4,356.65H557v1.25a5.4,5.4,0,0,0,5.4,5.4h29.44a5.4,5.4,0,0,0,5.4-5.4v-1.25h14.65a7.62,7.62,0,0,1,7.62,7.62V534.79a7.62,7.62,0,0,1-7.62,7.62H542.4a7.62,7.62,0,0,1-7.62-7.62V364.27a7.62,7.62,0,0,1,7.62-7.62Z"/><polygon class="cls-17" points="551.77 544.18 553.64 544.14 550.58 487.13 575.96 478.3 575.35 476.53 548.63 485.82 551.77 544.18"/><polygon class="cls-17" points="611.63 544.5 612.25 543.8 588.25 522.78 603.57 498.03 602.77 497.53 587.03 522.96 611.63 544.5"/><polygon class="cls-17" points="579.54 511.88 583.63 493.49 581.79 493.08 578.37 508.51 550.2 485.75 549.01 487.21 579.54 511.88"/><polygon class="cls-17" points="572.03 544.16 579.87 510.41 578.04 509.98 570.11 544.16 572.03 544.16"/><polygon class="cls-17" points="533.03 479.91 533.03 482.41 533.01 484.91 544.03 457.75 564.3 443.9 563.23 442.35 542.49 456.51 533.03 479.91"/><polygon class="cls-17" points="605.71 537.77 617.24 486.61 616.33 486.4 604.79 537.56 605.71 537.77"/><path class="cls-4" d="M560.22,425.35c0,8.3,15,33.67,15,33.67-.35,0,15-25.37,15-33.67a15,15,0,0,0-30.05,0Z"/><circle class="cls-17" cx="575.25" cy="425.35" r="6.64"/><path class="cls-19" d="M162.13,513.85c-6.61-2.63-4.28,21.77-2.21,28.57s3.1,2.47,3.8-9.13S164.73,514.88,162.13,513.85Z"/><path class="cls-19" d="M172.66,513.26c-6.83-1.67-1.65,22.19,1.1,28.65s3,2,2.48-9.58S175.35,513.92,172.66,513.26Z"/><path class="cls-19" d="M163.21,484.54a4.45,4.45,0,0,0-5.57,3.4,63.49,63.49,0,0,0-.89,10.64c.12,8.87-.25,17.06,3,18.88s7.38-2.8,8.3-11.43c.83-7.8,3-17.37.92-19.13C167.86,486,165.39,485.17,163.21,484.54Z"/><path class="cls-19" d="M169.06,484.82a4.52,4.52,0,0,0-4.53,4.51,66.81,66.81,0,0,0,.8,10.48c1.45,8.55,2.35,16.55,5.53,17.6s6.25-4.33,5.78-12.87c-.43-7.72.13-17.46-2.05-18.7C173.5,485.22,171.13,484.95,169.06,484.82Z"/><path class="cls-20" d="M177.17,477.24s-.25,34.7-.42,37.81.17,25.18.17,25.18l-4.82-.1s-8.26-47.29-7.75-55S177.17,477.24,177.17,477.24Z"/><path class="cls-4" d="M155,485s1.59,25.7,1.82,29.5,1.66,25.72,1.66,25.72h4.89s3.17-20.26,3.6-23.3c.59-4.11,3.55-25.06,3.77-36.8S155,485,155,485Z"/><path class="cls-19" d="M168.22,443.13a3.19,3.19,0,0,0-.62,3.35c1.88,5.16,8.49,22.34,12.4,21.24,4.6-1.3-2.17-16.2-4.67-20.27C173.23,444.06,170.31,441,168.22,443.13Z"/><path class="cls-19" d="M179,468.06a3.15,3.15,0,0,1,0-2.92c2.17-4.59,10.15-21.15,12.37-21.08,2.58.09-7.83,24.5-9.18,24.73C181,469,179.78,469.49,179,468.06Z"/><g id="_Group_" data-name="&lt;Group&gt;"><path class="cls-21" d="M174.53,418.34s2.5,4.92-.13,6.76l-.05-.07s-3.43-.75-4.23,1c-.58,1.27.26,2.32-.26,3.05-.87,1.2-2.47-2.61-3.29-2.34s-1.54,1.25-.43,3c1.56,2.45-3.76,3.65-3.76,3.65h-.08c-.78-1-6.88-9.31.17-11.78C170,419,172.45,420.51,174.53,418.34Z"/><path class="cls-19" d="M174.35,425l.05.07-.05,0s2.35,10.15-.46,12a4.69,4.69,0,0,1-5.08.27l-.46,4.26L161.66,439l.72-5.53-.08-.1h.08s5.32-1.19,3.76-3.65c-1.11-1.75-.38-2.72.43-3s2.42,3.54,3.29,2.34c.52-.73-.32-1.78.26-3.05C170.92,424.27,174.35,425,174.35,425Z"/></g><path class="cls-22" d="M172.24,443.15a43.25,43.25,0,0,1,5.85,8.51c2.31,4.61,2.39,6.47,3.06,6.43s5.76-10,5.76-10l4.57,2s-6.56,19.82-10.51,19.77-11.39-10.24-11.39-10.24Z"/><path class="cls-3" d="M170.15,442.17l-.51-1.3a10.37,10.37,0,0,0-1-.52v0a11.87,11.87,0,0,1-6.83-2.76,11.36,11.36,0,0,0-2.66,1.66c.36.17.81.4,1.34.71-.53-.3-1-.53-1.34-.7-2.22,1.7-5.42,4.51-4.93,10.86.83,11,1.68,18.07,1.77,24s-1.82,11.27-1.06,12.1c.41.45,4.34,1.21,8.62,1.2,2.87.26,9.91-.56,12.53-.63,2.92-.08,2.84-8.38,2.77-10.62a41.92,41.92,0,0,0,.19-4.38c0-6.2-1.93-22.55-4.36-26.23a15.18,15.18,0,0,0-5-4.67l.51,1.3m6.37,32,0,.16Z"/><path class="cls-19" d="M157.18,443a3.19,3.19,0,0,0-1.53,3c.37,5.48,1.9,23.82,6,23.85,4.78,0,2.45-16.16,1.18-20.77C161.73,445.26,159.77,441.54,157.18,443Z"/><path class="cls-19" d="M162.26,465.93a3.15,3.15,0,0,1,2.44,1.6c2.58,4.37,11.81,20.27,10.5,22.07-1.52,2.09-15.88-20.23-15.32-21.48C160.33,467.15,160.61,465.82,162.26,465.93Z"/><path class="cls-23" d="M176.74,541.66a17.61,17.61,0,0,0,3.18,3c2.22,1.72,2.81,1.36,2.85,2s-9.28,0-9.28,0v-5.21A26,26,0,0,1,176.74,541.66Z"/><path class="cls-23" d="M159.63,541.25a5.27,5.27,0,0,1-.79,2.94c-1.31,2.26-1.32,1.8-1,2.62s5.65.13,5.65.13l-.48-5.74A21.43,21.43,0,0,0,159.63,541.25Z"/><polyline class="cls-1" points="177.59 477.85 176.98 477.97 175.28 478.28 174.85 478.36"/><path class="cls-22" d="M155,450s1.68,15.07,4,18.8,10.64,17,10.64,17l4.79-2.79s-8.42-15.47-9-17-1.42-14.45-2.66-18.62-3.23-5.92-5.59-5.32C153.58,443,155,450,155,450Z"/><path class="cls-19" d="M177.68,493.76c.6-.36-1.35-3.34-1.82-4.27a.64.64,0,0,1-.1-.27s.05,0,.11,0c.37.21,1.54,1.47,2.07,1.08s-.89-2.77-1.95-3.67l-.18-.15a2.69,2.69,0,0,0-3-.53c-1.94.82-.11,4.08.55,5.17a6.57,6.57,0,0,0,2.41,2.18C176.57,493.76,177.34,494,177.68,493.76Z"/><path class="cls-19" d="M188.89,441.77s-.93-.38-1,.27a18.71,18.71,0,0,0,.1,2.54"/><polygon class="cls-24" points="195.49 436.31 192.21 447.1 187.17 447.13 190.52 436.54 195.49 436.31"/><path class="cls-19" d="M194.33,443.17a1.07,1.07,0,0,0-.74-1.29c-1.18-.24-3.1-.47-3.32.53-.32,1.46.05,4,1.63,4.09C193.26,446.55,193.9,445.31,194.33,443.17Z"/><path class="cls-19" d="M469.45,484.51a4.2,4.2,0,0,1,2.79,5.34,28,28,0,0,1-3.32,7c-4.43,6.91-7.78,16.12-11,16.12s-4.43-5.68-1.4-13.12c2.73-6.73,5.18-15.54,7.56-16A15.61,15.61,0,0,1,469.45,484.51Z"/><path class="cls-19" d="M471.24,513.38c2.45-7.09,18.91,17,22.32,24.68s-1.22,4.09-9.77-5.93S470.28,516.17,471.24,513.38Z"/><path class="cls-19" d="M455.59,508.9c6.41-3.91,3.75,25.18,1.51,33.25s-3.54,2.38-3.76-10.79S453.07,510.44,455.59,508.9Z"/><path class="cls-19" d="M473.53,484.06a4.16,4.16,0,0,1,5,3.44,27.24,27.24,0,0,1,0,7.81c-1.12,8.29-.18,18.12-3.27,19.67s-6.77-3-7.22-11.06c-.41-7.32-2-16.37,0-17.92A17.67,17.67,0,0,1,473.53,484.06Z"/><path class="cls-12" d="M479.26,444.6c-.09-4.54.4-9.53-3.72-13-2.65-2.64-5.78-2.41-8.09-1.77-2,.54-2.85,2.53-3.21,4.36-.58,3,0,6.12.35,9.07a35.59,35.59,0,0,1,.29,4.83c0,1.28-.17,2.53-.27,3.8a5.46,5.46,0,0,0,.34,2.65,2.56,2.56,0,0,0,2.49,1.58q2.65,0,5.3.09a15,15,0,0,1,2.93.32,6.3,6.3,0,0,0,3.84-.26,9,9,0,0,0,4.34-4.24A8.58,8.58,0,0,1,479.26,444.6Z"/><rect class="cls-19" x="470.35" y="443.82" width="5.19" height="5.94" transform="translate(1049.79 747.7) rotate(164.18)"/><path class="cls-19" d="M472.36,445.18s-3.24,2-4.26,1.17-4.23-6.6-3.08-10.52,5.93-5.55,8.75-3.94,3.29,10.84,1.37,11.91A19.87,19.87,0,0,1,472.36,445.18Z"/><path class="cls-19" d="M441.23,441.51c-.74,1.7-3.52.09-4.45-.49-1.51-.95-2.57-3.21-2.2-3.81s3.69,1.76,3.88,1.69-1.3-1.38-.9-1.91,2.62.94,3.26,1.87A2.36,2.36,0,0,1,441.23,441.51Z"/><path class="cls-19" d="M477.41,455a2.68,2.68,0,0,1-2.57,1.25c-4.59-.37-20-1.88-19.93-5.29,0-4,13.58-1.86,17.43-.74C475.54,451.11,478.64,452.8,477.41,455Z"/><path class="cls-19" d="M459.22,450.71a2.64,2.64,0,0,0-1.35-2c-3.68-2.15-17-9.82-18.55-8.72-1.74,1.28,17,13.24,18.08,12.76C458.21,452.33,459.32,452.09,459.22,450.71Z"/><path class="cls-22" d="M472,456.82s-11.42-1.36-15.11-3.37c-3.11-1.7-9.26-5.92-9.26-5.92l2.21-3.7s7.64,4.45,8.13,4.61,10.11,0,13.47,1,7.45,2.41,6.77,5.46S472,456.82,472,456.82Z"/><rect class="cls-25" x="420.89" y="423.51" width="31.32" height="31.32" transform="translate(-94.57 120.8) rotate(-14.23)"/><rect class="cls-26" x="427.98" y="421.71" width="31.32" height="31.32" transform="translate(-93.91 122.49) rotate(-14.23)"/><rect class="cls-27" x="442.12" y="420.86" width="6.3" height="3.66" transform="translate(-90.25 122.45) rotate(-14.23)"/><rect class="cls-25" x="429.62" y="428.68" width="13.22" height="1.93" transform="translate(964.7 738.86) rotate(165.77)"/><rect class="cls-25" x="443.38" y="441.89" width="18.03" height="5.96" transform="translate(-95.48 124.87) rotate(-14.23)"/><rect class="cls-27" x="444.44" y="444.11" width="7.47" height="1.37" transform="translate(991.94 765.75) rotate(165.77)"/><rect class="cls-26" x="455.99" y="441.39" width="4.02" height="4.02" transform="translate(1010.94 760.6) rotate(165.77)"/><rect class="cls-26" x="420.41" y="426.89" width="2.13" height="3.3" transform="translate(-92.43 116.78) rotate(-14.23)"/><path class="cls-19" d="M474.19,448.16a3.76,3.76,0,0,1,4.45,1.7,14.38,14.38,0,0,1,2.14,8.85c-.63,6.7-4.25,7.77-4.25,14.67s2.35,11.75,2,12.53-15.89,1.65-17.06-.29S464,477.24,464,471.8s-2-6.48-1.55-10.7,5-6.9,7.78-10.2A9.28,9.28,0,0,1,474.19,448.16Z"/><path class="cls-28" d="M460.54,485.88s-8.36,18.42-8.36,25.19,1,29.95,1,29.95l5.23.17s1.82-26,2.33-27.29,15.6-15.17,15.6-26.82S460.54,485.88,460.54,485.88Z"/><path class="cls-29" d="M479.42,486a17.77,17.77,0,0,1,2.14,10.11c-.34,6.34-3.94,16.11-3,17.91s15.6,23.14,15.6,23.14l-3.94,3.6S469,518,468,514.58s-4.8-24.08-4.8-27.68S479.42,486,479.42,486Z"/><path class="cls-3" d="M477.41,447.58a2.42,2.42,0,0,0-1.59-.2,12.65,12.65,0,0,0-6.26,3.22c-2.87,2.89-7.52,5.72-8.13,11s2.21,6.36,1.29,12.15-3.34,11.28-2.18,12.15,4.25,1.61,9.08,1.51,10.48-.13,10.36-1.67-3.39-8.13-2.29-13.72,3.58-10.15,3.58-15.62C481.26,451.61,479.43,448.6,477.41,447.58Z"/><path class="cls-19" d="M439.73,451.8c-.45,1.8-3.46.68-4.47.26-1.65-.68-3.06-2.73-2.8-3.39s3.93,1.12,4.11,1-1.51-1.14-1.21-1.73,2.74.49,3.53,1.3A2.36,2.36,0,0,1,439.73,451.8Z"/><path class="cls-19" d="M477.24,453.8a2.68,2.68,0,0,1-1.65,2.33c-4.21,1.88-18.41,7.94-20,4.94-1.9-3.53,11-8.16,14.93-9C473.76,451.33,477.28,451.32,477.24,453.8Z"/><path class="cls-19" d="M458.49,459.7a2.64,2.64,0,0,0-1.54-1.9c-3.86-1.79-17.91-8.16-19.3-6.91-1.61,1.44,18.21,11.56,19.21,11C457.64,461.42,458.73,461.07,458.49,459.7Z"/><path class="cls-22" d="M473.36,458.06s-12.7,5.28-16.2,4.69-9.74-4.78-9.74-4.78l1.75-3.8s7.36,3.37,7.87,3.27,8.88-4.83,12.3-5.6,7.69-1.47,8.56,1.54S473.36,458.06,473.36,458.06Z"/><path class="cls-3" d="M454.06,542.78a18,18,0,0,1-3.22,2.62c-2.19,1.46-2.71,1.08-2.8,1.67s8.67.62,8.67.62l.17-4.88A21,21,0,0,0,454.06,542.78Z"/><path class="cls-3" d="M492.1,541.17a18,18,0,0,1-.39,4.13c-.49,2.58-1.13,2.69-.77,3.17s6.52-5.75,6.52-5.75l-3.36-3.54A21,21,0,0,0,492.1,541.17Z"/><path class="cls-12" d="M475.64,448h0s0,0,0,0c-.22-4.49,2.18-10.27,2.18-10.27s-2.64-6.56-3.67-7.14c-.73-.41-4.63-.52-4.63-.52l-4.49,2.5h0a5.57,5.57,0,0,0,1.49,2.17h0a5.24,5.24,0,0,0,1.12.77c2,1,4.77,2.55,4.6,5.51,0,.48-.1,1.09-.18,1.79-.4,3.59-.86,9.45,4.61,11.21A22.11,22.11,0,0,1,475.64,448Z"/><rect class="cls-25" x="256.87" y="458.36" width="38.85" height="38.85"/><rect class="cls-26" x="265.95" y="458.36" width="38.85" height="38.85"/><rect class="cls-27" x="287.9" y="458.36" width="7.82" height="4.54"/><rect class="cls-25" x="270.62" y="465.04" width="16.4" height="2.4" transform="translate(557.64 932.48) rotate(-180)"/><rect class="cls-25" x="282.43" y="485.77" width="22.37" height="7.4"/><rect class="cls-27" x="283.93" y="487.24" width="9.27" height="1.7" transform="translate(577.12 976.19) rotate(-180)"/><rect class="cls-26" x="298.31" y="486.93" width="4.98" height="4.98" transform="translate(601.6 978.84) rotate(-180)"/><rect class="cls-26" x="260.09" y="458.36" width="2.64" height="4.1"/><rect class="cls-25" x="353.78" y="507.97" width="38.85" height="38.85"/><rect class="cls-26" x="362.86" y="507.97" width="38.85" height="38.85"/><rect class="cls-27" x="384.81" y="507.97" width="7.82" height="4.54"/><rect class="cls-25" x="367.53" y="514.65" width="16.4" height="2.4" transform="translate(751.45 1031.7) rotate(-180)"/><rect class="cls-25" x="379.34" y="535.38" width="22.37" height="7.4"/><rect class="cls-27" x="380.83" y="536.85" width="9.27" height="1.7" transform="translate(770.94 1075.41) rotate(-180)"/><rect class="cls-26" x="395.21" y="536.54" width="4.98" height="4.98" transform="translate(795.41 1078.06) rotate(-180)"/><rect class="cls-26" x="357" y="507.97" width="2.64" height="4.1"/><rect class="cls-25" x="310.33" y="507.97" width="38.85" height="38.85"/><rect class="cls-26" x="319.41" y="507.97" width="38.85" height="38.85"/><rect class="cls-27" x="341.36" y="507.97" width="7.82" height="4.54"/><rect class="cls-25" x="324.08" y="514.65" width="16.4" height="2.4" transform="translate(664.56 1031.7) rotate(-180)"/><rect class="cls-25" x="335.89" y="535.38" width="22.37" height="7.4"/><rect class="cls-27" x="337.39" y="536.85" width="9.27" height="1.7" transform="translate(684.05 1075.41) rotate(-180)"/><rect class="cls-26" x="351.77" y="536.54" width="4.98" height="4.98" transform="translate(708.52 1078.06) rotate(-180)"/><rect class="cls-26" x="313.55" y="507.97" width="2.64" height="4.1"/><rect class="cls-25" x="244.75" y="497.32" width="49.5" height="49.5"/><rect class="cls-26" x="256.33" y="497.32" width="49.5" height="49.5"/><rect class="cls-27" x="284.29" y="497.32" width="9.96" height="5.79"/><rect class="cls-25" x="262.27" y="505.84" width="20.89" height="3.05" transform="translate(545.44 1014.73) rotate(-180)"/><rect class="cls-25" x="277.32" y="532.25" width="28.5" height="9.42"/><rect class="cls-27" x="279.23" y="534.12" width="11.81" height="2.17" transform="translate(570.27 1070.41) rotate(-180)"/><rect class="cls-26" x="297.55" y="533.72" width="6.35" height="6.35" transform="translate(601.44 1073.79) rotate(-180)"/><rect class="cls-26" x="248.86" y="497.32" width="3.37" height="5.22"/><rect class="cls-25" x="334.46" y="475.53" width="32.46" height="32.46"/><rect class="cls-26" x="342.04" y="475.53" width="32.46" height="32.46"/><rect class="cls-27" x="360.38" y="475.53" width="6.53" height="3.79"/><rect class="cls-25" x="345.94" y="481.12" width="13.7" height="2" transform="translate(705.59 964.24) rotate(-180)"/><rect class="cls-25" x="355.81" y="498.44" width="18.69" height="6.18"/><rect class="cls-27" x="357.06" y="499.67" width="7.75" height="1.42" transform="translate(721.87 1000.76) rotate(-180)"/><rect class="cls-26" x="369.08" y="499.4" width="4.16" height="4.16" transform="translate(742.31 1002.97) rotate(-180)"/><rect class="cls-26" x="337.15" y="475.53" width="2.21" height="3.42"/><g class="cls-30"><path class="cls-23" d="M137.81,542.42c.85-3.52-1.16-7.57.65-10.71,1.58-2.75,5.21-3.32,8.07-4.68a12.76,12.76,0,0,0,7.23-12.58,41.81,41.81,0,0,0-1.5-5.78,25.78,25.78,0,0,1-.39-11.65,5.36,5.36,0,0,0,.1-2.81,3.14,3.14,0,0,0-3.24-1.83,6.63,6.63,0,0,0-3.56,1.7,15.74,15.74,0,0,0-5.47,9.66c-.25,1.64-.24,3.31-.63,4.92-1.63,6.64-9.49,10.2-11.44,16.76-1.05,3.54-.18,7.33.24,11s.17,7.83-2.5,10.4c-1.32,1.27,5.58,2.7,6.83,2.19A11,11,0,0,0,137.81,542.42Z"/><path class="cls-6" d="M128.48,549.3A.74.74,0,0,0,129,549a22.23,22.23,0,0,0,5.42-14,23.76,23.76,0,0,0-.22-3.28,17.17,17.17,0,0,1-.15-3.93c.25-2.16,3-3.69,5.41-5a24.23,24.23,0,0,0,2.64-1.61c2.88-2.16,4.56-4.7,4.85-7.35a16.41,16.41,0,0,0-.42-4.8,22.46,22.46,0,0,1-.43-3,15,15,0,0,1,2.21-8.18.74.74,0,1,0-1.27-.76,16.55,16.55,0,0,0-2.42,9,23.93,23.93,0,0,0,.45,3.24,15.1,15.1,0,0,1,.4,4.36c-.31,2.82-2.5,5-4.27,6.33a23.52,23.52,0,0,1-2.47,1.5c-2.59,1.45-5.82,3.24-6.16,6.16a18.56,18.56,0,0,0,.15,4.27A22.23,22.23,0,0,1,133,535a20.77,20.77,0,0,1-5.06,13.06.74.74,0,0,0,.56,1.22Z"/><path class="cls-23" d="M116.51,540.06c0-3.63,3-7.06,2-10.55-.87-3.05-4.25-4.48-6.71-6.49a12.76,12.76,0,0,1-4-14,41.77,41.77,0,0,1,2.85-5.25,25.78,25.78,0,0,0,3.19-11.21,5.36,5.36,0,0,1,.58-2.75,3.14,3.14,0,0,1,3.59-1,6.63,6.63,0,0,1,3,2.51,15.74,15.74,0,0,1,3,10.7c-.15,1.65-.57,3.27-.58,4.93,0,6.84,6.75,12.19,7.05,19,.16,3.69-1.6,7.15-2.89,10.62s-2.06,7.56-.09,10.69c1,1.55-6.07,1.27-7.15.47A11,11,0,0,1,116.51,540.06Z"/><path class="cls-6" d="M124.08,549a.74.74,0,0,0,.66-1.07A20.77,20.77,0,0,1,123,534a22.27,22.27,0,0,1,.95-2.93A18.54,18.54,0,0,0,125.1,527c.37-2.91-2.32-5.43-4.49-7.46a23.45,23.45,0,0,1-2-2.06c-1.4-1.72-3-4.36-2.62-7.18a15.09,15.09,0,0,1,1.44-4.14,24,24,0,0,0,1.22-3,16.55,16.55,0,0,0-.18-9.33.74.74,0,1,0-1.41.43,15,15,0,0,1,.17,8.47,22.5,22.5,0,0,1-1.15,2.85,16.4,16.4,0,0,0-1.56,4.56c-.35,2.64.66,5.51,2.93,8.3a24.4,24.4,0,0,0,2.17,2.2c2,1.89,4.31,4,4,6.2a17.18,17.18,0,0,1-1.1,3.78,23.75,23.75,0,0,0-1,3.13,22.23,22.23,0,0,0,1.88,14.87A.74.74,0,0,0,124.08,549Z"/><path class="cls-29" d="M116.21,533.4c-1.43-6.32-.58-13,3.69-18.36,1.92-2.4,4.46-4.42,5.57-7.28,2-5.1,1.1-10.92-.78-15.91-1.7-4.51-3.77-9.74-.1-13.91a6,6,0,0,1,10.34,3.79s0,.08,0,.12c0,3.78-.25,7.64.63,11.35,1.25,5.29,5.34,10.85,2.66,16.34-2.1,4.29-6.1,7.55-7.59,12.16-.84,2.58-.3,5-.09,7.6.42,5.39,1.7,15.45-2.33,19.86-1.69,1.85-3.94-1.3-5.14-2.61A29.51,29.51,0,0,1,116.21,533.4Z"/><path class="cls-6" d="M128,549.4a.74.74,0,0,0,.7-1c-.55-1.7-1.33-3.6-2.16-5.6-2.85-6.87-6.39-15.43-2.77-22.32a25.25,25.25,0,0,1,4.25-5.36c2.69-2.84,5.47-5.78,5.72-10,.17-2.91-1-5.81-2-8.61a40.32,40.32,0,0,1-1.38-3.93,60.57,60.57,0,0,1-1.64-11.3.74.74,0,1,0-1.47.11A61.84,61.84,0,0,0,128.89,493a41.81,41.81,0,0,0,1.43,4.08c1,2.65,2.1,5.39,1.95,8-.22,3.71-2.7,6.33-5.32,9.1a26.72,26.72,0,0,0-4.49,5.69c-3.94,7.51-.25,16.42,2.71,23.58.82,2,1.59,3.84,2.12,5.49A.74.74,0,0,0,128,549.4Z"/></g><rect class="cls-25" x="79.38" y="508.08" width="38.85" height="38.85"/><rect class="cls-26" x="88.47" y="508.08" width="38.85" height="38.85"/><rect class="cls-27" x="110.41" y="508.08" width="7.82" height="4.54"/><rect class="cls-25" x="93.13" y="514.77" width="16.4" height="2.4" transform="translate(202.67 1031.93) rotate(-180)"/><rect class="cls-25" x="104.95" y="535.5" width="22.37" height="7.4"/><rect class="cls-27" x="106.44" y="536.97" width="9.27" height="1.7" transform="translate(222.15 1075.64) rotate(-180)"/><rect class="cls-26" x="120.82" y="536.65" width="4.98" height="4.98" transform="translate(246.63 1078.29) rotate(-180)"/><rect class="cls-26" x="82.6" y="508.08" width="2.64" height="4.1"/><rect class="cls-25" x="21.05" y="497.43" width="49.5" height="49.5"/><rect class="cls-26" x="32.62" y="497.43" width="49.5" height="49.5"/><rect class="cls-27" x="60.58" y="497.43" width="9.96" height="5.79"/><rect class="cls-25" x="38.57" y="505.95" width="20.89" height="3.05" transform="translate(98.03 1014.96) rotate(-180)"/><rect class="cls-25" x="53.62" y="532.37" width="28.5" height="9.42"/><rect class="cls-27" x="55.52" y="534.24" width="11.81" height="2.17" transform="translate(122.86 1070.64) rotate(-180)"/><rect class="cls-26" x="73.84" y="533.83" width="6.35" height="6.35" transform="translate(154.03 1074.02) rotate(-180)"/><rect class="cls-26" x="25.15" y="497.43" width="3.37" height="5.22"/><rect class="cls-23" x="615.34" y="238.8" width="36.44" height="36.44" rx="3.65" ry="3.65" transform="translate(1267.11 514.04) rotate(-180)"/><path class="cls-31" d="M601.66,282.17v-25a7.28,7.28,0,0,1,7.27-7.27h25a7.28,7.28,0,0,1,7.27,7.27v25a7.28,7.28,0,0,1-7.27,7.27h-25A7.28,7.28,0,0,1,601.66,282.17Zm7.27-26.59a1.55,1.55,0,0,0-1.55,1.55v25a1.55,1.55,0,0,0,1.55,1.55h25a1.55,1.55,0,0,0,1.55-1.55v-25a1.55,1.55,0,0,0-1.55-1.55Z"/><rect class="cls-23" x="47.2" y="298.86" width="27.67" height="27.67" rx="2.77" ry="2.77"/><path class="cls-31" d="M55.2,331.8v-19a5.53,5.53,0,0,1,5.52-5.52h19a5.53,5.53,0,0,1,5.52,5.52v19a5.53,5.53,0,0,1-5.52,5.52h-19A5.53,5.53,0,0,1,55.2,331.8Zm5.52-20.19a1.18,1.18,0,0,0-1.18,1.18v19A1.18,1.18,0,0,0,60.72,333h19a1.18,1.18,0,0,0,1.18-1.18v-19a1.18,1.18,0,0,0-1.18-1.18Z"/><path class="cls-31" d="M334.4,221.42l-8.67-8.67a3.64,3.64,0,0,1,0-5.14l8.67-8.67a3.73,3.73,0,0,1,5.14,0l8.67,8.67a3.64,3.64,0,0,1,0,5.14l-8.67,8.67a3.65,3.65,0,0,1-5.14,0Zm11.72-10.76a.69.69,0,0,0,0-1L337.46,201a.68.68,0,0,0-1,0l-8.67,8.67a.69.69,0,0,0,0,1l8.67,8.67a.68.68,0,0,0,1,0Z"/><path class="cls-31" d="M27.93,365.31l-7.52-7.52a3.16,3.16,0,0,1,0-4.46l7.52-7.52a3.16,3.16,0,0,1,4.46,0l7.52,7.52a3.16,3.16,0,0,1,0,4.46l-7.52,7.52a3.16,3.16,0,0,1-4.46,0Zm1.81-17.7-7.52,7.52a.59.59,0,0,0,0,.84l7.52,7.52a.6.6,0,0,0,.84,0L38.11,356a.59.59,0,0,0,0-.84l-7.52-7.52a.59.59,0,0,0-.84,0Z"/><circle class="cls-4" cx="568.33" cy="199.5" r="4.48"/><circle class="cls-4" cx="137.9" cy="230.49" r="4.77"/><circle class="cls-23" cx="233.2" cy="206.96" r="5.51"/><circle class="cls-23" cx="500.04" cy="248.25" r="5.51"/><circle class="cls-32" cx="612.18" cy="344.71" r="3.99"/><circle class="cls-33" cx="522.4" cy="216.11" r="1.76"/><rect class="cls-29" x="396.39" y="293.53" width="101.86" height="57.97" rx="1.71" ry="1.71" transform="translate(894.64 645.02) rotate(-180)"/><rect class="cls-3" x="396.39" y="301.54" width="101.86" height="11"/><circle class="cls-3" cx="411.22" cy="334.78" r="9.43"/><rect class="cls-9" x="473.61" y="317.94" width="19.31" height="3.86"/><rect class="cls-9" x="449.65" y="317.94" width="19.31" height="3.86"/><rect class="cls-9" x="425.69" y="317.94" width="19.31" height="3.86"/><rect class="cls-9" x="401.72" y="317.94" width="19.31" height="3.86"/><rect class="cls-5" x="473.61" y="332.04" width="19.31" height="5.87" transform="translate(966.54 669.95) rotate(-180)"/><rect class="cls-5" x="449.44" y="332.04" width="19.31" height="5.87" transform="translate(918.19 669.95) rotate(-180)"/><rect class="cls-5" x="425.27" y="332.04" width="19.31" height="5.87" transform="translate(869.85 669.95) rotate(-180)"/><g id="_Group_2" data-name="&lt;Group&gt;"><polygon class="cls-34" points="484.62 180.56 508.73 179.37 503.28 170.6 491.31 173.92 484.62 180.56"/><polygon class="cls-35" points="492.7 160.36 484.62 180.56 497.74 174.91 545.91 174.66 492.7 160.36"/><polygon class="cls-4" points="489.35 149 492.7 160.36 545.91 174.66 489.35 149"/><polygon class="cls-4" points="497.74 174.91 501.66 192.75 545.91 174.66 497.74 174.91"/></g><path class="cls-3" d="M235.77,362.29q.89-.26,1.79-.55L237,360q-.87.28-1.73.53Z"/><path class="cls-3" d="M243.84,357.36q1.67-.74,3.32-1.57l.83,1.65q-1.69.85-3.4,1.61Zm9.74-5.17q1.56-1,3.08-2l1,1.53q-1.56,1.06-3.15,2.05Zm9-6.41q1.43-1.16,2.8-2.38l1.23,1.38q-1.4,1.25-2.86,2.44Zm8.08-7.51q1.26-1.34,2.45-2.74l1.41,1.2q-1.21,1.43-2.51,2.8Zm6.92-8.56q1-1.52,2-3.08l1.58,1q-1,1.61-2,3.17Zm5.35-9.57q.54-1.24,1-2.49l.33-.91,1.75.61c-.11.32-.22.63-.34.95q-.48,1.3-1,2.58Zm3-10.44a31.74,31.74,0,0,0,.28-3.6l1.85,0a33.71,33.71,0,0,1-.29,3.81Zm-1.53-14.19,1.73-.66a29.57,29.57,0,0,1,1.12,3.67l-1.8.42A27.63,27.63,0,0,0,284.39,295.52Zm-4-7.27q-.75-1-1.57-1.9l1.37-1.24c.59.65,1.15,1.33,1.68,2,.24.32.47.64.7,1L281,289.16C280.81,288.86,280.59,288.55,280.36,288.25Zm-10.16-8.43.88-1.62c1.18.64,2.25,1.28,3.26,2l-1,1.54C272.35,281,271.33,280.44,270.2,279.82Zm-9.45-4.29-.63-.26.71-1.71.63.26,2.81,1.17-.72,1.7Zm-10.82-5.07.94-1.59c1,.58,2,1.14,3.22,1.72l-.82,1.66C252.05,271.65,251,271.06,249.93,270.46Zm-8.75-7.38,1.48-1.11a21,21,0,0,0,2.38,2.64L243.78,266A22.8,22.8,0,0,1,241.19,263.08Zm-3.89-10.85,1.85-.08a18.33,18.33,0,0,0,.5,3.5l-1.8.44A20.18,20.18,0,0,1,237.3,252.23Zm.87-7.63a35.67,35.67,0,0,1,1.16-3.64l1.73.65a34.09,34.09,0,0,0-1.1,3.45Zm4.41-10.49q.92-1.62,2-3.23l1.55,1q-1,1.55-1.91,3.13Zm6.37-9.33q1.17-1.48,2.4-2.9l1.4,1.21q-1.2,1.39-2.35,2.84Zm7.49-8.41q1.34-1.36,2.69-2.62l1.27,1.35q-1.32,1.24-2.64,2.58Zm8.33-7.58c1-.84,2-1.61,3-2.32l1.1,1.48c-.93.69-1.9,1.45-2.9,2.26Zm9.16-6.56q1.58-1,3.18-2l1,1.58q-1.58,1-3.14,2Zm9.69-5.68q1.65-.88,3.33-1.72l.83,1.65q-1.65.83-3.28,1.7Zm10.1-4.9q1.71-.75,3.44-1.47l.7,1.71q-1.71.7-3.4,1.45Zm10.42-4.16q1.76-.64,3.53-1.23l.59,1.75q-1.75.59-3.49,1.22ZM314.78,184q1.79-.52,3.59-1l.48,1.78q-1.78.48-3.56,1Zm10.84-2.84q1.82-.42,3.64-.82l.39,1.81q-1.81.39-3.61.81Zm11-2.28q1.83-.34,3.68-.64l.3,1.82-3.65.64Zm11.05-1.77,3.7-.49.23,1.83-3.68.49Zm122.54.68.21-1.84,3.7.46-.24,1.83Zm-111.43-2,3.72-.35.16,1.84-3.69.35Zm100.36.92.15-1.84,3.71.32-.17,1.84Zm-89.2-1.87,3.73-.24.11,1.85-3.71.24ZM448,176l.09-1.85,3.72.21-.11,1.85Zm-66.93-1.76,3.73-.14.06,1.85-3.72.14Zm11.18-.34,3.72-.07,0,1.85-3.72.07Zm44.62,1.68,0-1.85,3.72.11-.06,1.85Zm-33.46-1.89,3.72-.06,0,1.85-3.72.06Zm22.32,1.71v-1.85l3.72,0,0,1.85Zm-11.16-1.84,3.72,0v1.85l-3.72,0Z"/><polygon class="cls-3" points="483.09 179.63 483.4 177.8 481.57 177.5 481.28 179.33 483.09 179.63"/><path class="cls-4" d="M658,514.54s-31.33,2.1-29.52-35.19,12.91-70.62,27.26-72.93,22.7,35.36,25.08,53.82,2.27,52.32-18.5,54.32Z"/><polygon class="cls-12" points="636.47 479.62 637.84 478.25 654.16 494.58 654.16 473.02 638.3 456.98 639.68 455.62 654.16 470.26 654.16 450.95 644.58 441.72 645.92 440.33 654.16 448.26 654.16 428.88 656.1 428.88 656.1 436.54 662.24 430.4 663.61 431.77 656.1 439.28 656.1 458.61 671.99 442.55 673.37 443.91 656.1 461.36 656.1 482.9 672.17 466.66 673.55 468.02 656.1 485.65 656.1 547.65 654.16 547.65 654.16 497.31 636.47 479.62"/><rect class="cls-36" x="4.24" y="546.99" width="684.52" height="2.13"/></svg>